# Blender v2.91.2 OBJ File: 'CrocoLoco.blend'
# www.blender.org
o Stand_Croco_Cube.009
v -0.122489 -0.747776 6.019236
v -0.240270 -0.712047 6.019236
v -0.348818 -0.654027 6.019236
v -0.443961 -0.575945 6.019236
v -0.522042 -0.480801 6.019236
v -0.580062 -0.372254 6.019236
v -0.615791 -0.254473 6.019236
v -0.627855 -0.131984 6.019236
v -0.615791 -0.009496 6.019236
v -0.580062 0.108285 6.019236
v -0.522042 0.216833 6.019236
v -0.443960 0.311976 6.019236
v -0.348817 0.390058 6.019236
v -0.240269 0.448078 6.019236
v -0.122487 0.483806 6.019236
v 0.000000 0.495870 6.019236
v 0.000000 -0.759840 6.019236
v 0.122489 -0.747776 6.019236
v 0.240270 -0.712047 6.019236
v 0.348818 -0.654027 6.019236
v 0.443961 -0.575945 6.019236
v 0.522043 -0.480801 6.019236
v 0.580063 -0.372254 6.019236
v 0.615791 -0.254473 6.019236
v 0.627855 -0.131984 6.019236
v 0.615791 -0.009496 6.019236
v 0.580062 0.108285 6.019236
v 0.522042 0.216833 6.019236
v 0.443960 0.311976 6.019236
v 0.348817 0.390058 6.019236
v 0.240269 0.448078 6.019236
v 0.122488 0.483806 6.019236
v -12.228927 -1.263534 0.492999
v -9.093599 1.521673 6.774332
v -17.442400 16.343155 0.564889
v -12.083894 16.295134 7.046270
v -2.549656 16.343155 0.564889
v -5.869651 -4.059349 6.774332
v -2.549656 16.343155 7.046270
v -5.869651 -8.197664 -0.179038
v 12.228927 -1.263533 0.492999
v 9.093599 1.521674 6.774332
v 17.442400 16.343157 0.564889
v 12.083894 16.295135 7.046270
v -0.000001 16.343155 0.564889
v -0.000001 16.343155 7.046270
v 0.000001 -9.685604 0.564889
v 0.000000 -5.224478 6.774332
v 2.549655 16.343155 0.564889
v 5.869652 -4.059349 6.774332
v 2.549655 16.343155 7.046270
v 5.869652 -8.197664 -0.179038
v 0.000000 -0.759840 6.830625
v 0.122489 -0.747776 6.830470
v -0.122489 -0.747776 6.830470
v 0.240270 -0.712047 6.830626
v -0.240270 -0.712047 6.830626
v 0.348818 -0.654027 6.831086
v -0.348818 -0.654027 6.831086
v 0.443961 -0.575945 6.831832
v -0.443961 -0.575945 6.831832
v 0.522043 -0.480801 6.832836
v -0.522042 -0.480801 6.832836
v 0.580063 -0.372254 6.834060
v -0.580062 -0.372254 6.834060
v 0.615791 -0.254473 6.835456
v -0.615791 -0.254473 6.835456
v 0.627855 -0.131984 6.836969
v -0.627855 -0.131984 6.836969
v 0.615791 -0.009496 6.838545
v -0.615791 -0.009496 6.838545
v 0.580062 0.108285 6.840118
v -0.580062 0.108285 6.840118
v 0.522042 0.216833 6.841633
v -0.522042 0.216833 6.841633
v 0.443960 0.311976 6.843028
v -0.443960 0.311976 6.843028
v 0.348817 0.390058 6.844251
v -0.348817 0.390058 6.844251
v 0.240269 0.448078 6.845254
v -0.240269 0.448078 6.845254
v 0.122488 0.483806 6.845999
v 0.000000 0.495870 6.846457
v -0.122487 0.483806 6.845999
vt 0.375000 0.250000
vt 0.625000 0.000000
vt 0.375000 0.000000
vt 0.375000 1.000000
vt 0.625000 0.937500
vt 0.375000 0.937500
vt 0.812500 0.500000
vt 0.875000 0.750000
vt 0.875000 0.500000
vt 0.187500 0.750000
vt 0.250000 0.500000
vt 0.187500 0.500000
vt 0.375000 0.375000
vt 0.625000 0.312500
vt 0.375000 0.312500
vt 0.625000 0.250000
vt 0.125000 0.750000
vt 0.125000 0.500000
vt 0.625000 0.875000
vt 0.375000 0.875000
vt 0.625000 0.000000
vt 0.375000 0.250000
vt 0.375000 0.000000
vt 0.625000 0.937500
vt 0.375000 1.000000
vt 0.375000 0.937500
vt 0.812500 0.500000
vt 0.875000 0.750000
vt 0.812500 0.750000
vt 0.187500 0.750000
vt 0.187500 0.500000
vt 0.625000 0.312500
vt 0.375000 0.312500
vt 0.625000 0.250000
vt 0.125000 0.750000
vt 0.125000 0.500000
vt 0.500000 0.500000
vt 0.468750 0.823019
vt 0.468750 0.500000
vt 0.437500 0.500000
vt 0.437500 0.823081
vt 0.406250 0.500000
vt 0.406250 0.823264
vt 0.375000 0.500000
vt 0.375000 0.823561
vt 0.343750 0.500000
vt 0.343750 0.823961
vt 0.312500 0.500000
vt 0.312500 0.824448
vt 0.281250 0.500000
vt 0.281250 0.825004
vt 0.250000 0.500000
vt 0.250000 0.825606
vt 0.218750 0.500000
vt 0.218750 0.826234
vt 0.187500 0.500000
vt 0.187500 0.826860
vt 0.156250 0.500000
vt 0.156250 0.827463
vt 0.125000 0.500000
vt 0.125000 0.828019
vt 0.093750 0.500000
vt 0.093750 0.828506
vt 0.062500 0.500000
vt 0.062500 0.828905
vt 0.031250 0.500000
vt 0.031250 0.829202
vt 0.000000 0.500000
vt 0.468750 0.823019
vt 0.468750 0.500000
vt 0.437500 0.500000
vt 0.406250 0.500000
vt 0.437500 0.823081
vt 0.375000 0.500000
vt 0.406250 0.823264
vt 0.343750 0.500000
vt 0.375000 0.823561
vt 0.312500 0.500000
vt 0.343750 0.823961
vt 0.281250 0.500000
vt 0.312500 0.824448
vt 0.250000 0.500000
vt 0.281250 0.825004
vt 0.218750 0.500000
vt 0.250000 0.825606
vt 0.187500 0.500000
vt 0.218750 0.826234
vt 0.156250 0.500000
vt 0.187500 0.826860
vt 0.125000 0.500000
vt 0.156250 0.827463
vt 0.125000 0.828019
vt 0.093750 0.500000
vt 0.093750 0.828506
vt 0.062500 0.500000
vt 0.062500 0.828905
vt 0.031250 0.500000
vt 0.031250 0.829202
vt 0.000000 0.829384
vt 0.757717 0.692244
vt 0.757545 0.693643
vt 0.812500 0.750000
vt 0.757717 0.692244
vt 0.757594 0.690796
vt 0.625000 1.000000
vt 0.250000 0.750000
vt 0.625000 0.375000
vt 0.625000 1.000000
vt 0.875000 0.500000
vt 0.500000 0.823080
vt 0.750000 0.500000
vt 0.750000 0.683693
vt 0.751540 0.684075
vt 0.753013 0.684724
vt 0.756484 0.687975
vt 0.755534 0.686712
vt 0.754362 0.685615
vt 0.750000 0.698248
vt 0.750000 0.750000
vt 0.751493 0.698359
vt 0.755408 0.697025
vt 0.752926 0.698186
vt 0.754247 0.697736
vt 0.756367 0.696081
vt 0.757179 0.689354
vt 0.757594 0.690796
vt 0.757089 0.694939
vt 0.751493 0.698359
vt 0.752926 0.698186
vt 0.751540 0.684075
vt 0.756484 0.687975
vt 0.755534 0.686712
vt 0.753013 0.684724
vt 0.755408 0.697025
vt 0.754247 0.697736
vt 0.754362 0.685615
vt 0.756367 0.696081
vt 0.757089 0.694939
vt 0.757545 0.693643
vt 0.757179 0.689354
vn 0.8197 0.2448 -0.5177
vn 0.6619 0.6442 -0.3834
vn -0.0001 0.0184 -0.9998
vn 0.0000 -0.0303 0.9995
vn 0.0000 -1.0000 0.0000
vn 0.0000 -1.0000 -0.0074
vn 0.0000 -0.0041 1.0000
vn 0.2695 0.7821 -0.5619
vn -0.8197 0.2448 -0.5177
vn -0.6619 0.6442 -0.3834
vn -0.0180 0.0104 -0.9998
vn -0.2695 0.7821 -0.5619
vn -0.0980 -0.9952 0.0000
vn -0.2903 -0.9569 0.0000
vn -0.4714 -0.8819 0.0000
vn -0.6344 -0.7730 0.0000
vn -0.7730 -0.6344 0.0000
vn -0.8819 -0.4714 0.0000
vn -0.9569 -0.2903 0.0000
vn -0.9952 -0.0980 0.0000
vn -0.9952 0.0980 0.0000
vn -0.9569 0.2903 0.0000
vn -0.8819 0.4714 0.0000
vn -0.7730 0.6344 0.0000
vn -0.6344 0.7730 0.0000
vn -0.4714 0.8819 0.0000
vn -0.2903 0.9569 0.0000
vn -0.0980 0.9952 0.0000
vn 0.0000 0.0000 -1.0000
vn 0.0980 -0.9952 0.0000
vn 0.2903 -0.9569 0.0000
vn 0.4714 -0.8819 0.0000
vn 0.6344 -0.7730 0.0000
vn 0.7730 -0.6344 0.0000
vn 0.8819 -0.4714 0.0000
vn 0.9569 -0.2903 0.0000
vn 0.9952 -0.0980 0.0000
vn 0.9952 0.0980 0.0000
vn 0.9569 0.2903 0.0000
vn 0.8819 0.4714 0.0000
vn 0.7730 0.6344 0.0000
vn 0.6344 0.7730 0.0000
vn 0.4714 0.8819 0.0000
vn 0.2903 0.9569 0.0000
vn 0.0980 0.9952 0.0000
vn 0.0025 0.0126 -0.9999
vn -0.0025 0.0126 -0.9999
vn 0.7607 0.1655 -0.6277
vn 0.7247 0.4186 -0.5473
vn 0.0180 0.0104 -0.9998
vn -0.1257 -0.0000 0.9921
vn 0.0050 -1.0000 0.0000
vn 0.0631 -0.0388 0.9973
vn 0.1681 0.8471 -0.5041
vn -0.7607 0.1655 -0.6277
vn -0.7247 0.4186 -0.5473
vn 0.0001 0.0184 -0.9998
vn 0.1257 0.0000 0.9921
vn -0.0050 -1.0000 0.0000
vn -0.0631 -0.0388 0.9973
vn -0.1681 0.8471 -0.5041
vn -0.0001 0.0000 -1.0000
vn 0.0000 0.0126 -0.9999
vn 0.0024 0.0130 -0.9999
vn 0.0022 0.0130 -0.9999
vn 0.0023 0.0130 -0.9999
vn 0.0021 0.0130 -0.9999
vn -0.0022 0.0130 -0.9999
vn -0.0021 0.0130 -0.9999
vn -0.0024 0.0130 -0.9999
vn -0.0023 0.0130 -0.9999
s off
f 35/1/1 34/2/1 33/3/1
f 33/4/2 38/5/2 40/6/2
f 39/7/3 34/8/3 36/9/3
f 40/10/4 45/11/4 37/12/4
f 45/13/5 39/14/5 37/15/5
f 37/15/6 36/16/6 35/1/6
f 33/17/7 37/12/7 35/18/7
f 40/6/8 48/19/8 47/20/8
f 42/21/9 43/22/9 41/23/9
f 50/24/10 41/25/10 52/26/10
f 51/27/11 42/28/11 50/29/11
f 45/11/4 52/30/4 49/31/4
f 51/32/5 45/13/5 49/33/5
f 44/34/6 49/33/6 43/22/6
f 49/31/7 41/35/7 43/36/7
f 48/19/12 52/26/12 47/20/12
f 17/37/13 55/38/13 1/39/13
f 55/38/14 2/40/14 1/39/14
f 57/41/15 3/42/15 2/40/15
f 59/43/16 4/44/16 3/42/16
f 61/45/17 5/46/17 4/44/17
f 63/47/18 6/48/18 5/46/18
f 65/49/19 7/50/19 6/48/19
f 67/51/20 8/52/20 7/50/20
f 69/53/21 9/54/21 8/52/21
f 71/55/22 10/56/22 9/54/22
f 73/57/23 11/58/23 10/56/23
f 75/59/24 12/60/24 11/58/24
f 77/61/25 13/62/25 12/60/25
f 79/63/26 14/64/26 13/62/26
f 81/65/27 15/66/27 14/64/27
f 84/67/28 16/68/28 15/66/28
f 3/42/29 6/48/29 14/64/29
f 54/69/30 17/37/30 18/70/30
f 19/71/31 54/69/31 18/70/31
f 20/72/32 56/73/32 19/71/32
f 21/74/33 58/75/33 20/72/33
f 22/76/34 60/77/34 21/74/34
f 23/78/35 62/79/35 22/76/35
f 24/80/36 64/81/36 23/78/36
f 25/82/37 66/83/37 24/80/37
f 26/84/38 68/85/38 25/82/38
f 27/86/39 70/87/39 26/84/39
f 28/88/40 72/89/40 27/86/40
f 29/90/41 74/91/41 28/88/41
f 76/92/42 30/93/42 78/94/42
f 78/94/43 31/95/43 80/96/43
f 80/96/44 32/97/44 82/98/44
f 82/98/45 16/68/45 83/99/45
f 32/97/29 28/88/29 24/80/29
f 69/100/46 67/101/46 38/102/46
f 68/103/47 70/104/47 50/29/47
f 35/1/48 36/16/48 34/2/48
f 33/4/49 34/105/49 38/5/49
f 39/7/50 38/102/50 34/8/50
f 40/10/51 47/106/51 45/11/51
f 45/13/5 46/107/5 39/14/5
f 37/15/52 39/14/52 36/16/52
f 33/17/53 40/10/53 37/12/53
f 40/6/54 38/5/54 48/19/54
f 42/21/55 44/34/55 43/22/55
f 50/24/56 42/108/56 41/25/56
f 51/27/57 44/109/57 42/28/57
f 45/11/58 47/106/58 52/30/58
f 51/32/5 46/107/5 45/13/5
f 44/34/59 51/32/59 49/33/59
f 49/31/60 52/30/60 41/35/60
f 48/19/61 50/24/61 52/26/61
f 17/37/13 53/110/13 55/38/13
f 55/38/14 57/41/14 2/40/14
f 57/41/15 59/43/15 3/42/15
f 59/43/16 61/45/16 4/44/16
f 61/45/17 63/47/17 5/46/17
f 63/47/18 65/49/18 6/48/18
f 65/49/19 67/51/19 7/50/19
f 67/51/20 69/53/20 8/52/20
f 69/53/21 71/55/21 9/54/21
f 71/55/22 73/57/22 10/56/22
f 73/57/23 75/59/23 11/58/23
f 75/59/24 77/61/24 12/60/24
f 77/61/25 79/63/25 13/62/25
f 79/63/26 81/65/26 14/64/26
f 81/65/27 84/67/27 15/66/27
f 84/67/28 83/99/28 16/68/28
f 4/44/29 5/46/29 3/42/29
f 5/46/29 6/48/29 3/42/29
f 6/48/29 7/50/29 8/52/29
f 8/52/29 9/54/29 10/56/29
f 10/56/29 11/58/29 14/64/29
f 11/58/29 12/60/29 14/64/29
f 12/60/29 13/62/29 14/64/29
f 14/64/29 15/66/29 1/39/29
f 15/66/29 16/68/29 1/39/29
f 16/68/29 17/37/29 1/39/29
f 1/39/29 2/40/29 3/42/29
f 6/48/29 8/52/29 14/64/29
f 8/52/29 10/56/29 14/64/29
f 1/39/29 3/42/29 14/64/29
f 54/69/30 53/110/30 17/37/30
f 19/71/31 56/73/31 54/69/31
f 20/72/32 58/75/32 56/73/32
f 21/74/33 60/77/33 58/75/33
f 22/76/34 62/79/34 60/77/34
f 23/78/35 64/81/35 62/79/35
f 24/80/36 66/83/36 64/81/36
f 25/82/37 68/85/37 66/83/37
f 26/84/38 70/87/38 68/85/38
f 27/86/39 72/89/39 70/87/39
f 28/88/40 74/91/40 72/89/40
f 29/90/41 76/92/41 74/91/41
f 76/92/42 29/90/42 30/93/42
f 78/94/43 30/93/43 31/95/43
f 80/96/44 31/95/44 32/97/44
f 82/98/45 32/97/45 16/68/45
f 17/37/29 16/68/29 32/97/29
f 32/97/29 31/95/29 28/88/29
f 31/95/29 30/93/29 28/88/29
f 30/93/29 29/90/29 28/88/29
f 28/88/29 27/86/29 26/84/29
f 26/84/62 25/82/62 28/88/62
f 25/82/29 24/80/29 28/88/29
f 24/80/29 23/78/29 22/76/29
f 22/76/29 21/74/29 20/72/29
f 20/72/29 19/71/29 18/70/29
f 18/70/29 17/37/29 20/72/29
f 17/37/29 32/97/29 20/72/29
f 24/80/29 22/76/29 32/97/29
f 22/76/29 20/72/29 32/97/29
f 46/111/46 83/112/46 84/113/46
f 46/111/63 84/113/63 39/7/63
f 84/113/64 81/114/64 39/7/64
f 38/102/65 39/7/65 75/115/65
f 77/116/65 39/7/65 79/117/65
f 53/118/46 48/119/46 55/120/46
f 48/119/46 38/102/46 61/121/46
f 55/120/46 48/119/46 57/122/46
f 57/122/46 48/119/46 59/123/46
f 81/114/66 79/117/66 39/7/66
f 59/123/46 48/119/46 61/121/46
f 39/7/67 77/116/67 75/115/67
f 63/124/46 61/121/46 38/102/46
f 38/102/46 75/115/46 73/125/46
f 38/102/46 73/125/46 71/126/46
f 65/127/46 63/124/46 38/102/46
f 67/101/46 65/127/46 38/102/46
f 38/102/46 71/126/46 69/100/46
f 48/119/47 53/118/47 54/128/47
f 48/119/47 54/128/47 56/129/47
f 46/111/63 51/27/63 82/130/63
f 51/27/68 50/29/68 74/131/68
f 76/132/69 51/27/69 74/131/69
f 82/130/47 83/112/47 46/111/47
f 80/133/70 82/130/70 51/27/70
f 50/29/47 48/119/47 60/134/47
f 48/119/47 56/129/47 58/135/47
f 48/119/47 58/135/47 60/134/47
f 78/136/71 80/133/71 51/27/71
f 76/132/68 78/136/68 51/27/68
f 50/29/47 60/134/47 62/137/47
f 50/29/47 62/137/47 64/138/47
f 50/29/47 64/138/47 66/139/47
f 72/140/47 74/131/47 50/29/47
f 70/104/47 72/140/47 50/29/47
f 50/29/47 66/139/47 68/103/47
