# Aspose.3D Wavefront OBJ Exporter
# Copyright 2004-2021 Aspose Pty Ltd.
# File created: 09/08/2021 04:55:02 p. m.


#
# object obj_61585427
#

v 0.5 0.5 0.5
v 0.5 0.5 -0.5
v 0.5 -0.5 0.5
v 0.5 -0.5 -0.5
v -0.5 0.5 -0.5
v -0.5 0.5 0.5
v -0.5 -0.5 -0.5
v -0.5 -0.5 0.5
v -0.5 0.5 -0.5
v 0.5 0.5 -0.5
v -0.5 0.5 0.5
v 0.5 0.5 0.5
v -0.5 -0.5 0.5
v 0.5 -0.5 0.5
v -0.5 -0.5 -0.5
v 0.5 -0.5 -0.5
v -0.5 0.5 0.5
v 0.5 0.5 0.5
v -0.5 -0.5 0.5
v 0.5 -0.5 0.5
v 0.5 0.5 -0.5
v -0.5 0.5 -0.5
v 0.5 -0.5 -0.5
v -0.5 -0.5 -0.5
# 24 vertices

vn 1 0 0
vn 1 0 0
vn 1 0 0
vn 1 0 0
vn -1 0 0
vn -1 0 0
vn -1 0 0
vn -1 0 0
vn 0 1 0
vn 0 1 0
vn 0 1 0
vn 0 1 0
vn 0 -1 0
vn 0 -1 0
vn 0 -1 0
vn 0 -1 0
vn 0 0 1
vn 0 0 1
vn 0 0 1
vn 0 0 1
vn 0 0 -1
vn 0 0 -1
vn 0 0 -1
vn 0 0 -1
# 24 vertex normals

vt 0 1 0
vt 1 1 0
vt 0 0 0
vt 1 0 0
vt 0 1 0
vt 1 1 0
vt 0 0 0
vt 1 0 0
vt 0 1 0
vt 1 1 0
vt 0 0 0
vt 1 0 0
vt 0 1 0
vt 1 1 0
vt 0 0 0
vt 1 0 0
vt 0 1 0
vt 1 1 0
vt 0 0 0
vt 1 0 0
vt 0 1 0
vt 1 1 0
vt 0 0 0
vt 1 0 0
# 24 texture coords

g obj_61585427
s 1
f 1/1/1 3/3/3 4/4/4 2/2/2
f 5/5/5 7/7/7 8/8/8 6/6/6
f 9/9/9 11/11/11 12/12/12 10/10/10
f 13/13/13 15/15/15 16/16/16 14/14/14
f 17/17/17 19/19/19 20/20/20 18/18/18
f 21/21/21 23/23/23 24/24/24 22/22/22
#6 polygons


#
# object obj_44457441
#

v 2000 90.596435546875 1500
v 2000 90.596435546875 -1500
v 2000 -2276.596435546875 1500
v 2000 -2276.596435546875 -1500
v -2000 90.596435546875 -1500
v -2000 90.596435546875 1500
v -2000 -2276.596435546875 -1500
v -2000 -2276.596435546875 1500
v -2000 90.596435546875 -1500
v 2000 90.596435546875 -1500
v -2000 90.596435546875 1500
v 2000 90.596435546875 1500
v -2000 -2276.596435546875 1500
v 2000 -2276.596435546875 1500
v -2000 -2276.596435546875 -1500
v 2000 -2276.596435546875 -1500
v -2000 90.596435546875 1500
v 2000 90.596435546875 1500
v -2000 -2276.596435546875 1500
v 2000 -2276.596435546875 1500
v 2000 90.596435546875 -1500
v -2000 90.596435546875 -1500
v 2000 -2276.596435546875 -1500
v -2000 -2276.596435546875 -1500
# 24 vertices

vn 1 0 0
vn 1 0 0
vn 1 0 0
vn 1 0 0
vn -1 0 0
vn -1 0 0
vn -1 0 0
vn -1 0 0
vn 0 1 0
vn 0 1 0
vn 0 1 0
vn 0 1 0
vn 0 -1 0
vn 0 -1 0
vn 0 -1 0
vn 0 -1 0
vn 0 0 1
vn 0 0 1
vn 0 0 1
vn 0 0 1
vn 0 0 -1
vn 0 0 -1
vn 0 0 -1
vn 0 0 -1
# 24 vertex normals

vt 0 1 0
vt 1 1 0
vt 0 0 0
vt 1 0 0
vt 0 1 0
vt 1 1 0
vt 0 0 0
vt 1 0 0
vt 0 1 0
vt 1 1 0
vt 0 0 0
vt 1 0 0
vt 0 1 0
vt 1 1 0
vt 0 0 0
vt 1 0 0
vt 0 1 0
vt 1 1 0
vt 0 0 0
vt 1 0 0
vt 0 1 0
vt 1 1 0
vt 0 0 0
vt 1 0 0
# 24 texture coords

g obj_44457441
s 2
f 25/25/25 27/27/27 28/28/28 26/26/26
f 29/29/29 31/31/31 32/32/32 30/30/30
f 33/33/33 35/35/35 36/36/36 34/34/34
f 37/37/37 39/39/39 40/40/40 38/38/38
f 41/41/41 43/43/43 44/44/44 42/42/42
f 45/45/45 47/47/47 48/48/48 46/46/46
#6 polygons


#
# object obj_670902
#

v 239.53984069824218752 878.05682373046875 2256.082275390625
v 239.53984069824218752 878.05682373046875 -316.082275390625
v 239.53984069824218752 -3.18829345703125 2256.082275390625
v 239.53984069824218752 -3.18829345703125 -316.082275390625
v 110.72846984863281248 878.05682373046875 -316.082275390625
v 110.72846984863281248 878.05682373046875 2256.082275390625
v 110.72846984863281248 -3.18829345703125 -316.082275390625
v 110.72846984863281248 -3.18829345703125 2256.082275390625
v 110.72846984863281248 878.05682373046875 -316.082275390625
v 239.53984069824218752 878.05682373046875 -316.082275390625
v 110.72846984863281248 878.05682373046875 2256.082275390625
v 239.53984069824218752 878.05682373046875 2256.082275390625
v 110.72846984863281248 -3.18829345703125 2256.082275390625
v 239.53984069824218752 -3.18829345703125 2256.082275390625
v 110.72846984863281248 -3.18829345703125 -316.082275390625
v 239.53984069824218752 -3.18829345703125 -316.082275390625
v 110.72846984863281248 878.05682373046875 2256.082275390625
v 239.53984069824218752 878.05682373046875 2256.082275390625
v 110.72846984863281248 -3.18829345703125 2256.082275390625
v 239.53984069824218752 -3.18829345703125 2256.082275390625
v 239.53984069824218752 878.05682373046875 -316.082275390625
v 110.72846984863281248 878.05682373046875 -316.082275390625
v 239.53984069824218752 -3.18829345703125 -316.082275390625
v 110.72846984863281248 -3.18829345703125 -316.082275390625
# 24 vertices

vn 1 0 0
vn 1 0 0
vn 1 0 0
vn 1 0 0
vn -1 0 0
vn -1 0 0
vn -1 0 0
vn -1 0 0
vn 0 1 0
vn 0 1 0
vn 0 1 0
vn 0 1 0
vn 0 -1 0
vn 0 -1 0
vn 0 -1 0
vn 0 -1 0
vn 0 0 1
vn 0 0 1
vn 0 0 1
vn 0 0 1
vn 0 0 -1
vn 0 0 -1
vn 0 0 -1
vn 0 0 -1
# 24 vertex normals

vt 0 1 0
vt 1 1 0
vt 0 0 0
vt 1 0 0
vt 0 1 0
vt 1 1 0
vt 0 0 0
vt 1 0 0
vt 0 1 0
vt 1 1 0
vt 0 0 0
vt 1 0 0
vt 0 1 0
vt 1 1 0
vt 0 0 0
vt 1 0 0
vt 0 1 0
vt 1 1 0
vt 0 0 0
vt 1 0 0
vt 0 1 0
vt 1 1 0
vt 0 0 0
vt 1 0 0
# 24 texture coords

g obj_670902
s 4
f 49/49/49 51/51/51 52/52/52 50/50/50
f 53/53/53 55/55/55 56/56/56 54/54/54
f 57/57/57 59/59/59 60/60/60 58/58/58
f 61/61/61 63/63/63 64/64/64 62/62/62
f 65/65/65 67/67/67 68/68/68 66/66/66
f 69/69/69 71/71/71 72/72/72 70/70/70
#6 polygons


#
# object obj_51659503
#

v -1569.12268708333567702 878.05682373046875 2182.64177842462959232
v -316.89031218265927232 878.05682373046875 128.40466033580094064
v -1569.12268708333567702 -3.18829345703125 2182.64177842462959232
v -316.89031218265927232 -3.18829345703125 128.40466033580094064
v -426.87731291666432304 878.05682373046875 61.35822157537063504
v -1679.10968781734072764 878.05682373046875 2115.59533966419894568
v -426.87731291666432304 -3.18829345703125 61.35822157537063504
v -1679.10968781734072764 -3.18829345703125 2115.59533966419894568
v -426.87731291666432304 878.05682373046875 61.35822157537063504
v -316.89031218265927232 878.05682373046875 128.40466033580094064
v -1679.10968781734072764 878.05682373046875 2115.59533966419894568
v -1569.12268708333567702 878.05682373046875 2182.64177842462959232
v -1679.10968781734072764 -3.18829345703125 2115.59533966419894568
v -1569.12268708333567702 -3.18829345703125 2182.64177842462959232
v -426.87731291666432304 -3.18829345703125 61.35822157537063504
v -316.89031218265927232 -3.18829345703125 128.40466033580094064
v -1679.10968781734072764 878.05682373046875 2115.59533966419894568
v -1569.12268708333567702 878.05682373046875 2182.64177842462959232
v -1679.10968781734072764 -3.18829345703125 2115.59533966419894568
v -1569.12268708333567702 -3.18829345703125 2182.64177842462959232
v -316.89031218265927232 878.05682373046875 128.40466033580094064
v -426.87731291666432304 878.05682373046875 61.35822157537063504
v -316.89031218265927232 -3.18829345703125 128.40466033580094064
v -426.87731291666432304 -3.18829345703125 61.35822157537063504
# 24 vertices

vn 0.85386106208857232 0 0.52050099581938888
vn 0.85386106208857232 0 0.52050099581938888
vn 0.85386106208857232 0 0.52050099581938888
vn 0.85386106208857232 0 0.52050099581938888
vn -0.85386106208857232 0 -0.52050099581938888
vn -0.85386106208857232 0 -0.52050099581938888
vn -0.85386106208857232 0 -0.52050099581938888
vn -0.85386106208857232 0 -0.52050099581938888
vn 0 1 0
vn 0 1 0
vn 0 1 0
vn 0 1 0
vn 0 -1 0
vn 0 -1 0
vn 0 -1 0
vn 0 -1 0
vn -0.52050099581938888 0 0.85386106208857232
vn -0.52050099581938888 0 0.85386106208857232
vn -0.52050099581938888 0 0.85386106208857232
vn -0.52050099581938888 0 0.85386106208857232
vn 0.52050099581938888 0 -0.85386106208857232
vn 0.52050099581938888 0 -0.85386106208857232
vn 0.52050099581938888 0 -0.85386106208857232
vn 0.52050099581938888 0 -0.85386106208857232
# 24 vertex normals

vt 0 1 0
vt 1 1 0
vt 0 0 0
vt 1 0 0
vt 0 1 0
vt 1 1 0
vt 0 0 0
vt 1 0 0
vt 0 1 0
vt 1 1 0
vt 0 0 0
vt 1 0 0
vt 0 1 0
vt 1 1 0
vt 0 0 0
vt 1 0 0
vt 0 1 0
vt 1 1 0
vt 0 0 0
vt 1 0 0
vt 0 1 0
vt 1 1 0
vt 0 0 0
vt 1 0 0
# 24 texture coords

g obj_51659503
s 8
f 73/73/73 75/75/75 76/76/76 74/74/74
f 77/77/77 79/79/79 80/80/80 78/78/78
f 81/81/81 83/83/83 84/84/84 82/82/82
f 85/85/85 87/87/87 88/88/88 86/86/86
f 89/89/89 91/91/91 92/92/92 90/90/90
f 93/93/93 95/95/95 96/96/96 94/94/94
#6 polygons


#
# object obj_18358781
#

v 966.30887838186606588 784.74954787703620688 432.74819834709114736
v 398.28321420284953548 784.74952382105163904 -2100.56025881544792352
v 805.1809816561126354 -80.88633646432617744 468.87676410362132624
v 237.15531747709616184 -80.88636052031074544 -2064.4316930589175172
v 274.81901834388730784 808.88633646432617744 -2072.87676410362109888
v 842.84468252290389504 808.88636052031074544 460.43169305891774456
v 113.69112161813393416 -56.74954787703620688 -2036.74819834709114736
v 681.71678579715046456 -56.74952382105163904 496.56025881544792352
v 274.81901834388730784 808.88633646432617744 -2072.87676410362109888
v 398.28321420284953548 784.74952382105163904 -2100.56025881544792352
v 842.84468252290389504 808.88636052031074544 460.43169305891774456
v 966.30887838186606588 784.74954787703620688 432.74819834709114736
v 681.71678579715046456 -56.74952382105163904 496.56025881544792352
v 805.1809816561126354 -80.88633646432617744 468.87676410362132624
v 113.69112161813393416 -56.74954787703620688 -2036.74819834709114736
v 237.15531747709616184 -80.88636052031074544 -2064.4316930589175172
v 842.84468252290389504 808.88636052031074544 460.43169305891774456
v 966.30887838186606588 784.74954787703620688 432.74819834709114736
v 681.71678579715046456 -56.74952382105163904 496.56025881544792352
v 805.1809816561126354 -80.88633646432617744 468.87676410362132624
v 398.28321420284953548 784.74952382105163904 -2100.56025881544792352
v 274.81901834388730784 808.88633646432617744 -2072.87676410362109888
v 237.15531747709616184 -80.88636052031074544 -2064.4316930589175172
v 113.69112161813393416 -56.74954787703620688 -2036.74819834709114736
# 24 vertices

vn 0.95848833091000624 -0.18738107111123544 -0.21491499179572528
vn 0.95848833091000624 -0.18738107111123544 -0.21491499179572528
vn 0.95848833091000624 -0.18738107111123544 -0.21491499179572528
vn 0.95848833091000624 -0.18738107111123544 -0.21491499179572528
vn -0.95848833091000624 0.18738107111123544 0.21491499179572528
vn -0.95848833091000624 0.18738107111123544 0.21491499179572528
vn -0.95848833091000624 0.18738107111123544 0.21491499179572528
vn -0.95848833091000624 0.18738107111123544 0.21491499179572528
vn 0.18284117956366172 0.98228729717390016 -0.04099718120264814
vn 0.18284117956366172 0.98228729717390016 -0.04099718120264814
vn 0.18284117956366172 0.98228729717390016 -0.04099718120264814
vn 0.18284117956366172 0.98228729717390016 -0.04099718120264814
vn -0.18284117956366172 -0.98228729717390016 0.04099718120264814
vn -0.18284117956366172 -0.98228729717390016 0.04099718120264814
vn -0.18284117956366172 -0.98228729717390016 0.04099718120264814
vn -0.18284117956366172 -0.98228729717390016 0.04099718120264814
vn 0.21879036213946752 9.17709621836571E-09 0.97577188801219344
vn 0.21879036213946752 9.17709621836571E-09 0.97577188801219344
vn 0.21879036213946752 9.17709621836571E-09 0.97577188801219344
vn 0.21879036213946752 9.17709621836571E-09 0.97577188801219344
vn -0.21879036213946752 -9.17709621836571E-09 -0.97577188801219344
vn -0.21879036213946752 -9.17709621836571E-09 -0.97577188801219344
vn -0.21879036213946752 -9.17709621836571E-09 -0.97577188801219344
vn -0.21879036213946752 -9.17709621836571E-09 -0.97577188801219344
# 24 vertex normals

vt 0 1 0
vt 1 1 0
vt 0 0 0
vt 1 0 0
vt 0 1 0
vt 1 1 0
vt 0 0 0
vt 1 0 0
vt 0 1 0
vt 1 1 0
vt 0 0 0
vt 1 0 0
vt 0 1 0
vt 1 1 0
vt 0 0 0
vt 1 0 0
vt 0 1 0
vt 1 1 0
vt 0 0 0
vt 1 0 0
vt 0 1 0
vt 1 1 0
vt 0 0 0
vt 1 0 0
# 24 texture coords

g obj_18358781
s 16
f 97/97/97 99/99/99 100/100/100 98/98/98
f 101/101/101 103/103/103 104/104/104 102/102/102
f 105/105/105 107/107/107 108/108/108 106/106/106
f 109/109/109 111/111/111 112/112/112 110/110/110
f 113/113/113 115/115/115 116/116/116 114/114/114
f 117/117/117 119/119/119 120/120/120 118/118/118
#6 polygons


#
# object obj_4340030
#

v 1578.85713384829364256 878.05682373046875 3269.56314986519510056
v 1010.83340218094281232 878.05682373046875 736.2542595382892614
v 1578.85713384829364256 -3.18829345703125 3269.56314986519510056
v 1010.83340218094281232 -3.18829345703125 736.2542595382892614
v 885.14286615170635742 878.05682373046875 764.43685013480489944
v 1453.16659781905718774 878.05682373046875 3297.74574046171073856
v 885.14286615170635742 -3.18829345703125 764.43685013480489944
v 1453.16659781905718774 -3.18829345703125 3297.74574046171073856
v 885.14286615170635742 878.05682373046875 764.43685013480489944
v 1010.83340218094281232 878.05682373046875 736.2542595382892614
v 1453.16659781905718774 878.05682373046875 3297.74574046171073856
v 1578.85713384829364256 878.05682373046875 3269.56314986519510056
v 1453.16659781905718774 -3.18829345703125 3297.74574046171073856
v 1578.85713384829364256 -3.18829345703125 3269.56314986519510056
v 885.14286615170635742 -3.18829345703125 764.43685013480489944
v 1010.83340218094281232 -3.18829345703125 736.2542595382892614
v 1453.16659781905718774 878.05682373046875 3297.74574046171073856
v 1578.85713384829364256 878.05682373046875 3269.56314986519510056
v 1453.16659781905718774 -3.18829345703125 3297.74574046171073856
v 1578.85713384829364256 -3.18829345703125 3269.56314986519510056
v 1010.83340218094281232 878.05682373046875 736.2542595382892614
v 885.14286615170635742 878.05682373046875 764.43685013480489944
v 1010.83340218094281232 -3.18829345703125 736.2542595382892614
v 885.14286615170635742 -3.18829345703125 764.43685013480489944
# 24 vertices

vn 0.97577205490959712 0 -0.21878961780098792
vn 0.97577205490959712 0 -0.21878961780098792
vn 0.97577205490959712 0 -0.21878961780098792
vn 0.97577205490959712 0 -0.21878961780098792
vn -0.97577205490959712 0 0.21878961780098792
vn -0.97577205490959712 0 0.21878961780098792
vn -0.97577205490959712 0 0.21878961780098792
vn -0.97577205490959712 0 0.21878961780098792
vn 0 1 0
vn 0 1 0
vn 0 1 0
vn 0 1 0
vn 0 -1 0
vn 0 -1 0
vn 0 -1 0
vn 0 -1 0
vn 0.21878961780098792 0 0.97577205490959712
vn 0.21878961780098792 0 0.97577205490959712
vn 0.21878961780098792 0 0.97577205490959712
vn 0.21878961780098792 0 0.97577205490959712
vn -0.21878961780098792 0 -0.97577205490959712
vn -0.21878961780098792 0 -0.97577205490959712
vn -0.21878961780098792 0 -0.97577205490959712
vn -0.21878961780098792 0 -0.97577205490959712
# 24 vertex normals

vt 0 1 0
vt 1 1 0
vt 0 0 0
vt 1 0 0
vt 0 1 0
vt 1 1 0
vt 0 0 0
vt 1 0 0
vt 0 1 0
vt 1 1 0
vt 0 0 0
vt 1 0 0
vt 0 1 0
vt 1 1 0
vt 0 0 0
vt 1 0 0
vt 0 1 0
vt 1 1 0
vt 0 0 0
vt 1 0 0
vt 0 1 0
vt 1 1 0
vt 0 0 0
vt 1 0 0
# 24 texture coords

g obj_4340030
s 32
f 121/121/121 123/123/123 124/124/124 122/122/122
f 125/125/125 127/127/127 128/128/128 126/126/126
f 129/129/129 131/131/131 132/132/132 130/130/130
f 133/133/133 135/135/135 136/136/136 134/134/134
f 137/137/137 139/139/139 140/140/140 138/138/138
f 141/141/141 143/143/143 144/144/144 142/142/142
#6 polygons


#
# object obj_65746878
#

v -772.56978034132919216 729.96663028072248384 -93.6949991537539972
v -1114.0437923712167958 729.96657257516994832 -2475.15916515367007378
v -804.53460256556729744 -150.68664946969283848 -89.11159745071358884
v -1146.00861459545490106 -150.68670717524537392 -2470.57576345062989272
v -1241.46539743443281624 734.68664946969283848 -2456.88840254928618384
v -899.99138540454498528 734.68670717524537392 -75.42423654937033464
v -1273.43021965867092152 -145.96663028072248384 -2452.30500084624600276
v -931.95620762878309056 -145.96657257516994832 -70.84083484632992624
v -1241.46539743443281624 734.68664946969283848 -2456.88840254928618384
v -1114.0437923712167958 729.96657257516994832 -2475.15916515367007378
v -899.99138540454498528 734.68670717524537392 -75.42423654937033464
v -772.56978034132919216 729.96663028072248384 -93.6949991537539972
v -931.95620762878309056 -145.96657257516994832 -70.84083484632992624
v -804.53460256556729744 -150.68664946969283848 -89.11159745071358884
v -1273.43021965867092152 -145.96663028072248384 -2452.30500084624600276
v -1146.00861459545490106 -150.68670717524537392 -2470.57576345062989272
v -899.99138540454498528 734.68670717524537392 -75.42423654937033464
v -772.56978034132919216 729.96663028072248384 -93.6949991537539972
v -931.95620762878309056 -145.96657257516994832 -70.84083484632992624
v -804.53460256556729744 -150.68664946969283848 -89.11159745071358884
v -1114.0437923712167958 729.96657257516994832 -2475.15916515367007378
v -1241.46539743443281624 734.68664946969283848 -2456.88840254928618384
v -1146.00861459545490106 -150.68670717524537392 -2470.57576345062989272
v -1273.43021965867092152 -145.96663028072248384 -2452.30500084624600276
# 24 vertices

vn 0.98921096264863312 -0.036643329098626 -0.14184124156370862
vn 0.98921096264863312 -0.036643329098626 -0.14184124156370862
vn 0.98921096264863312 -0.036643329098626 -0.14184124156370862
vn 0.98921096264863312 -0.036643329098626 -0.14184124156370862
vn -0.98921096264863312 0.036643329098626 0.14184124156370862
vn -0.98921096264863312 0.036643329098626 0.14184124156370862
vn -0.98921096264863312 0.036643329098626 0.14184124156370862
vn -0.98921096264863312 0.036643329098626 0.14184124156370862
vn 0.03627233967147364 0.99932840769817472 -0.00520105202704471
vn 0.03627233967147364 0.99932840769817472 -0.00520105202704471
vn 0.03627233967147364 0.99932840769817472 -0.00520105202704471
vn 0.03627233967147364 0.99932840769817472 -0.00520105202704471
vn -0.03627233967147364 -0.99932840769817472 0.00520105202704471
vn -0.03627233967147364 -0.99932840769817472 0.00520105202704471
vn -0.03627233967147364 -0.99932840769817472 0.00520105202704471
vn -0.03627233967147364 -0.99932840769817472 0.00520105202704471
vn 0.14193656593887918 2.398903614685491E-08 0.989875755460996
vn 0.14193656593887918 2.398903614685491E-08 0.989875755460996
vn 0.14193656593887918 2.398903614685491E-08 0.989875755460996
vn 0.14193656593887918 2.398903614685491E-08 0.989875755460996
vn -0.14193656593887918 -2.398903614685491E-08 -0.989875755460996
vn -0.14193656593887918 -2.398903614685491E-08 -0.989875755460996
vn -0.14193656593887918 -2.398903614685491E-08 -0.989875755460996
vn -0.14193656593887918 -2.398903614685491E-08 -0.989875755460996
# 24 vertex normals

vt 0 1 0
vt 1 1 0
vt 0 0 0
vt 1 0 0
vt 0 1 0
vt 1 1 0
vt 0 0 0
vt 1 0 0
vt 0 1 0
vt 1 1 0
vt 0 0 0
vt 1 0 0
vt 0 1 0
vt 1 1 0
vt 0 0 0
vt 1 0 0
vt 0 1 0
vt 1 1 0
vt 0 0 0
vt 1 0 0
vt 0 1 0
vt 1 1 0
vt 0 0 0
vt 1 0 0
# 24 texture coords

g obj_65746878
s 64
f 145/145/145 147/147/147 148/148/148 146/146/146
f 149/149/149 151/151/151 152/152/152 150/150/150
f 153/153/153 155/155/155 156/156/156 154/154/154
f 157/157/157 159/159/159 160/160/160 158/158/158
f 161/161/161 163/163/163 164/164/164 162/162/162
f 165/165/165 167/167/167 168/168/168 166/166/166
#6 polygons

