# Aspose.3D Wavefront OBJ Exporter
# Copyright 2004-2021 Aspose Pty Ltd.
# File created: 09/08/2021 12:16:57 a. m.


#
# object obj_29349539
#

v 0.5 0.5 0.5
v 0.5 0.5 -0.5
v 0.5 -0.5 0.5
v 0.5 -0.5 -0.5
v -0.5 0.5 -0.5
v -0.5 0.5 0.5
v -0.5 -0.5 -0.5
v -0.5 -0.5 0.5
v -0.5 0.5 -0.5
v 0.5 0.5 -0.5
v -0.5 0.5 0.5
v 0.5 0.5 0.5
v -0.5 -0.5 0.5
v 0.5 -0.5 0.5
v -0.5 -0.5 -0.5
v 0.5 -0.5 -0.5
v -0.5 0.5 0.5
v 0.5 0.5 0.5
v -0.5 -0.5 0.5
v 0.5 -0.5 0.5
v 0.5 0.5 -0.5
v -0.5 0.5 -0.5
v 0.5 -0.5 -0.5
v -0.5 -0.5 -0.5
# 24 vertices

vn 1 0 0
vn 1 0 0
vn 1 0 0
vn 1 0 0
vn -1 0 0
vn -1 0 0
vn -1 0 0
vn -1 0 0
vn 0 1 0
vn 0 1 0
vn 0 1 0
vn 0 1 0
vn 0 -1 0
vn 0 -1 0
vn 0 -1 0
vn 0 -1 0
vn 0 0 1
vn 0 0 1
vn 0 0 1
vn 0 0 1
vn 0 0 -1
vn 0 0 -1
vn 0 0 -1
vn 0 0 -1
# 24 vertex normals

vt 0 1 0
vt 1 1 0
vt 0 0 0
vt 1 0 0
vt 0 1 0
vt 1 1 0
vt 0 0 0
vt 1 0 0
vt 0 1 0
vt 1 1 0
vt 0 0 0
vt 1 0 0
vt 0 1 0
vt 1 1 0
vt 0 0 0
vt 1 0 0
vt 0 1 0
vt 1 1 0
vt 0 0 0
vt 1 0 0
vt 0 1 0
vt 1 1 0
vt 0 0 0
vt 1 0 0
# 24 texture coords

g obj_29349539
s 1
f 1/1/1 3/3/3 4/4/4 2/2/2
f 5/5/5 7/7/7 8/8/8 6/6/6
f 9/9/9 11/11/11 12/12/12 10/10/10
f 13/13/13 15/15/15 16/16/16 14/14/14
f 17/17/17 19/19/19 20/20/20 18/18/18
f 21/21/21 23/23/23 24/24/24 22/22/22
#6 polygons


#
# object obj_11682869
#

v 2000 105.67999267578125 1500
v 2000 105.67999267578125 -1500
v 2000 -625.67999267578125 1500
v 2000 -625.67999267578125 -1500
v -2000 105.67999267578125 -1500
v -2000 105.67999267578125 1500
v -2000 -625.67999267578125 -1500
v -2000 -625.67999267578125 1500
v -2000 105.67999267578125 -1500
v 2000 105.67999267578125 -1500
v -2000 105.67999267578125 1500
v 2000 105.67999267578125 1500
v -2000 -625.67999267578125 1500
v 2000 -625.67999267578125 1500
v -2000 -625.67999267578125 -1500
v 2000 -625.67999267578125 -1500
v -2000 105.67999267578125 1500
v 2000 105.67999267578125 1500
v -2000 -625.67999267578125 1500
v 2000 -625.67999267578125 1500
v 2000 105.67999267578125 -1500
v -2000 105.67999267578125 -1500
v 2000 -625.67999267578125 -1500
v -2000 -625.67999267578125 -1500
# 24 vertices

vn 1 0 0
vn 1 0 0
vn 1 0 0
vn 1 0 0
vn -1 0 0
vn -1 0 0
vn -1 0 0
vn -1 0 0
vn 0 1 0
vn 0 1 0
vn 0 1 0
vn 0 1 0
vn 0 -1 0
vn 0 -1 0
vn 0 -1 0
vn 0 -1 0
vn 0 0 1
vn 0 0 1
vn 0 0 1
vn 0 0 1
vn 0 0 -1
vn 0 0 -1
vn 0 0 -1
vn 0 0 -1
# 24 vertex normals

vt 0 1 0
vt 1 1 0
vt 0 0 0
vt 1 0 0
vt 0 1 0
vt 1 1 0
vt 0 0 0
vt 1 0 0
vt 0 1 0
vt 1 1 0
vt 0 0 0
vt 1 0 0
vt 0 1 0
vt 1 1 0
vt 0 0 0
vt 1 0 0
vt 0 1 0
vt 1 1 0
vt 0 0 0
vt 1 0 0
vt 0 1 0
vt 1 1 0
vt 0 0 0
vt 1 0 0
# 24 texture coords

g obj_11682869
s 2
f 25/25/25 27/27/27 28/28/28 26/26/26
f 29/29/29 31/31/31 32/32/32 30/30/30
f 33/33/33 35/35/35 36/36/36 34/34/34
f 37/37/37 39/39/39 40/40/40 38/38/38
f 41/41/41 43/43/43 44/44/44 42/42/42
f 45/45/45 47/47/47 48/48/48 46/46/46
#6 polygons


#
# object obj_53519819
#

v 815.29329907118869868 670.5217908750246352 234.74995639914334336
v 815.29335601760806184 30.25208795577464116 -486.74790249545696944
v 815.29331390426261804 503.748006729935696 382.74790249546714448
v 815.2933708506819812 -136.52169618931429792 -338.74995639913316832
v -249.29331390426261804 30.25199327006430396 -486.74790249546714448
v -249.2933708506819812 670.52169618931429792 234.74995639913316832
v -249.29329907118869868 -136.5217908750246352 -338.74995639914334336
v -249.29335601760806184 503.74791204422535888 382.74790249545696944
v -249.29331390426261804 30.25199327006430396 -486.74790249546714448
v 815.29335601760806184 30.25208795577464116 -486.74790249545696944
v -249.2933708506819812 670.52169618931429792 234.74995639913316832
v 815.29329907118869868 670.5217908750246352 234.74995639914334336
v -249.29335601760806184 503.74791204422535888 382.74790249545696944
v 815.29331390426261804 503.748006729935696 382.74790249546714448
v -249.29329907118869868 -136.5217908750246352 -338.74995639914334336
v 815.2933708506819812 -136.52169618931429792 -338.74995639913316832
v -249.2933708506819812 670.52169618931429792 234.74995639913316832
v 815.29329907118869868 670.5217908750246352 234.74995639914334336
v -249.29335601760806184 503.74791204422535888 382.74790249545696944
v 815.29331390426261804 503.748006729935696 382.74790249546714448
v 815.29335601760806184 30.25208795577464116 -486.74790249545696944
v -249.29331390426261804 30.25199327006430396 -486.74790249546714448
v 815.2933708506819812 -136.52169618931429792 -338.74995639913316832
v -249.29329907118869868 -136.5217908750246352 -338.74995639914334336
# 24 vertices

vn 0.999999999999996 8.894128871243526E-08 9.580150576725965E-15
vn 0.999999999999996 8.894128871243526E-08 9.580150576725965E-15
vn 0.999999999999996 8.894128871243526E-08 9.580150576725965E-15
vn 0.999999999999996 8.894128871243526E-08 9.580150576725965E-15
vn -0.999999999999996 -8.894128871243526E-08 -9.580150576725965E-15
vn -0.999999999999996 -8.894128871243526E-08 -9.580150576725965E-15
vn -0.999999999999996 -8.894128871243526E-08 -9.580150576725965E-15
vn -0.999999999999996 -8.894128871243526E-08 -9.580150576725965E-15
vn -6.652412870057917E-08 0.74795560107609488 -0.66374876182098688
vn -6.652412870057917E-08 0.74795560107609488 -0.66374876182098688
vn -6.652412870057917E-08 0.74795560107609488 -0.66374876182098688
vn -6.652412870057917E-08 0.74795560107609488 -0.66374876182098688
vn 6.652412870057917E-08 -0.74795560107609488 0.66374876182098688
vn 6.652412870057917E-08 -0.74795560107609488 0.66374876182098688
vn 6.652412870057917E-08 -0.74795560107609488 0.66374876182098688
vn 6.652412870057917E-08 -0.74795560107609488 0.66374876182098688
vn -5.9034677423169116E-08 0.66374876182098416 0.74795560107609776
vn -5.9034677423169116E-08 0.66374876182098416 0.74795560107609776
vn -5.9034677423169116E-08 0.66374876182098416 0.74795560107609776
vn -5.9034677423169116E-08 0.66374876182098416 0.74795560107609776
vn 5.9034677423169116E-08 -0.66374876182098416 -0.74795560107609776
vn 5.9034677423169116E-08 -0.66374876182098416 -0.74795560107609776
vn 5.9034677423169116E-08 -0.66374876182098416 -0.74795560107609776
vn 5.9034677423169116E-08 -0.66374876182098416 -0.74795560107609776
# 24 vertex normals

vt 0 1 0
vt 1 1 0
vt 0 0 0
vt 1 0 0
vt 0 1 0
vt 1 1 0
vt 0 0 0
vt 1 0 0
vt 0 1 0
vt 1 1 0
vt 0 0 0
vt 1 0 0
vt 0 1 0
vt 1 1 0
vt 0 0 0
vt 1 0 0
vt 0 1 0
vt 1 1 0
vt 0 0 0
vt 1 0 0
vt 0 1 0
vt 1 1 0
vt 0 0 0
vt 1 0 0
# 24 texture coords

g obj_53519819
s 4
f 49/49/49 51/51/51 52/52/52 50/50/50
f 53/53/53 55/55/55 56/56/56 54/54/54
f 57/57/57 59/59/59 60/60/60 58/58/58
f 61/61/61 63/63/63 64/64/64 62/62/62
f 65/65/65 67/67/67 68/68/68 66/66/66
f 69/69/69 71/71/71 72/72/72 70/70/70
#6 polygons


#
# object obj_52890768
#

v 856.87359619140624992 675.91552734375 1245.36419677734375
v 856.87359619140624992 675.91552734375 238.63580322265625
v 856.87359619140624992 -657.91552734375 1245.36419677734375
v 856.87359619140624992 -657.91552734375 238.63580322265625
v -364.87359619140624992 675.91552734375 238.63580322265625
v -364.87359619140624992 675.91552734375 1245.36419677734375
v -364.87359619140624992 -657.91552734375 238.63580322265625
v -364.87359619140624992 -657.91552734375 1245.36419677734375
v -364.87359619140624992 675.91552734375 238.63580322265625
v 856.87359619140624992 675.91552734375 238.63580322265625
v -364.87359619140624992 675.91552734375 1245.36419677734375
v 856.87359619140624992 675.91552734375 1245.36419677734375
v -364.87359619140624992 -657.91552734375 1245.36419677734375
v 856.87359619140624992 -657.91552734375 1245.36419677734375
v -364.87359619140624992 -657.91552734375 238.63580322265625
v 856.87359619140624992 -657.91552734375 238.63580322265625
v -364.87359619140624992 675.91552734375 1245.36419677734375
v 856.87359619140624992 675.91552734375 1245.36419677734375
v -364.87359619140624992 -657.91552734375 1245.36419677734375
v 856.87359619140624992 -657.91552734375 1245.36419677734375
v 856.87359619140624992 675.91552734375 238.63580322265625
v -364.87359619140624992 675.91552734375 238.63580322265625
v 856.87359619140624992 -657.91552734375 238.63580322265625
v -364.87359619140624992 -657.91552734375 238.63580322265625
# 24 vertices

vn 1 0 0
vn 1 0 0
vn 1 0 0
vn 1 0 0
vn -1 0 0
vn -1 0 0
vn -1 0 0
vn -1 0 0
vn 0 1 0
vn 0 1 0
vn 0 1 0
vn 0 1 0
vn 0 -1 0
vn 0 -1 0
vn 0 -1 0
vn 0 -1 0
vn 0 0 1
vn 0 0 1
vn 0 0 1
vn 0 0 1
vn 0 0 -1
vn 0 0 -1
vn 0 0 -1
vn 0 0 -1
# 24 vertex normals

vt 0 1 0
vt 1 1 0
vt 0 0 0
vt 1 0 0
vt 0 1 0
vt 1 1 0
vt 0 0 0
vt 1 0 0
vt 0 1 0
vt 1 1 0
vt 0 0 0
vt 1 0 0
vt 0 1 0
vt 1 1 0
vt 0 0 0
vt 1 0 0
vt 0 1 0
vt 1 1 0
vt 0 0 0
vt 1 0 0
vt 0 1 0
vt 1 1 0
vt 0 0 0
vt 1 0 0
# 24 texture coords

g obj_52890768
s 8
f 73/73/73 75/75/75 76/76/76 74/74/74
f 77/77/77 79/79/79 80/80/80 78/78/78
f 81/81/81 83/83/83 84/84/84 82/82/82
f 85/85/85 87/87/87 88/88/88 86/86/86
f 89/89/89 91/91/91 92/92/92 90/90/90
f 93/93/93 95/95/95 96/96/96 94/94/94
#6 polygons


#
# object obj_66530271
#

v 56.80046072258343776 947.98859167302987312 1221.93169249105903872
v 56.80036129005131328 947.96691869373012192 804.05168817028322792
v 51.18440418492961896 626.28760919000865216 1221.94837856620188176
v 51.18430475239749456 626.26593621070878724 804.06837424542607096
v -43.18440418492961896 949.71239080999134784 804.05162143379823192
v -43.18430475239749456 949.7340637892912128 1221.93162575457381536
v -48.80046072258343776 628.01140832697012683 804.06830750894107496
v -48.80036129005131328 628.03308130626987804 1221.9483118297166584
v -43.18440418492961896 949.71239080999134784 804.05162143379823192
v 56.80036129005131328 947.96691869373012192 804.05168817028322792
v -43.18430475239749456 949.7340637892912128 1221.93162575457381536
v 56.80046072258343776 947.98859167302987312 1221.93169249105903872
v -48.80036129005131328 628.03308130626987804 1221.9483118297166584
v 51.18440418492961896 626.28760919000865216 1221.94837856620188176
v -48.80046072258343776 628.01140832697012683 804.06830750894107496
v 51.18430475239749456 626.26593621070878724 804.06837424542607096
v -43.18430475239749456 949.7340637892912128 1221.93162575457381536
v 56.80046072258343776 947.98859167302987312 1221.93169249105903872
v -48.80036129005131328 628.03308130626987804 1221.9483118297166584
v 51.18440418492961896 626.28760919000865216 1221.94837856620188176
v 56.80036129005131328 947.96691869373012192 804.05168817028322792
v -43.18440418492961896 949.71239080999134784 804.05162143379823192
v 51.18430475239749456 626.26593621070878724 804.06837424542607096
v -48.80046072258343776 628.01140832697012683 804.06830750894107496
# 24 vertices

vn 0.99984765474980736 -0.01745472116261302 6.673648499476018E-07
vn 0.99984765474980736 -0.01745472116261302 6.673648499476018E-07
vn 0.99984765474980736 -0.01745472116261302 6.673648499476018E-07
vn 0.99984765474980736 -0.01745472116261302 6.673648499476018E-07
vn -0.99984765474980736 0.01745472116261302 -6.673648499476018E-07
vn -0.99984765474980736 0.01745472116261302 -6.673648499476018E-07
vn -0.99984765474980736 0.01745472116261302 -6.673648499476018E-07
vn -0.99984765474980736 0.01745472116261302 -6.673648499476018E-07
vn 0.0174547211737492 0.99984765340488176 -5.186037340427982E-05
vn 0.0174547211737492 0.99984765340488176 -5.186037340427982E-05
vn 0.0174547211737492 0.99984765340488176 -5.186037340427982E-05
vn 0.0174547211737492 0.99984765340488176 -5.186037340427982E-05
vn -0.0174547211737492 -0.99984765340488176 5.186037340427982E-05
vn -0.0174547211737492 -0.99984765340488176 5.186037340427982E-05
vn -0.0174547211737492 -0.99984765340488176 5.186037340427982E-05
vn -0.0174547211737492 -0.99984765340488176 5.186037340427982E-05
vn 2.3794517797568543E-07 5.186412139009546E-05 0.99999999865502816
vn 2.3794517797568543E-07 5.186412139009546E-05 0.99999999865502816
vn 2.3794517797568543E-07 5.186412139009546E-05 0.99999999865502816
vn 2.3794517797568543E-07 5.186412139009546E-05 0.99999999865502816
vn -2.3794517797568543E-07 -5.186412139009546E-05 -0.99999999865502816
vn -2.3794517797568543E-07 -5.186412139009546E-05 -0.99999999865502816
vn -2.3794517797568543E-07 -5.186412139009546E-05 -0.99999999865502816
vn -2.3794517797568543E-07 -5.186412139009546E-05 -0.99999999865502816
# 24 vertex normals

vt 0 1 0
vt 1 1 0
vt 0 0 0
vt 1 0 0
vt 0 1 0
vt 1 1 0
vt 0 0 0
vt 1 0 0
vt 0 1 0
vt 1 1 0
vt 0 0 0
vt 1 0 0
vt 0 1 0
vt 1 1 0
vt 0 0 0
vt 1 0 0
vt 0 1 0
vt 1 1 0
vt 0 0 0
vt 1 0 0
vt 0 1 0
vt 1 1 0
vt 0 0 0
vt 1 0 0
# 24 texture coords

g obj_66530271
s 16
f 97/97/97 99/99/99 100/100/100 98/98/98
f 101/101/101 103/103/103 104/104/104 102/102/102
f 105/105/105 107/107/107 108/108/108 106/106/106
f 109/109/109 111/111/111 112/112/112 110/110/110
f 113/113/113 115/115/115 116/116/116 114/114/114
f 117/117/117 119/119/119 120/120/120 118/118/118
#6 polygons


#
# object obj_17928540
#

v 429.77654241379036656 941.21709934957380028 728.21602758493861528
v 12.02875931133903009 948.51030856022134688 735.78369402764258208
v 424.16045968633073926 619.5161173275670308 728.23271338564541112
v 6.41267658387937448 626.80932653821457728 735.80037982834937792
v 13.8395403136692608 948.4838826724329692 835.76728661435458896
v 431.58732341612062552 941.19067346178542264 828.19962017165062208
v 8.22345758620960508 626.78290065042619968 835.78397241506138464
v 425.97124068866094144 619.48969143977865312 828.21630597235741788
v 13.8395403136692608 948.4838826724329692 835.76728661435458896
v 12.02875931133903009 948.51030856022134688 735.78369402764258208
v 431.58732341612062552 941.19067346178542264 828.19962017165062208
v 429.77654241379036656 941.21709934957380028 728.21602758493861528
v 425.97124068866094144 619.48969143977865312 828.21630597235741788
v 424.16045968633073926 619.5161173275670308 728.23271338564541112
v 8.22345758620960508 626.78290065042619968 835.78397241506138464
v 6.41267658387937448 626.80932653821457728 735.80037982834937792
v 431.58732341612062552 941.19067346178542264 828.19962017165062208
v 429.77654241379036656 941.21709934957380028 728.21602758493861528
v 425.97124068866094144 619.48969143977865312 828.21630597235741788
v 424.16045968633073926 619.5161173275670308 728.23271338564541112
v 12.02875931133903009 948.51030856022134688 735.78369402764258208
v 13.8395403136692608 948.4838826724329692 835.76728661435458896
v 6.41267658387937448 626.80932653821457728 735.80037982834937792
v 8.22345758620960508 626.78290065042619968 835.78397241506138464
# 24 vertices

vn -0.01810781146041806 0.00026425889885631736 -0.99983600521852992
vn -0.01810781146041806 0.00026425889885631736 -0.99983600521852992
vn -0.01810781146041806 0.00026425889885631736 -0.99983600521852992
vn -0.01810781146041806 0.00026425889885631736 -0.99983600521852992
vn 0.01810781146041806 -0.00026425889885631736 0.99983600521852992
vn 0.01810781146041806 -0.00026425889885631736 0.99983600521852992
vn 0.01810781146041806 -0.00026425889885631736 0.99983600521852992
vn 0.01810781146041806 -0.00026425889885631736 0.99983600521852992
vn 0.01745480259696593 0.99984765198355808 -5.185813943166771E-05
vn 0.01745480259696593 0.99984765198355808 -5.185813943166771E-05
vn 0.01745480259696593 0.99984765198355808 -5.185813943166771E-05
vn 0.01745480259696593 0.99984765198355808 -5.185813943166771E-05
vn -0.01745480259696593 -0.99984765198355808 5.185813943166771E-05
vn -0.01745480259696593 -0.99984765198355808 5.185813943166771E-05
vn -0.01745480259696593 -0.99984765198355808 5.185813943166771E-05
vn -0.01745480259696593 -0.99984765198355808 5.185813943166771E-05
vn 0.9996836684823928 -0.01745287913783996 -0.01810966535817404
vn 0.9996836684823928 -0.01745287913783996 -0.01810966535817404
vn 0.9996836684823928 -0.01745287913783996 -0.01810966535817404
vn 0.9996836684823928 -0.01745287913783996 -0.01810966535817404
vn -0.9996836684823928 0.01745287913783996 0.01810966535817404
vn -0.9996836684823928 0.01745287913783996 0.01810966535817404
vn -0.9996836684823928 0.01745287913783996 0.01810966535817404
vn -0.9996836684823928 0.01745287913783996 0.01810966535817404
# 24 vertex normals

vt 0 1 0
vt 1 1 0
vt 0 0 0
vt 1 0 0
vt 0 1 0
vt 1 1 0
vt 0 0 0
vt 1 0 0
vt 0 1 0
vt 1 1 0
vt 0 0 0
vt 1 0 0
vt 0 1 0
vt 1 1 0
vt 0 0 0
vt 1 0 0
vt 0 1 0
vt 1 1 0
vt 0 0 0
vt 1 0 0
vt 0 1 0
vt 1 1 0
vt 0 0 0
vt 1 0 0
# 24 texture coords

g obj_17928540
s 32
f 121/121/121 123/123/123 124/124/124 122/122/122
f 125/125/125 127/127/127 128/128/128 126/126/126
f 129/129/129 131/131/131 132/132/132 130/130/130
f 133/133/133 135/135/135 136/136/136 134/134/134
f 137/137/137 139/139/139 140/140/140 138/138/138
f 141/141/141 143/143/143 144/144/144 142/142/142
#6 polygons

