# Aspose.3D Wavefront OBJ Exporter
# Copyright 2004-2021 Aspose Pty Ltd.
# File created: 08/08/2021 02:46:35 p. m.


#
# object obj_21847674
#

v -0.5 -0.5 0.5
v -0.5 -0.5 -0.5
v -0.5 0.5 0.5
v -0.5 0.5 -0.5
v 0.5 -0.5 -0.5
v 0.5 -0.5 0.5
v 0.5 0.5 -0.5
v 0.5 0.5 0.5
v 0.5 -0.5 -0.5
v -0.5 -0.5 -0.5
v 0.5 -0.5 0.5
v -0.5 -0.5 0.5
v 0.5 0.5 0.5
v -0.5 0.5 0.5
v 0.5 0.5 -0.5
v -0.5 0.5 -0.5
v 0.5 -0.5 0.5
v -0.5 -0.5 0.5
v 0.5 0.5 0.5
v -0.5 0.5 0.5
v -0.5 -0.5 -0.5
v 0.5 -0.5 -0.5
v -0.5 0.5 -0.5
v 0.5 0.5 -0.5
# 24 vertices

vn -1 0 0
vn -1 0 0
vn -1 0 0
vn -1 0 0
vn 1 0 0
vn 1 0 0
vn 1 0 0
vn 1 0 0
vn 0 -1 0
vn 0 -1 0
vn 0 -1 0
vn 0 -1 0
vn 0 1 0
vn 0 1 0
vn 0 1 0
vn 0 1 0
vn 0 0 1
vn 0 0 1
vn 0 0 1
vn 0 0 1
vn 0 0 -1
vn 0 0 -1
vn 0 0 -1
vn 0 0 -1
# 24 vertex normals

vt 0 1 0
vt 1 1 0
vt 0 0 0
vt 1 0 0
vt 0 1 0
vt 1 1 0
vt 0 0 0
vt 1 0 0
vt 0 1 0
vt 1 1 0
vt 0 0 0
vt 1 0 0
vt 0 1 0
vt 1 1 0
vt 0 0 0
vt 1 0 0
vt 0 1 0
vt 1 1 0
vt 0 0 0
vt 1 0 0
vt 0 1 0
vt 1 1 0
vt 0 0 0
vt 1 0 0
# 24 texture coords

g obj_21847674
s 1
f 1/1/1 3/3/3 4/4/4 2/2/2
f 5/5/5 7/7/7 8/8/8 6/6/6
f 9/9/9 11/11/11 12/12/12 10/10/10
f 13/13/13 15/15/15 16/16/16 14/14/14
f 17/17/17 19/19/19 20/20/20 18/18/18
f 21/21/21 23/23/23 24/24/24 22/22/22
#6 polygons


#
# object obj_27814588
#

v -2000.00001598438007022 -625.67990525300467656 1500
v -2000.00001598438007022 -625.67990525300467656 -1500
v -1999.99998401561992976 105.68008009855782344 1500
v -1999.99998401561992976 105.68008009855782344 -1500
v 1999.99998401561992976 -625.68008009855782344 -1500
v 1999.99998401561992976 -625.68008009855782344 1500
v 2000.00001598438007022 105.67990525300467656 -1500
v 2000.00001598438007022 105.67990525300467656 1500
v 1999.99998401561992976 -625.68008009855782344 -1500
v -2000.00001598438007022 -625.67990525300467656 -1500
v 1999.99998401561992976 -625.68008009855782344 1500
v -2000.00001598438007022 -625.67990525300467656 1500
v 2000.00001598438007022 105.67990525300467656 1500
v -1999.99998401561992976 105.68008009855782344 1500
v 2000.00001598438007022 105.67990525300467656 -1500
v -1999.99998401561992976 105.68008009855782344 -1500
v 1999.99998401561992976 -625.68008009855782344 1500
v -2000.00001598438007022 -625.67990525300467656 1500
v 2000.00001598438007022 105.67990525300467656 1500
v -1999.99998401561992976 105.68008009855782344 1500
v -2000.00001598438007022 -625.67990525300467656 -1500
v 1999.99998401561992976 -625.68008009855782344 -1500
v -1999.99998401561992976 105.68008009855782344 -1500
v 2000.00001598438007022 105.67990525300467656 -1500
# 24 vertices

vn -0.99999999999999904 4.371138828673789E-08 0
vn -0.99999999999999904 4.371138828673789E-08 0
vn -0.99999999999999904 4.371138828673789E-08 0
vn -0.99999999999999904 4.371138828673789E-08 0
vn 0.99999999999999904 -4.371138828673789E-08 0
vn 0.99999999999999904 -4.371138828673789E-08 0
vn 0.99999999999999904 -4.371138828673789E-08 0
vn 0.99999999999999904 -4.371138828673789E-08 0
vn -4.371138828673789E-08 -0.99999999999999904 0
vn -4.371138828673789E-08 -0.99999999999999904 0
vn -4.371138828673789E-08 -0.99999999999999904 0
vn -4.371138828673789E-08 -0.99999999999999904 0
vn 4.371138828673789E-08 0.99999999999999904 0
vn 4.371138828673789E-08 0.99999999999999904 0
vn 4.371138828673789E-08 0.99999999999999904 0
vn 4.371138828673789E-08 0.99999999999999904 0
vn 0 0 1
vn 0 0 1
vn 0 0 1
vn 0 0 1
vn 0 0 -1
vn 0 0 -1
vn 0 0 -1
vn 0 0 -1
# 24 vertex normals

vt 0 1 0
vt 1 1 0
vt 0 0 0
vt 1 0 0
vt 0 1 0
vt 1 1 0
vt 0 0 0
vt 1 0 0
vt 0 1 0
vt 1 1 0
vt 0 0 0
vt 1 0 0
vt 0 1 0
vt 1 1 0
vt 0 0 0
vt 1 0 0
vt 0 1 0
vt 1 1 0
vt 0 0 0
vt 1 0 0
vt 0 1 0
vt 1 1 0
vt 0 0 0
vt 1 0 0
# 24 texture coords

g obj_27814588
s 2
f 25/25/25 27/27/27 28/28/28 26/26/26
f 29/29/29 31/31/31 32/32/32 30/30/30
f 33/33/33 35/35/35 36/36/36 34/34/34
f 37/37/37 39/39/39 40/40/40 38/38/38
f 41/41/41 43/43/43 44/44/44 42/42/42
f 45/45/45 47/47/47 48/48/48 46/46/46
#6 polygons


#
# object obj_48963729
#

v -430 -39.11810302734375 1850.84771728515624992
v -430 -39.11810302734375 171.15228271484375
v -430 1343.11810302734375 1850.84771728515624992
v -430 1343.11810302734375 171.15228271484375
v -330 -39.11810302734375 171.15228271484375
v -330 -39.11810302734375 1850.84771728515624992
v -330 1343.11810302734375 171.15228271484375
v -330 1343.11810302734375 1850.84771728515624992
v -330 -39.11810302734375 171.15228271484375
v -430 -39.11810302734375 171.15228271484375
v -330 -39.11810302734375 1850.84771728515624992
v -430 -39.11810302734375 1850.84771728515624992
v -330 1343.11810302734375 1850.84771728515624992
v -430 1343.11810302734375 1850.84771728515624992
v -330 1343.11810302734375 171.15228271484375
v -430 1343.11810302734375 171.15228271484375
v -330 -39.11810302734375 1850.84771728515624992
v -430 -39.11810302734375 1850.84771728515624992
v -330 1343.11810302734375 1850.84771728515624992
v -430 1343.11810302734375 1850.84771728515624992
v -430 -39.11810302734375 171.15228271484375
v -330 -39.11810302734375 171.15228271484375
v -430 1343.11810302734375 171.15228271484375
v -330 1343.11810302734375 171.15228271484375
# 24 vertices

vn -1 0 0
vn -1 0 0
vn -1 0 0
vn -1 0 0
vn 1 0 0
vn 1 0 0
vn 1 0 0
vn 1 0 0
vn 0 -1 0
vn 0 -1 0
vn 0 -1 0
vn 0 -1 0
vn 0 1 0
vn 0 1 0
vn 0 1 0
vn 0 1 0
vn 0 0 1
vn 0 0 1
vn 0 0 1
vn 0 0 1
vn 0 0 -1
vn 0 0 -1
vn 0 0 -1
vn 0 0 -1
# 24 vertex normals

vt 0 1 0
vt 1 1 0
vt 0 0 0
vt 1 0 0
vt 0 1 0
vt 1 1 0
vt 0 0 0
vt 1 0 0
vt 0 1 0
vt 1 1 0
vt 0 0 0
vt 1 0 0
vt 0 1 0
vt 1 1 0
vt 0 0 0
vt 1 0 0
vt 0 1 0
vt 1 1 0
vt 0 0 0
vt 1 0 0
vt 0 1 0
vt 1 1 0
vt 0 0 0
vt 1 0 0
# 24 texture coords

g obj_48963729
s 4
f 49/49/49 51/51/51 52/52/52 50/50/50
f 53/53/53 55/55/55 56/56/56 54/54/54
f 57/57/57 59/59/59 60/60/60 58/58/58
f 61/61/61 63/63/63 64/64/64 62/62/62
f 65/65/65 67/67/67 68/68/68 66/66/66
f 69/69/69 71/71/71 72/72/72 70/70/70
#6 polygons


#
# object obj_31423369
#

v 44.30136665901576976 10.88173043985511872 527.07892268662612878
v 159.8199223196826608 10.88173043985511872 -1816.00313846471476608
v 44.30136665901576976 1393.11826956014488132 527.07892268662612878
v 159.8199223196826608 1393.11826956014488132 -1816.00313846471476608
v 259.69863334098420184 10.88173043985511872 -1811.07892268662612878
v 144.18007768031733918 10.88173043985511872 532.00313846471476608
v 259.69863334098420184 1393.11826956014488132 -1811.07892268662612878
v 144.18007768031733918 1393.11826956014488132 532.00313846471476608
v 259.69863334098420184 10.88173043985511872 -1811.07892268662612878
v 159.8199223196826608 10.88173043985511872 -1816.00313846471476608
v 144.18007768031733918 10.88173043985511872 532.00313846471476608
v 44.30136665901576976 10.88173043985511872 527.07892268662612878
v 144.18007768031733918 1393.11826956014488132 532.00313846471476608
v 44.30136665901576976 1393.11826956014488132 527.07892268662612878
v 259.69863334098420184 1393.11826956014488132 -1811.07892268662612878
v 159.8199223196826608 1393.11826956014488132 -1816.00313846471476608
v 144.18007768031733918 10.88173043985511872 532.00313846471476608
v 44.30136665901576976 10.88173043985511872 527.07892268662612878
v 144.18007768031733918 1393.11826956014488132 532.00313846471476608
v 44.30136665901576976 1393.11826956014488132 527.07892268662612878
v 159.8199223196826608 10.88173043985511872 -1816.00313846471476608
v 259.69863334098420184 10.88173043985511872 -1811.07892268662612878
v 159.8199223196826608 1393.11826956014488132 -1816.00313846471476608
v 259.69863334098420184 1393.11826956014488132 -1811.07892268662612878
# 24 vertices

vn -0.9987868696898928 0 -0.04924214592262803
vn -0.9987868696898928 0 -0.04924214592262803
vn -0.9987868696898928 0 -0.04924214592262803
vn -0.9987868696898928 0 -0.04924214592262803
vn 0.9987868696898928 0 0.04924214592262803
vn 0.9987868696898928 0 0.04924214592262803
vn 0.9987868696898928 0 0.04924214592262803
vn 0.9987868696898928 0 0.04924214592262803
vn 0 -1 0
vn 0 -1 0
vn 0 -1 0
vn 0 -1 0
vn 0 1 0
vn 0 1 0
vn 0 1 0
vn 0 1 0
vn -0.04924214592262803 0 0.99878686968989264
vn -0.04924214592262803 0 0.99878686968989264
vn -0.04924214592262803 0 0.99878686968989264
vn -0.04924214592262803 0 0.99878686968989264
vn 0.04924214592262803 0 -0.99878686968989264
vn 0.04924214592262803 0 -0.99878686968989264
vn 0.04924214592262803 0 -0.99878686968989264
vn 0.04924214592262803 0 -0.99878686968989264
# 24 vertex normals

vt 0 1 0
vt 1 1 0
vt 0 0 0
vt 1 0 0
vt 0 1 0
vt 1 1 0
vt 0 0 0
vt 1 0 0
vt 0 1 0
vt 1 1 0
vt 0 0 0
vt 1 0 0
vt 0 1 0
vt 1 1 0
vt 0 0 0
vt 1 0 0
vt 0 1 0
vt 1 1 0
vt 0 0 0
vt 1 0 0
vt 0 1 0
vt 1 1 0
vt 0 0 0
vt 1 0 0
# 24 texture coords

g obj_31423369
s 8
f 73/73/73 75/75/75 76/76/76 74/74/74
f 77/77/77 79/79/79 80/80/80 78/78/78
f 81/81/81 83/83/83 84/84/84 82/82/82
f 85/85/85 87/87/87 88/88/88 86/86/86
f 89/89/89 91/91/91 92/92/92 90/90/90
f 93/93/93 95/95/95 96/96/96 94/94/94
#6 polygons


#
# object obj_25997619
#

v 1152.42282085964711768 10.88184185649186016 1797.3185332868497426
v 671.69926279608193912 10.88184185649186016 -498.82670393547550704
v 1152.42282085964711768 1393.11815814350802612 1797.3185332868497426
v 671.69926279608193912 1393.11815814350802612 -498.82670393547550704
v 769.57717914035288232 10.88184185649186016 -519.3185332868497426
v 1250.30073720391806092 10.88184185649186016 1776.82670393547550704
v 769.57717914035288232 1393.11815814350802612 -519.3185332868497426
v 1250.30073720391806092 1393.11815814350802612 1776.82670393547550704
v 769.57717914035288232 10.88184185649186016 -519.3185332868497426
v 671.69926279608193912 10.88184185649186016 -498.82670393547550704
v 1250.30073720391806092 10.88184185649186016 1776.82670393547550704
v 1152.42282085964711768 10.88184185649186016 1797.3185332868497426
v 1250.30073720391806092 1393.11815814350802612 1776.82670393547550704
v 1152.42282085964711768 1393.11815814350802612 1797.3185332868497426
v 769.57717914035288232 1393.11815814350802612 -519.3185332868497426
v 671.69926279608193912 1393.11815814350802612 -498.82670393547550704
v 1250.30073720391806092 10.88184185649186016 1776.82670393547550704
v 1152.42282085964711768 10.88184185649186016 1797.3185332868497426
v 1250.30073720391806092 1393.11815814350802612 1776.82670393547550704
v 1152.42282085964711768 1393.11815814350802612 1797.3185332868497426
v 671.69926279608193912 10.88184185649186016 -498.82670393547550704
v 769.57717914035288232 10.88184185649186016 -519.3185332868497426
v 671.69926279608193912 1393.11815814350802612 -498.82670393547550704
v 769.57717914035288232 1393.11815814350802612 -519.3185332868497426
# 24 vertices

vn -0.97877908621401136 0 0.20491827734505624
vn -0.97877908621401136 0 0.20491827734505624
vn -0.97877908621401136 0 0.20491827734505624
vn -0.97877908621401136 0 0.20491827734505624
vn 0.97877908621401136 0 -0.20491827734505624
vn 0.97877908621401136 0 -0.20491827734505624
vn 0.97877908621401136 0 -0.20491827734505624
vn 0.97877908621401136 0 -0.20491827734505624
vn 0 -1 0
vn 0 -1 0
vn 0 -1 0
vn 0 -1 0
vn 0 1 0
vn 0 1 0
vn 0 1 0
vn 0 1 0
vn 0.20491827734505624 0 0.97877908621401104
vn 0.20491827734505624 0 0.97877908621401104
vn 0.20491827734505624 0 0.97877908621401104
vn 0.20491827734505624 0 0.97877908621401104
vn -0.20491827734505624 0 -0.97877908621401104
vn -0.20491827734505624 0 -0.97877908621401104
vn -0.20491827734505624 0 -0.97877908621401104
vn -0.20491827734505624 0 -0.97877908621401104
# 24 vertex normals

vt 0 1 0
vt 1 1 0
vt 0 0 0
vt 1 0 0
vt 0 1 0
vt 1 1 0
vt 0 0 0
vt 1 0 0
vt 0 1 0
vt 1 1 0
vt 0 0 0
vt 1 0 0
vt 0 1 0
vt 1 1 0
vt 0 0 0
vt 1 0 0
vt 0 1 0
vt 1 1 0
vt 0 0 0
vt 1 0 0
vt 0 1 0
vt 1 1 0
vt 0 0 0
vt 1 0 0
# 24 texture coords

g obj_25997619
s 16
f 97/97/97 99/99/99 100/100/100 98/98/98
f 101/101/101 103/103/103 104/104/104 102/102/102
f 105/105/105 107/107/107 108/108/108 106/106/106
f 109/109/109 111/111/111 112/112/112 110/110/110
f 113/113/113 115/115/115 116/116/116 114/114/114
f 117/117/117 119/119/119 120/120/120 118/118/118
#6 polygons


#
# object obj_24867103
#

v 1952 105.67999267578125 -23
v 1952 105.67999267578125 -183
v 1952 265.67999267578125 -23
v 1952 265.67999267578125 -183
v 2112 105.67999267578125 -183
v 2112 105.67999267578125 -23
v 2112 265.67999267578125 -183
v 2112 265.67999267578125 -23
v 2112 105.67999267578125 -183
v 1952 105.67999267578125 -183
v 2112 105.67999267578125 -23
v 1952 105.67999267578125 -23
v 2112 265.67999267578125 -23
v 1952 265.67999267578125 -23
v 2112 265.67999267578125 -183
v 1952 265.67999267578125 -183
v 2112 105.67999267578125 -23
v 1952 105.67999267578125 -23
v 2112 265.67999267578125 -23
v 1952 265.67999267578125 -23
v 1952 105.67999267578125 -183
v 2112 105.67999267578125 -183
v 1952 265.67999267578125 -183
v 2112 265.67999267578125 -183
# 24 vertices

vn -1 0 0
vn -1 0 0
vn -1 0 0
vn -1 0 0
vn 1 0 0
vn 1 0 0
vn 1 0 0
vn 1 0 0
vn 0 -1 0
vn 0 -1 0
vn 0 -1 0
vn 0 -1 0
vn 0 1 0
vn 0 1 0
vn 0 1 0
vn 0 1 0
vn 0 0 1
vn 0 0 1
vn 0 0 1
vn 0 0 1
vn 0 0 -1
vn 0 0 -1
vn 0 0 -1
vn 0 0 -1
# 24 vertex normals

vt 0 1 0
vt 1 1 0
vt 0 0 0
vt 1 0 0
vt 0 1 0
vt 1 1 0
vt 0 0 0
vt 1 0 0
vt 0 1 0
vt 1 1 0
vt 0 0 0
vt 1 0 0
vt 0 1 0
vt 1 1 0
vt 0 0 0
vt 1 0 0
vt 0 1 0
vt 1 1 0
vt 0 0 0
vt 1 0 0
vt 0 1 0
vt 1 1 0
vt 0 0 0
vt 1 0 0
# 24 texture coords

g obj_24867103
s 32
f 121/121/121 123/123/123 124/124/124 122/122/122
f 125/125/125 127/127/127 128/128/128 126/126/126
f 129/129/129 131/131/131 132/132/132 130/130/130
f 133/133/133 135/135/135 136/136/136 134/134/134
f 137/137/137 139/139/139 140/140/140 138/138/138
f 141/141/141 143/143/143 144/144/144 142/142/142
#6 polygons

