# Aspose.3D Wavefront OBJ Exporter
# Copyright 2004-2021 Aspose Pty Ltd.
# File created: 30/07/2021 01:09:47 a. m.


#
# object obj_29478231
#

v -378.31439208984375 1531.08868789672851562 323.3690185546875
v -378.31439208984375 1531.08868789672851562 -816.9139404296875
v -378.31439208984375 1431.08855819702148438 323.3690185546875
v -378.31439208984375 1431.08855819702148438 -816.9139404296875
v -1178.31451416015625 1531.08868789672851562 -816.9139404296875
v -1178.31451416015625 1531.08868789672851562 323.3690185546875
v -1178.31451416015625 1431.08855819702148438 -816.9139404296875
v -1178.31451416015625 1431.08855819702148438 323.3690185546875
v -1178.31451416015625 1531.08868789672851562 -816.9139404296875
v -378.31439208984375 1531.08868789672851562 -816.9139404296875
v -1178.31451416015625 1531.08868789672851562 323.3690185546875
v -378.31439208984375 1531.08868789672851562 323.3690185546875
v -1178.31451416015625 1431.08855819702148438 323.3690185546875
v -378.31439208984375 1431.08855819702148438 323.3690185546875
v -1178.31451416015625 1431.08855819702148438 -816.9139404296875
v -378.31439208984375 1431.08855819702148438 -816.9139404296875
v -1178.31451416015625 1531.08868789672851562 323.3690185546875
v -378.31439208984375 1531.08868789672851562 323.3690185546875
v -1178.31451416015625 1431.08855819702148438 323.3690185546875
v -378.31439208984375 1431.08855819702148438 323.3690185546875
v -378.31439208984375 1531.08868789672851562 -816.9139404296875
v -1178.31451416015625 1531.08868789672851562 -816.9139404296875
v -378.31439208984375 1431.08855819702148438 -816.9139404296875
v -1178.31451416015625 1431.08855819702148438 -816.9139404296875
# 24 vertices

vn 1 0 0
vn 1 0 0
vn 1 0 0
vn 1 0 0
vn -1 0 0
vn -1 0 0
vn -1 0 0
vn -1 0 0
vn 0 1 0
vn 0 1 0
vn 0 1 0
vn 0 1 0
vn 0 -1 0
vn 0 -1 0
vn 0 -1 0
vn 0 -1 0
vn 0 0 1
vn 0 0 1
vn 0 0 1
vn 0 0 1
vn 0 0 -1
vn 0 0 -1
vn 0 0 -1
vn 0 0 -1
# 24 vertex normals

vt 0 1 0
vt 1 1 0
vt 0 0 0
vt 1 0 0
vt 0 1 0
vt 1 1 0
vt 0 0 0
vt 1 0 0
vt 0 1 0
vt 1 1 0
vt 0 0 0
vt 1 0 0
vt 0 1 0
vt 1 1 0
vt 0 0 0
vt 1 0 0
vt 0 1 0
vt 1 1 0
vt 0 0 0
vt 1 0 0
vt 0 1 0
vt 1 1 0
vt 0 0 0
vt 1 0 0
# 24 texture coords

g obj_29478231
s 1
f 1/1/1 3/3/3 4/4/4 2/2/2
f 5/5/5 7/7/7 8/8/8 6/6/6
f 9/9/9 11/11/11 12/12/12 10/10/10
f 13/13/13 15/15/15 16/16/16 14/14/14
f 17/17/17 19/19/19 20/20/20 18/18/18
f 21/21/21 23/23/23 24/24/24 22/22/22
#6 polygons


#
# object obj_30180314
#

v -626.86944580078124992 1915.177734375 -727.90971374511718752
v -626.86944580078124992 1915.177734375 -1159.63520812988281248
v -626.86944580078124992 1670.99951171875 -727.90971374511718752
v -626.86944580078124992 1670.99951171875 -1159.63520812988281248
v -929.75946044921875008 1915.177734375 -1159.63520812988281248
v -929.75946044921875008 1915.177734375 -727.90971374511718752
v -929.75946044921875008 1670.99951171875 -1159.63520812988281248
v -929.75946044921875008 1670.99951171875 -727.90971374511718752
v -929.75946044921875008 1915.177734375 -1159.63520812988281248
v -626.86944580078124992 1915.177734375 -1159.63520812988281248
v -929.75946044921875008 1915.177734375 -727.90971374511718752
v -626.86944580078124992 1915.177734375 -727.90971374511718752
v -929.75946044921875008 1670.99951171875 -727.90971374511718752
v -626.86944580078124992 1670.99951171875 -727.90971374511718752
v -929.75946044921875008 1670.99951171875 -1159.63520812988281248
v -626.86944580078124992 1670.99951171875 -1159.63520812988281248
v -929.75946044921875008 1915.177734375 -727.90971374511718752
v -626.86944580078124992 1915.177734375 -727.90971374511718752
v -929.75946044921875008 1670.99951171875 -727.90971374511718752
v -626.86944580078124992 1670.99951171875 -727.90971374511718752
v -626.86944580078124992 1915.177734375 -1159.63520812988281248
v -929.75946044921875008 1915.177734375 -1159.63520812988281248
v -626.86944580078124992 1670.99951171875 -1159.63520812988281248
v -929.75946044921875008 1670.99951171875 -1159.63520812988281248
# 24 vertices

vn 1 0 0
vn 1 0 0
vn 1 0 0
vn 1 0 0
vn -1 0 0
vn -1 0 0
vn -1 0 0
vn -1 0 0
vn 0 1 0
vn 0 1 0
vn 0 1 0
vn 0 1 0
vn 0 -1 0
vn 0 -1 0
vn 0 -1 0
vn 0 -1 0
vn 0 0 1
vn 0 0 1
vn 0 0 1
vn 0 0 1
vn 0 0 -1
vn 0 0 -1
vn 0 0 -1
vn 0 0 -1
# 24 vertex normals

vt 0 1 0
vt 1 1 0
vt 0 0 0
vt 1 0 0
vt 0 1 0
vt 1 1 0
vt 0 0 0
vt 1 0 0
vt 0 1 0
vt 1 1 0
vt 0 0 0
vt 1 0 0
vt 0 1 0
vt 1 1 0
vt 0 0 0
vt 1 0 0
vt 0 1 0
vt 1 1 0
vt 0 0 0
vt 1 0 0
vt 0 1 0
vt 1 1 0
vt 0 0 0
vt 1 0 0
# 24 texture coords

g obj_30180314
s 2
f 25/25/25 27/27/27 28/28/28 26/26/26
f 29/29/29 31/31/31 32/32/32 30/30/30
f 33/33/33 35/35/35 36/36/36 34/34/34
f 37/37/37 39/39/39 40/40/40 38/38/38
f 41/41/41 43/43/43 44/44/44 42/42/42
f 45/45/45 47/47/47 48/48/48 46/46/46
#6 polygons


#
# object obj_573030
#

v 15 1500 15
v 15 1500 -15
v 15 -1500 15
v 15 -1500 -15
v -15 1500 -15
v -15 1500 15
v -15 -1500 -15
v -15 -1500 15
v -15 1500 -15
v 15 1500 -15
v -15 1500 15
v 15 1500 15
v -15 -1500 15
v 15 -1500 15
v -15 -1500 -15
v 15 -1500 -15
v -15 1500 15
v 15 1500 15
v -15 -1500 15
v 15 -1500 15
v 15 1500 -15
v -15 1500 -15
v 15 -1500 -15
v -15 -1500 -15
# 24 vertices

vn 1 0 0
vn 1 0 0
vn 1 0 0
vn 1 0 0
vn -1 0 0
vn -1 0 0
vn -1 0 0
vn -1 0 0
vn 0 1 0
vn 0 1 0
vn 0 1 0
vn 0 1 0
vn 0 -1 0
vn 0 -1 0
vn 0 -1 0
vn 0 -1 0
vn 0 0 1
vn 0 0 1
vn 0 0 1
vn 0 0 1
vn 0 0 -1
vn 0 0 -1
vn 0 0 -1
vn 0 0 -1
# 24 vertex normals

vt 0 1 0
vt 1 1 0
vt 0 0 0
vt 1 0 0
vt 0 1 0
vt 1 1 0
vt 0 0 0
vt 1 0 0
vt 0 1 0
vt 1 1 0
vt 0 0 0
vt 1 0 0
vt 0 1 0
vt 1 1 0
vt 0 0 0
vt 1 0 0
vt 0 1 0
vt 1 1 0
vt 0 0 0
vt 1 0 0
vt 0 1 0
vt 1 1 0
vt 0 0 0
vt 1 0 0
# 24 texture coords

g obj_573030
s 4
f 49/49/49 51/51/51 52/52/52 50/50/50
f 53/53/53 55/55/55 56/56/56 54/54/54
f 57/57/57 59/59/59 60/60/60 58/58/58
f 61/61/61 63/63/63 64/64/64 62/62/62
f 65/65/65 67/67/67 68/68/68 66/66/66
f 69/69/69 71/71/71 72/72/72 70/70/70
#6 polygons

