# Aspose.3D Wavefront OBJ Exporter
# Copyright 2004-2021 Aspose Pty Ltd.
# File created: 07/08/2021 06:31:49 p. m.


#
# object obj_19126636
#

v 3153.39990234375 119.0800018310546875 4411.10009765625
v 3153.39990234375 119.0800018310546875 -4411.10009765625
v 3153.39990234375 -119.0800018310546875 4411.10009765625
v 3153.39990234375 -119.0800018310546875 -4411.10009765625
v -3153.39990234375 119.0800018310546875 -4411.10009765625
v -3153.39990234375 119.0800018310546875 4411.10009765625
v -3153.39990234375 -119.0800018310546875 -4411.10009765625
v -3153.39990234375 -119.0800018310546875 4411.10009765625
v -3153.39990234375 119.0800018310546875 -4411.10009765625
v 3153.39990234375 119.0800018310546875 -4411.10009765625
v -3153.39990234375 119.0800018310546875 4411.10009765625
v 3153.39990234375 119.0800018310546875 4411.10009765625
v -3153.39990234375 -119.0800018310546875 4411.10009765625
v 3153.39990234375 -119.0800018310546875 4411.10009765625
v -3153.39990234375 -119.0800018310546875 -4411.10009765625
v 3153.39990234375 -119.0800018310546875 -4411.10009765625
v -3153.39990234375 119.0800018310546875 4411.10009765625
v 3153.39990234375 119.0800018310546875 4411.10009765625
v -3153.39990234375 -119.0800018310546875 4411.10009765625
v 3153.39990234375 -119.0800018310546875 4411.10009765625
v 3153.39990234375 119.0800018310546875 -4411.10009765625
v -3153.39990234375 119.0800018310546875 -4411.10009765625
v 3153.39990234375 -119.0800018310546875 -4411.10009765625
v -3153.39990234375 -119.0800018310546875 -4411.10009765625
# 24 vertices

vn 1 0 0
vn 1 0 0
vn 1 0 0
vn 1 0 0
vn -1 0 0
vn -1 0 0
vn -1 0 0
vn -1 0 0
vn 0 1 0
vn 0 1 0
vn 0 1 0
vn 0 1 0
vn 0 -1 0
vn 0 -1 0
vn 0 -1 0
vn 0 -1 0
vn 0 0 1
vn 0 0 1
vn 0 0 1
vn 0 0 1
vn 0 0 -1
vn 0 0 -1
vn 0 0 -1
vn 0 0 -1
# 24 vertex normals

vt 0 1 0
vt 1 1 0
vt 0 0 0
vt 1 0 0
vt 0 1 0
vt 1 1 0
vt 0 0 0
vt 1 0 0
vt 0 1 0
vt 1 1 0
vt 0 0 0
vt 1 0 0
vt 0 1 0
vt 1 1 0
vt 0 0 0
vt 1 0 0
vt 0 1 0
vt 1 1 0
vt 0 0 0
vt 1 0 0
vt 0 1 0
vt 1 1 0
vt 0 0 0
vt 1 0 0
# 24 texture coords

g obj_19126636
s 1
f 1/1/1 3/3/3 4/4/4 2/2/2
f 5/5/5 7/7/7 8/8/8 6/6/6
f 9/9/9 11/11/11 12/12/12 10/10/10
f 13/13/13 15/15/15 16/16/16 14/14/14
f 17/17/17 19/19/19 20/20/20 18/18/18
f 21/21/21 23/23/23 24/24/24 22/22/22
#6 polygons


#
# object obj_453312
#

v 25 521.37998962402343752 414
v 25 521.37998962402343752 364
v 25 70.62001037597656248 414
v 25 70.62001037597656248 364
v -25 521.37998962402343752 364
v -25 521.37998962402343752 414
v -25 70.62001037597656248 364
v -25 70.62001037597656248 414
v -25 521.37998962402343752 364
v 25 521.37998962402343752 364
v -25 521.37998962402343752 414
v 25 521.37998962402343752 414
v -25 70.62001037597656248 414
v 25 70.62001037597656248 414
v -25 70.62001037597656248 364
v 25 70.62001037597656248 364
v -25 521.37998962402343752 414
v 25 521.37998962402343752 414
v -25 70.62001037597656248 414
v 25 70.62001037597656248 414
v 25 521.37998962402343752 364
v -25 521.37998962402343752 364
v 25 70.62001037597656248 364
v -25 70.62001037597656248 364
# 24 vertices

vn 1 0 0
vn 1 0 0
vn 1 0 0
vn 1 0 0
vn -1 0 0
vn -1 0 0
vn -1 0 0
vn -1 0 0
vn 0 1 0
vn 0 1 0
vn 0 1 0
vn 0 1 0
vn 0 -1 0
vn 0 -1 0
vn 0 -1 0
vn 0 -1 0
vn 0 0 1
vn 0 0 1
vn 0 0 1
vn 0 0 1
vn 0 0 -1
vn 0 0 -1
vn 0 0 -1
vn 0 0 -1
# 24 vertex normals

vt 0 1 0
vt 1 1 0
vt 0 0 0
vt 1 0 0
vt 0 1 0
vt 1 1 0
vt 0 0 0
vt 1 0 0
vt 0 1 0
vt 1 1 0
vt 0 0 0
vt 1 0 0
vt 0 1 0
vt 1 1 0
vt 0 0 0
vt 1 0 0
vt 0 1 0
vt 1 1 0
vt 0 0 0
vt 1 0 0
vt 0 1 0
vt 1 1 0
vt 0 0 0
vt 1 0 0
# 24 texture coords

g obj_453312
s 2
f 25/25/25 27/27/27 28/28/28 26/26/26
f 29/29/29 31/31/31 32/32/32 30/30/30
f 33/33/33 35/35/35 36/36/36 34/34/34
f 37/37/37 39/39/39 40/40/40 38/38/38
f 41/41/41 43/43/43 44/44/44 42/42/42
f 45/45/45 47/47/47 48/48/48 46/46/46
#6 polygons


#
# object obj_20380439
#

v 25 484.37998962402343752 18
v 25 484.37998962402343752 -32
v 25 33.62001037597656248 18
v 25 33.62001037597656248 -32
v -25 484.37998962402343752 -32
v -25 484.37998962402343752 18
v -25 33.62001037597656248 -32
v -25 33.62001037597656248 18
v -25 484.37998962402343752 -32
v 25 484.37998962402343752 -32
v -25 484.37998962402343752 18
v 25 484.37998962402343752 18
v -25 33.62001037597656248 18
v 25 33.62001037597656248 18
v -25 33.62001037597656248 -32
v 25 33.62001037597656248 -32
v -25 484.37998962402343752 18
v 25 484.37998962402343752 18
v -25 33.62001037597656248 18
v 25 33.62001037597656248 18
v 25 484.37998962402343752 -32
v -25 484.37998962402343752 -32
v 25 33.62001037597656248 -32
v -25 33.62001037597656248 -32
# 24 vertices

vn 1 0 0
vn 1 0 0
vn 1 0 0
vn 1 0 0
vn -1 0 0
vn -1 0 0
vn -1 0 0
vn -1 0 0
vn 0 1 0
vn 0 1 0
vn 0 1 0
vn 0 1 0
vn 0 -1 0
vn 0 -1 0
vn 0 -1 0
vn 0 -1 0
vn 0 0 1
vn 0 0 1
vn 0 0 1
vn 0 0 1
vn 0 0 -1
vn 0 0 -1
vn 0 0 -1
vn 0 0 -1
# 24 vertex normals

vt 0 1 0
vt 1 1 0
vt 0 0 0
vt 1 0 0
vt 0 1 0
vt 1 1 0
vt 0 0 0
vt 1 0 0
vt 0 1 0
vt 1 1 0
vt 0 0 0
vt 1 0 0
vt 0 1 0
vt 1 1 0
vt 0 0 0
vt 1 0 0
vt 0 1 0
vt 1 1 0
vt 0 0 0
vt 1 0 0
vt 0 1 0
vt 1 1 0
vt 0 0 0
vt 1 0 0
# 24 texture coords

g obj_20380439
s 4
f 49/49/49 51/51/51 52/52/52 50/50/50
f 53/53/53 55/55/55 56/56/56 54/54/54
f 57/57/57 59/59/59 60/60/60 58/58/58
f 61/61/61 63/63/63 64/64/64 62/62/62
f 65/65/65 67/67/67 68/68/68 66/66/66
f 69/69/69 71/71/71 72/72/72 70/70/70
#6 polygons


#
# object obj_41110705
#

v 411 484.37998962402343752 -182
v 411 484.37998962402343752 -232
v 411 33.62001037597656248 -182
v 411 33.62001037597656248 -232
v 361 484.37998962402343752 -232
v 361 484.37998962402343752 -182
v 361 33.62001037597656248 -232
v 361 33.62001037597656248 -182
v 361 484.37998962402343752 -232
v 411 484.37998962402343752 -232
v 361 484.37998962402343752 -182
v 411 484.37998962402343752 -182
v 361 33.62001037597656248 -182
v 411 33.62001037597656248 -182
v 361 33.62001037597656248 -232
v 411 33.62001037597656248 -232
v 361 484.37998962402343752 -182
v 411 484.37998962402343752 -182
v 361 33.62001037597656248 -182
v 411 33.62001037597656248 -182
v 411 484.37998962402343752 -232
v 361 484.37998962402343752 -232
v 411 33.62001037597656248 -232
v 361 33.62001037597656248 -232
# 24 vertices

vn 1 0 0
vn 1 0 0
vn 1 0 0
vn 1 0 0
vn -1 0 0
vn -1 0 0
vn -1 0 0
vn -1 0 0
vn 0 1 0
vn 0 1 0
vn 0 1 0
vn 0 1 0
vn 0 -1 0
vn 0 -1 0
vn 0 -1 0
vn 0 -1 0
vn 0 0 1
vn 0 0 1
vn 0 0 1
vn 0 0 1
vn 0 0 -1
vn 0 0 -1
vn 0 0 -1
vn 0 0 -1
# 24 vertex normals

vt 0 1 0
vt 1 1 0
vt 0 0 0
vt 1 0 0
vt 0 1 0
vt 1 1 0
vt 0 0 0
vt 1 0 0
vt 0 1 0
vt 1 1 0
vt 0 0 0
vt 1 0 0
vt 0 1 0
vt 1 1 0
vt 0 0 0
vt 1 0 0
vt 0 1 0
vt 1 1 0
vt 0 0 0
vt 1 0 0
vt 0 1 0
vt 1 1 0
vt 0 0 0
vt 1 0 0
# 24 texture coords

g obj_41110705
s 8
f 73/73/73 75/75/75 76/76/76 74/74/74
f 77/77/77 79/79/79 80/80/80 78/78/78
f 81/81/81 83/83/83 84/84/84 82/82/82
f 85/85/85 87/87/87 88/88/88 86/86/86
f 89/89/89 91/91/91 92/92/92 90/90/90
f 93/93/93 95/95/95 96/96/96 94/94/94
#6 polygons


#
# object obj_15520206
#

v -180 484.37998962402343752 240
v -180 484.37998962402343752 190
v -180 33.62001037597656248 240
v -180 33.62001037597656248 190
v -230 484.37998962402343752 190
v -230 484.37998962402343752 240
v -230 33.62001037597656248 190
v -230 33.62001037597656248 240
v -230 484.37998962402343752 190
v -180 484.37998962402343752 190
v -230 484.37998962402343752 240
v -180 484.37998962402343752 240
v -230 33.62001037597656248 240
v -180 33.62001037597656248 240
v -230 33.62001037597656248 190
v -180 33.62001037597656248 190
v -230 484.37998962402343752 240
v -180 484.37998962402343752 240
v -230 33.62001037597656248 240
v -180 33.62001037597656248 240
v -180 484.37998962402343752 190
v -230 484.37998962402343752 190
v -180 33.62001037597656248 190
v -230 33.62001037597656248 190
# 24 vertices

vn 1 0 0
vn 1 0 0
vn 1 0 0
vn 1 0 0
vn -1 0 0
vn -1 0 0
vn -1 0 0
vn -1 0 0
vn 0 1 0
vn 0 1 0
vn 0 1 0
vn 0 1 0
vn 0 -1 0
vn 0 -1 0
vn 0 -1 0
vn 0 -1 0
vn 0 0 1
vn 0 0 1
vn 0 0 1
vn 0 0 1
vn 0 0 -1
vn 0 0 -1
vn 0 0 -1
vn 0 0 -1
# 24 vertex normals

vt 0 1 0
vt 1 1 0
vt 0 0 0
vt 1 0 0
vt 0 1 0
vt 1 1 0
vt 0 0 0
vt 1 0 0
vt 0 1 0
vt 1 1 0
vt 0 0 0
vt 1 0 0
vt 0 1 0
vt 1 1 0
vt 0 0 0
vt 1 0 0
vt 0 1 0
vt 1 1 0
vt 0 0 0
vt 1 0 0
vt 0 1 0
vt 1 1 0
vt 0 0 0
vt 1 0 0
# 24 texture coords

g obj_15520206
s 16
f 97/97/97 99/99/99 100/100/100 98/98/98
f 101/101/101 103/103/103 104/104/104 102/102/102
f 105/105/105 107/107/107 108/108/108 106/106/106
f 109/109/109 111/111/111 112/112/112 110/110/110
f 113/113/113 115/115/115 116/116/116 114/114/114
f 117/117/117 119/119/119 120/120/120 118/118/118
#6 polygons


#
# object obj_42609838
#

v -180 484.37998962402343752 -262
v -180 484.37998962402343752 -312
v -180 33.62001037597656248 -262
v -180 33.62001037597656248 -312
v -230 484.37998962402343752 -312
v -230 484.37998962402343752 -262
v -230 33.62001037597656248 -312
v -230 33.62001037597656248 -262
v -230 484.37998962402343752 -312
v -180 484.37998962402343752 -312
v -230 484.37998962402343752 -262
v -180 484.37998962402343752 -262
v -230 33.62001037597656248 -262
v -180 33.62001037597656248 -262
v -230 33.62001037597656248 -312
v -180 33.62001037597656248 -312
v -230 484.37998962402343752 -262
v -180 484.37998962402343752 -262
v -230 33.62001037597656248 -262
v -180 33.62001037597656248 -262
v -180 484.37998962402343752 -312
v -230 484.37998962402343752 -312
v -180 33.62001037597656248 -312
v -230 33.62001037597656248 -312
# 24 vertices

vn 1 0 0
vn 1 0 0
vn 1 0 0
vn 1 0 0
vn -1 0 0
vn -1 0 0
vn -1 0 0
vn -1 0 0
vn 0 1 0
vn 0 1 0
vn 0 1 0
vn 0 1 0
vn 0 -1 0
vn 0 -1 0
vn 0 -1 0
vn 0 -1 0
vn 0 0 1
vn 0 0 1
vn 0 0 1
vn 0 0 1
vn 0 0 -1
vn 0 0 -1
vn 0 0 -1
vn 0 0 -1
# 24 vertex normals

vt 0 1 0
vt 1 1 0
vt 0 0 0
vt 1 0 0
vt 0 1 0
vt 1 1 0
vt 0 0 0
vt 1 0 0
vt 0 1 0
vt 1 1 0
vt 0 0 0
vt 1 0 0
vt 0 1 0
vt 1 1 0
vt 0 0 0
vt 1 0 0
vt 0 1 0
vt 1 1 0
vt 0 0 0
vt 1 0 0
vt 0 1 0
vt 1 1 0
vt 0 0 0
vt 1 0 0
# 24 texture coords

g obj_42609838
s 32
f 121/121/121 123/123/123 124/124/124 122/122/122
f 125/125/125 127/127/127 128/128/128 126/126/126
f 129/129/129 131/131/131 132/132/132 130/130/130
f 133/133/133 135/135/135 136/136/136 134/134/134
f 137/137/137 139/139/139 140/140/140 138/138/138
f 141/141/141 143/143/143 144/144/144 142/142/142
#6 polygons


#
# object obj_36417425
#

v 264 484.37998962402343752 -262
v 264 484.37998962402343752 -312
v 264 33.62001037597656248 -262
v 264 33.62001037597656248 -312
v 214 484.37998962402343752 -312
v 214 484.37998962402343752 -262
v 214 33.62001037597656248 -312
v 214 33.62001037597656248 -262
v 214 484.37998962402343752 -312
v 264 484.37998962402343752 -312
v 214 484.37998962402343752 -262
v 264 484.37998962402343752 -262
v 214 33.62001037597656248 -262
v 264 33.62001037597656248 -262
v 214 33.62001037597656248 -312
v 264 33.62001037597656248 -312
v 214 484.37998962402343752 -262
v 264 484.37998962402343752 -262
v 214 33.62001037597656248 -262
v 264 33.62001037597656248 -262
v 264 484.37998962402343752 -312
v 214 484.37998962402343752 -312
v 264 33.62001037597656248 -312
v 214 33.62001037597656248 -312
# 24 vertices

vn 1 0 0
vn 1 0 0
vn 1 0 0
vn 1 0 0
vn -1 0 0
vn -1 0 0
vn -1 0 0
vn -1 0 0
vn 0 1 0
vn 0 1 0
vn 0 1 0
vn 0 1 0
vn 0 -1 0
vn 0 -1 0
vn 0 -1 0
vn 0 -1 0
vn 0 0 1
vn 0 0 1
vn 0 0 1
vn 0 0 1
vn 0 0 -1
vn 0 0 -1
vn 0 0 -1
vn 0 0 -1
# 24 vertex normals

vt 0 1 0
vt 1 1 0
vt 0 0 0
vt 1 0 0
vt 0 1 0
vt 1 1 0
vt 0 0 0
vt 1 0 0
vt 0 1 0
vt 1 1 0
vt 0 0 0
vt 1 0 0
vt 0 1 0
vt 1 1 0
vt 0 0 0
vt 1 0 0
vt 0 1 0
vt 1 1 0
vt 0 0 0
vt 1 0 0
vt 0 1 0
vt 1 1 0
vt 0 0 0
vt 1 0 0
# 24 texture coords

g obj_36417425
s 64
f 145/145/145 147/147/147 148/148/148 146/146/146
f 149/149/149 151/151/151 152/152/152 150/150/150
f 153/153/153 155/155/155 156/156/156 154/154/154
f 157/157/157 159/159/159 160/160/160 158/158/158
f 161/161/161 163/163/163 164/164/164 162/162/162
f 165/165/165 167/167/167 168/168/168 166/166/166
#6 polygons


#
# object obj_49241271
#

v 341 484.37998962402343752 213
v 341 484.37998962402343752 163
v 341 33.62001037597656248 213
v 341 33.62001037597656248 163
v 291 484.37998962402343752 163
v 291 484.37998962402343752 213
v 291 33.62001037597656248 163
v 291 33.62001037597656248 213
v 291 484.37998962402343752 163
v 341 484.37998962402343752 163
v 291 484.37998962402343752 213
v 341 484.37998962402343752 213
v 291 33.62001037597656248 213
v 341 33.62001037597656248 213
v 291 33.62001037597656248 163
v 341 33.62001037597656248 163
v 291 484.37998962402343752 213
v 341 484.37998962402343752 213
v 291 33.62001037597656248 213
v 341 33.62001037597656248 213
v 341 484.37998962402343752 163
v 291 484.37998962402343752 163
v 341 33.62001037597656248 163
v 291 33.62001037597656248 163
# 24 vertices

vn 1 0 0
vn 1 0 0
vn 1 0 0
vn 1 0 0
vn -1 0 0
vn -1 0 0
vn -1 0 0
vn -1 0 0
vn 0 1 0
vn 0 1 0
vn 0 1 0
vn 0 1 0
vn 0 -1 0
vn 0 -1 0
vn 0 -1 0
vn 0 -1 0
vn 0 0 1
vn 0 0 1
vn 0 0 1
vn 0 0 1
vn 0 0 -1
vn 0 0 -1
vn 0 0 -1
vn 0 0 -1
# 24 vertex normals

vt 0 1 0
vt 1 1 0
vt 0 0 0
vt 1 0 0
vt 0 1 0
vt 1 1 0
vt 0 0 0
vt 1 0 0
vt 0 1 0
vt 1 1 0
vt 0 0 0
vt 1 0 0
vt 0 1 0
vt 1 1 0
vt 0 0 0
vt 1 0 0
vt 0 1 0
vt 1 1 0
vt 0 0 0
vt 1 0 0
vt 0 1 0
vt 1 1 0
vt 0 0 0
vt 1 0 0
# 24 texture coords

g obj_49241271
s 128
f 169/169/169 171/171/171 172/172/172 170/170/170
f 173/173/173 175/175/175 176/176/176 174/174/174
f 177/177/177 179/179/179 180/180/180 178/178/178
f 181/181/181 183/183/183 184/184/184 182/182/182
f 185/185/185 187/187/187 188/188/188 186/186/186
f 189/189/189 191/191/191 192/192/192 190/190/190
#6 polygons


#
# object obj_41215584
#

v -385 484.37998962402343752 213
v -385 484.37998962402343752 163
v -385 33.62001037597656248 213
v -385 33.62001037597656248 163
v -435 484.37998962402343752 163
v -435 484.37998962402343752 213
v -435 33.62001037597656248 163
v -435 33.62001037597656248 213
v -435 484.37998962402343752 163
v -385 484.37998962402343752 163
v -435 484.37998962402343752 213
v -385 484.37998962402343752 213
v -435 33.62001037597656248 213
v -385 33.62001037597656248 213
v -435 33.62001037597656248 163
v -385 33.62001037597656248 163
v -435 484.37998962402343752 213
v -385 484.37998962402343752 213
v -435 33.62001037597656248 213
v -385 33.62001037597656248 213
v -385 484.37998962402343752 163
v -435 484.37998962402343752 163
v -385 33.62001037597656248 163
v -435 33.62001037597656248 163
# 24 vertices

vn 1 0 0
vn 1 0 0
vn 1 0 0
vn 1 0 0
vn -1 0 0
vn -1 0 0
vn -1 0 0
vn -1 0 0
vn 0 1 0
vn 0 1 0
vn 0 1 0
vn 0 1 0
vn 0 -1 0
vn 0 -1 0
vn 0 -1 0
vn 0 -1 0
vn 0 0 1
vn 0 0 1
vn 0 0 1
vn 0 0 1
vn 0 0 -1
vn 0 0 -1
vn 0 0 -1
vn 0 0 -1
# 24 vertex normals

vt 0 1 0
vt 1 1 0
vt 0 0 0
vt 1 0 0
vt 0 1 0
vt 1 1 0
vt 0 0 0
vt 1 0 0
vt 0 1 0
vt 1 1 0
vt 0 0 0
vt 1 0 0
vt 0 1 0
vt 1 1 0
vt 0 0 0
vt 1 0 0
vt 0 1 0
vt 1 1 0
vt 0 0 0
vt 1 0 0
vt 0 1 0
vt 1 1 0
vt 0 0 0
vt 1 0 0
# 24 texture coords

g obj_41215584
s 256
f 193/193/193 195/195/195 196/196/196 194/194/194
f 197/197/197 199/199/199 200/200/200 198/198/198
f 201/201/201 203/203/203 204/204/204 202/202/202
f 205/205/205 207/207/207 208/208/208 206/206/206
f 209/209/209 211/211/211 212/212/212 210/210/210
f 213/213/213 215/215/215 216/216/216 214/214/214
#6 polygons

