# Blender v2.93.1 OBJ File: 'EscenarioArena.blend'
# www.blender.org
mtllib Hole_Top.mtl
o Hole_Top_Circle
v -0.306024 0.188989 -0.306024
v -0.399839 0.188989 -0.165619
v -0.165619 0.188989 -0.399839
v -0.306024 1.484384 -0.306024
v -0.399839 1.484384 -0.165619
v -0.165619 1.484384 -0.399839
v -1.149319 2.177788 -1.149319
v -1.501657 2.177788 -0.622007
v -0.622007 2.177788 -1.501658
v -0.883835 2.823386 -0.883836
v -1.154786 2.823386 -0.478328
v -0.478328 2.823386 -1.154787
v -0.779192 3.020825 -0.779192
v -1.018063 3.020825 -0.421695
v -0.421696 3.020825 -1.018063
v -0.207770 3.020824 -0.207770
v -0.271465 3.020824 -0.112444
v -0.112445 3.020824 -0.271465
v -0.505865 1.827224 -1.221267
v -0.934717 1.827224 -0.934717
v -1.221266 1.827224 -0.505865
v -0.468368 2.500587 -1.130740
v -0.865431 2.500587 -0.865431
v -1.130740 2.500587 -0.468368
v -0.133105 2.718329 -0.133105
v -0.173910 2.718329 -0.072036
v -0.173910 2.718329 0.072036
v -0.072036 2.718329 -0.173910
v -0.070727 2.718329 -0.070727
v -0.092409 2.718329 -0.038277
v -0.092409 2.718329 0.038277
v 0.038277 2.718329 -0.092409
v -0.038277 2.718329 -0.092409
v -0.070727 2.529367 -0.070727
v -0.092409 2.529367 -0.038277
v -0.092409 2.529367 0.038277
v -0.070727 2.529367 0.070727
v -0.038277 2.529367 0.092409
v 0.038277 2.529367 0.092409
v 0.070727 2.529367 0.070727
v 0.092409 2.529367 0.038277
v 0.092409 2.529367 -0.038277
v 0.070727 2.529367 -0.070727
v 0.038277 2.529367 -0.092409
v -0.038277 2.529367 -0.092409
v 0.306024 0.188989 -0.306024
v 0.399839 0.188989 -0.165619
v 0.000000 0.188989 -0.432783
v 0.165619 0.188989 -0.399839
v 0.306024 1.484384 -0.306024
v 0.399839 1.484384 -0.165619
v 0.000000 1.484384 -0.432783
v 0.165619 1.484384 -0.399839
v 1.149319 2.177788 -1.149319
v 1.501657 2.177788 -0.622007
v 0.000000 2.177788 -1.625382
v 0.622007 2.177788 -1.501658
v 0.883835 2.823386 -0.883836
v 1.154786 2.823386 -0.478328
v 0.000000 2.823386 -1.249931
v 0.478328 2.823386 -1.154787
v 0.779192 3.020825 -0.779192
v 1.018063 3.020825 -0.421695
v 0.000000 3.020825 -1.101943
v 0.421696 3.020825 -1.018063
v 0.207770 3.020824 -0.207770
v 0.271465 3.020824 -0.112444
v 0.000000 3.020824 -0.293831
v 0.112445 3.020824 -0.271465
v 0.000000 1.827224 -1.321888
v 0.505865 1.827224 -1.221267
v 0.934717 1.827224 -0.934717
v 1.221266 1.827224 -0.505865
v 0.000000 2.500587 -1.223904
v 0.468368 2.500587 -1.130740
v 0.865431 2.500587 -0.865431
v 1.130740 2.500587 -0.468368
v 0.133105 2.718329 -0.133105
v 0.173910 2.718329 -0.072036
v 0.173910 2.718329 0.072036
v 0.000000 2.718329 -0.188239
v 0.072036 2.718329 -0.173910
v 0.070727 2.718329 -0.070727
v 0.092409 2.718329 -0.038277
v 0.092409 2.718329 0.038277
v -0.038277 2.718329 -0.092409
v 0.000000 2.718329 -0.100023
v 0.038277 2.718329 -0.092409
v 0.070727 2.529367 -0.070727
v 0.092409 2.529367 -0.038277
v 0.092409 2.529367 0.038277
v 0.070727 2.529367 0.070727
v 0.038277 2.529367 0.092409
v 0.000000 2.529367 0.100023
v -0.038277 2.529367 0.092409
v -0.070727 2.529367 0.070727
v -0.092409 2.529367 0.038277
v -0.092409 2.529367 -0.038277
v -0.070727 2.529367 -0.070727
v -0.038277 2.529367 -0.092409
v 0.000000 2.529367 -0.100023
v 0.038277 2.529367 -0.092409
v -0.306024 0.188989 0.306024
v -0.399839 0.188989 0.165619
v -0.432783 0.188989 0.000000
v -0.165619 0.188989 0.399839
v -0.306024 1.484384 0.306024
v -0.399839 1.484384 0.165619
v -0.432783 1.484384 0.000000
v -0.165619 1.484384 0.399839
v -1.149319 2.177788 1.149319
v -1.501657 2.177788 0.622007
v -1.625382 2.177788 0.000000
v -0.622007 2.177788 1.501658
v -0.883835 2.823386 0.883836
v -1.154786 2.823386 0.478328
v -1.249932 2.823386 0.000000
v -0.478328 2.823386 1.154787
v -0.779192 3.020825 0.779192
v -1.018063 3.020825 0.421695
v -1.101943 3.020825 0.000000
v -0.421696 3.020825 1.018063
v -0.207770 3.020824 0.207770
v -0.271465 3.020824 0.112444
v -0.293831 3.020824 0.000000
v -0.112445 3.020824 0.271465
v -0.505865 1.827224 1.221267
v -0.934717 1.827224 0.934717
v -1.221266 1.827224 0.505865
v -1.321889 1.827224 0.000000
v -0.468368 2.500587 1.130740
v -0.865431 2.500587 0.865431
v -1.130740 2.500587 0.468368
v -1.223904 2.500587 0.000000
v -0.133105 2.718329 0.133105
v -0.173910 2.718329 0.072036
v -0.188239 2.718329 0.000000
v -0.173910 2.718329 -0.072036
v -0.072036 2.718329 0.173910
v -0.070727 2.718329 0.070727
v -0.092409 2.718329 0.038277
v -0.100023 2.718329 0.000000
v -0.092409 2.718329 -0.038277
v 0.038277 2.718329 0.092409
v -0.038277 2.718329 0.092409
v -0.070727 2.529367 0.070727
v -0.092409 2.529367 0.038277
v -0.100023 2.529367 0.000000
v -0.092409 2.529367 -0.038277
v -0.070727 2.529367 -0.070727
v -0.038277 2.529367 -0.092409
v 0.038277 2.529367 -0.092409
v 0.070727 2.529367 -0.070727
v 0.092409 2.529367 -0.038277
v 0.100023 2.529367 0.000000
v 0.092409 2.529367 0.038277
v 0.070727 2.529367 0.070727
v 0.038277 2.529367 0.092409
v -0.038277 2.529367 0.092409
v 0.306024 0.188989 0.306024
v 0.399839 0.188989 0.165619
v 0.432783 0.188989 0.000000
v 0.000000 0.188989 0.432783
v 0.165619 0.188989 0.399839
v 0.306024 1.484384 0.306024
v 0.399839 1.484384 0.165619
v 0.432783 1.484384 0.000000
v 0.000000 1.484384 0.432783
v 0.165619 1.484384 0.399839
v 1.149319 2.177788 1.149319
v 1.501657 2.177788 0.622007
v 1.625382 2.177788 0.000000
v 0.000000 2.177788 1.625382
v 0.622007 2.177788 1.501658
v 0.883835 2.823386 0.883836
v 1.154786 2.823386 0.478328
v 1.249932 2.823386 0.000000
v 0.000000 2.823386 1.249931
v 0.478328 2.823386 1.154787
v 0.779192 3.020825 0.779192
v 1.018063 3.020825 0.421695
v 1.101943 3.020825 0.000000
v 0.000000 3.020825 1.101943
v 0.421696 3.020825 1.018063
v 0.207770 3.020824 0.207770
v 0.271465 3.020824 0.112444
v 0.293831 3.020824 0.000000
v 0.000000 3.020824 0.293831
v 0.112445 3.020824 0.271465
v 0.000000 1.827224 1.321888
v 0.505865 1.827224 1.221267
v 0.934717 1.827224 0.934717
v 1.221266 1.827224 0.505865
v 1.321889 1.827224 0.000000
v 0.000000 2.500587 1.223904
v 0.468368 2.500587 1.130740
v 0.865431 2.500587 0.865431
v 1.130740 2.500587 0.468368
v 1.223904 2.500587 0.000000
v 0.133105 2.718329 0.133105
v 0.173910 2.718329 0.072036
v 0.188239 2.718329 0.000000
v 0.173910 2.718329 -0.072036
v 0.000000 2.718329 0.188239
v 0.072036 2.718329 0.173910
v 0.070727 2.718329 0.070727
v 0.092409 2.718329 0.038277
v 0.100023 2.718329 0.000000
v 0.092409 2.718329 -0.038277
v -0.038277 2.718329 0.092409
v 0.000000 2.718329 0.100023
v 0.038277 2.718329 0.092409
v 0.070727 2.529367 0.070727
v 0.092409 2.529367 0.038277
v 0.100023 2.529367 0.000000
v 0.092409 2.529367 -0.038277
v 0.070727 2.529367 -0.070727
v 0.038277 2.529367 -0.092409
v 0.000000 2.529367 -0.100023
v -0.038277 2.529367 -0.092409
v -0.070727 2.529367 -0.070727
v -0.092409 2.529367 -0.038277
v -0.100023 2.529367 0.000000
v -0.092409 2.529367 0.038277
v -0.070727 2.529367 0.070727
v -0.038277 2.529367 0.092409
v 0.000000 2.529367 0.100023
v 0.038277 2.529367 0.092409
vt 0.000000 0.000000
vt 0.000000 0.000000
vt 0.000000 0.000000
vt 0.000000 0.000000
vt 0.000000 0.000000
vt 0.000000 0.000000
vt 0.000000 0.000000
vt 0.000000 0.000000
vt 0.000000 0.000000
vt 0.000000 0.000000
vt 0.000000 0.000000
vt 0.000000 0.000000
vt 0.000000 0.000000
vt 0.000000 0.000000
vt 0.000000 0.000000
vt 0.000000 0.000000
vt 0.000000 0.000000
vt 0.000000 0.000000
vt 0.000000 0.000000
vt 0.000000 0.000000
vt 0.000000 0.000000
vt 0.000000 0.000000
vt 0.000000 0.000000
vt 0.000000 0.000000
vt 0.000000 0.000000
vt 0.000000 0.000000
vt 0.000000 0.000000
vt 0.000000 0.000000
vt 0.000000 0.000000
vt 0.000000 0.000000
vt 0.000000 0.000000
vt 0.000000 0.000000
vt 0.000000 0.000000
vt 0.000000 0.000000
vt 0.000000 0.000000
vt 0.000000 0.000000
vt 0.000000 0.000000
vt 0.000000 0.000000
vt 0.000000 0.000000
vt 0.000000 0.000000
vt 0.000000 0.000000
vt 0.000000 0.000000
vt 0.000000 0.000000
vt 0.000000 0.000000
vt 0.000000 0.000000
vt 0.000000 0.000000
vt 0.000000 0.000000
vt 0.000000 0.000000
vt 0.000000 0.000000
vt 0.000000 0.000000
vt 0.000000 0.000000
vt 0.000000 0.000000
vt 0.000000 0.000000
vt 0.000000 0.000000
vt 0.000000 0.000000
vt 0.000000 0.000000
vt 0.000000 0.000000
vt 0.000000 0.000000
vt 0.000000 0.000000
vt 0.000000 0.000000
vt 0.000000 0.000000
vt 0.000000 0.000000
vt 0.000000 0.000000
vt 0.000000 0.000000
vt 0.000000 0.000000
vt 0.000000 0.000000
vt 0.000000 0.000000
vt 0.000000 0.000000
vt 0.000000 0.000000
vt 0.000000 0.000000
vt 0.000000 0.000000
vt 0.000000 0.000000
vt 0.000000 0.000000
vt 0.000000 0.000000
vt 0.000000 0.000000
vt 0.000000 0.000000
vt 0.000000 0.000000
vt 0.000000 0.000000
vt 0.000000 0.000000
vt 0.000000 0.000000
vt 0.000000 0.000000
vt 0.000000 0.000000
vt 0.000000 0.000000
vt 0.000000 0.000000
vt 0.000000 0.000000
vt 0.000000 0.000000
vt 0.000000 0.000000
vt 0.000000 0.000000
vt 0.000000 0.000000
vt 0.000000 0.000000
vt 0.000000 0.000000
vt 0.000000 0.000000
vt 0.000000 0.000000
vt 0.000000 0.000000
vt 0.000000 0.000000
vt 0.000000 0.000000
vt 0.000000 0.000000
vt 0.000000 0.000000
vt 0.000000 0.000000
vt 0.000000 0.000000
vt 0.000000 0.000000
vt 0.000000 0.000000
vt 0.000000 0.000000
vt 0.000000 0.000000
vt 0.000000 0.000000
vt 0.000000 0.000000
vt 0.000000 0.000000
vt 0.000000 0.000000
vt 0.000000 0.000000
vt 0.000000 0.000000
vt 0.000000 0.000000
vt 0.000000 0.000000
vt 0.000000 0.000000
vt 0.000000 0.000000
vt 0.000000 0.000000
vt 0.000000 0.000000
vt 0.000000 0.000000
vt 0.000000 0.000000
vt 0.000000 0.000000
vt 0.000000 0.000000
vt 0.000000 0.000000
vt 0.000000 0.000000
vt 0.000000 0.000000
vt 0.000000 0.000000
vt 0.000000 0.000000
vt 0.000000 0.000000
vt 0.000000 0.000000
vt 0.000000 0.000000
vt 0.000000 0.000000
vt 0.000000 0.000000
vt 0.000000 0.000000
vt 0.000000 0.000000
vt 0.000000 0.000000
vt 0.000000 0.000000
vt 0.000000 0.000000
vt 0.000000 0.000000
vt 0.000000 0.000000
vt 0.000000 0.000000
vt 0.000000 0.000000
vt 0.000000 0.000000
vt 0.000000 0.000000
vt 0.000000 0.000000
vt 0.000000 0.000000
vt 0.000000 0.000000
vt 0.000000 0.000000
vt 0.000000 0.000000
vt 0.000000 0.000000
vt 0.000000 0.000000
vt 0.000000 0.000000
vt 0.000000 0.000000
vt 0.000000 0.000000
vt 0.000000 0.000000
vt 0.000000 0.000000
vt 0.000000 0.000000
vt 0.000000 0.000000
vt 0.000000 0.000000
vt 0.000000 0.000000
vt 0.000000 0.000000
vt 0.000000 0.000000
vt 0.000000 0.000000
vt 0.000000 0.000000
vt 0.000000 0.000000
vt 0.000000 0.000000
vt 0.000000 0.000000
vt 0.000000 0.000000
vt 0.000000 0.000000
vt 0.000000 0.000000
vt 0.000000 0.000000
vt 0.000000 0.000000
vt 0.000000 0.000000
vt 0.000000 0.000000
vt 0.000000 0.000000
vt 0.000000 0.000000
vt 0.000000 0.000000
vt 0.000000 0.000000
vt 0.000000 0.000000
vt 0.000000 0.000000
vt 0.000000 0.000000
vt 0.000000 0.000000
vt 0.000000 0.000000
vt 0.000000 0.000000
vt 0.000000 0.000000
vt 0.000000 0.000000
vt 0.000000 0.000000
vt 0.000000 0.000000
vt 0.000000 0.000000
vt 0.000000 0.000000
vt 0.000000 0.000000
vt 0.000000 0.000000
vt 0.000000 0.000000
vt 0.000000 0.000000
vt 0.000000 0.000000
vt 0.000000 0.000000
vt 0.000000 0.000000
vt 0.000000 0.000000
vt 0.000000 0.000000
vt 0.000000 0.000000
vt 0.000000 0.000000
vt 0.000000 0.000000
vt 0.000000 0.000000
vt 0.000000 0.000000
vt 0.000000 0.000000
vt 0.000000 0.000000
vt 0.000000 0.000000
vt 0.000000 0.000000
vt 0.000000 0.000000
vt 0.000000 0.000000
vt 0.000000 0.000000
vt 0.000000 0.000000
vt 0.000000 0.000000
vt 0.000000 0.000000
vt 0.000000 0.000000
vt 0.000000 0.000000
vt 0.000000 0.000000
vt 0.000000 0.000000
vt 0.000000 0.000000
vt 0.000000 0.000000
vt 0.000000 0.000000
vt 0.000000 0.000000
vt 0.000000 0.000000
vt 0.000000 0.000000
vt 0.000000 0.000000
vt 0.000000 0.000000
vt 0.000000 0.000000
vt 0.000000 0.000000
vt 0.000000 0.000000
vt 0.000000 0.000000
vt 0.000000 0.000000
vn -0.1951 0.0000 -0.9808
vn -0.8315 0.0000 -0.5556
vn -0.5556 0.0000 -0.8315
vn -0.9808 0.0000 -0.1951
vn -0.1487 -0.6472 -0.7476
vn -0.6338 -0.6472 -0.4235
vn -0.4235 -0.6472 -0.6338
vn -0.7476 -0.6472 -0.1487
vn -0.1945 -0.0788 -0.9777
vn -0.8289 -0.0788 -0.5538
vn -0.5538 -0.0788 -0.8289
vn -0.9777 -0.0788 -0.1945
vn -0.7902 0.5923 -0.1572
vn -0.1572 0.5923 -0.7902
vn -0.6699 0.5923 -0.4476
vn -0.4476 0.5923 -0.6699
vn 0.0000 1.0000 0.0000
vn -0.3589 -0.9307 -0.0714
vn -0.2033 -0.9307 -0.3042
vn -0.3042 -0.9307 -0.2033
vn -0.0714 -0.9307 -0.3589
vn -0.6218 0.7734 -0.1237
vn -0.3522 0.7734 -0.5271
vn -0.5271 0.7734 -0.3522
vn -0.1237 0.7734 -0.6218
vn 0.1846 0.3239 0.9279
vn 0.7866 0.3239 0.5256
vn 0.5256 0.3239 0.7866
vn 0.9279 0.3239 0.1846
vn -0.1951 0.0000 0.9808
vn 0.1951 0.0000 0.9808
vn 0.8315 0.0000 0.5556
vn 0.5556 0.0000 0.8315
vn 0.9808 0.0000 0.1951
vn 0.9808 0.0000 -0.1951
vn 0.1951 0.0000 -0.9808
vn 0.8315 0.0000 -0.5556
vn 0.5556 0.0000 -0.8315
vn 0.1487 -0.6472 -0.7476
vn 0.6338 -0.6472 -0.4235
vn 0.4235 -0.6472 -0.6338
vn 0.7476 -0.6472 -0.1487
vn 0.1945 -0.0788 -0.9777
vn 0.8289 -0.0788 -0.5538
vn 0.5538 -0.0788 -0.8289
vn 0.9777 -0.0788 -0.1945
vn 0.7902 0.5923 -0.1572
vn 0.1572 0.5923 -0.7902
vn 0.6699 0.5923 -0.4476
vn 0.4476 0.5923 -0.6699
vn 0.3589 -0.9307 -0.0714
vn 0.2033 -0.9307 -0.3042
vn 0.3042 -0.9307 -0.2033
vn 0.0714 -0.9307 -0.3589
vn 0.6218 0.7734 -0.1237
vn 0.3522 0.7734 -0.5271
vn 0.5271 0.7734 -0.3522
vn 0.1237 0.7734 -0.6218
vn -0.1846 0.3239 0.9279
vn -0.7866 0.3239 0.5256
vn -0.5256 0.3239 0.7866
vn -0.9279 0.3239 0.1846
vn -0.8315 0.0000 0.5556
vn -0.5556 0.0000 0.8315
vn -0.9808 0.0000 0.1951
vn -0.1487 -0.6472 0.7476
vn -0.6338 -0.6472 0.4235
vn -0.4235 -0.6472 0.6338
vn -0.7476 -0.6472 0.1487
vn -0.1945 -0.0788 0.9777
vn -0.8289 -0.0788 0.5538
vn -0.5538 -0.0788 0.8289
vn -0.9777 -0.0788 0.1945
vn -0.7902 0.5923 0.1572
vn -0.1572 0.5923 0.7902
vn -0.6699 0.5923 0.4476
vn -0.4476 0.5923 0.6699
vn -0.3589 -0.9307 0.0714
vn -0.2033 -0.9307 0.3042
vn -0.3042 -0.9307 0.2033
vn -0.0714 -0.9307 0.3589
vn -0.6218 0.7734 0.1237
vn -0.3522 0.7734 0.5271
vn -0.5271 0.7734 0.3522
vn -0.1237 0.7734 0.6218
vn 0.1846 0.3239 -0.9279
vn 0.7866 0.3239 -0.5256
vn 0.5256 0.3239 -0.7866
vn 0.9279 0.3239 -0.1846
vn 0.1487 -0.6472 0.7476
vn 0.6338 -0.6472 0.4235
vn 0.4235 -0.6472 0.6338
vn 0.7476 -0.6472 0.1487
vn 0.1945 -0.0788 0.9777
vn 0.8289 -0.0788 0.5538
vn 0.5538 -0.0788 0.8289
vn 0.9777 -0.0788 0.1945
vn 0.7902 0.5923 0.1572
vn 0.1572 0.5923 0.7902
vn 0.6699 0.5923 0.4476
vn 0.4476 0.5923 0.6699
vn 0.3589 -0.9307 0.0714
vn 0.2033 -0.9307 0.3042
vn 0.3042 -0.9307 0.2033
vn 0.0714 -0.9307 0.3589
vn 0.6218 0.7734 0.1237
vn 0.3522 0.7734 0.5271
vn 0.5271 0.7734 0.3522
vn 0.1237 0.7734 0.6218
vn -0.1846 0.3239 -0.9279
vn -0.7866 0.3239 -0.5256
vn -0.5256 0.3239 -0.7866
vn -0.9279 0.3239 -0.1846
usemtl Material.027
s off
f 3/1/1 6/2/1 52/3/1 48/4/1
f 2/5/2 5/6/2 4/7/2 1/8/2
f 1/8/3 4/7/3 6/2/3 3/1/3
f 105/9/4 109/10/4 5/6/4 2/5/4
f 19/11/5 9/12/5 56/13/5 70/14/5
f 21/15/6 8/16/6 7/17/6 20/18/6
f 20/18/7 7/17/7 9/12/7 19/11/7
f 130/19/8 113/20/8 8/16/8 21/15/8
f 22/21/9 12/22/9 60/23/9 74/24/9
f 24/25/10 11/26/10 10/27/10 23/28/10
f 23/28/11 10/27/11 12/22/11 22/21/11
f 134/29/12 117/30/12 11/26/12 24/25/12
f 117/30/13 121/31/13 14/32/13 11/26/13
f 12/22/14 15/33/14 64/34/14 60/23/14
f 11/26/15 14/32/15 13/35/15 10/27/15
f 10/27/16 13/35/16 15/33/16 12/22/16
f 15/33/17 18/36/17 68/37/17 64/34/17
f 14/32/17 17/38/17 16/39/17 13/35/17
f 13/35/17 16/39/17 18/36/17 15/33/17
f 121/31/17 125/40/17 17/38/17 14/32/17
f 109/10/18 130/19/18 21/15/18 5/6/18
f 4/7/19 20/18/19 19/11/19 6/2/19
f 5/6/20 21/15/20 20/18/20 4/7/20
f 6/2/21 19/11/21 70/14/21 52/3/21
f 113/20/22 134/29/22 24/25/22 8/16/22
f 7/17/23 23/28/23 22/21/23 9/12/23
f 8/16/24 24/25/24 23/28/24 7/17/24
f 9/12/25 22/21/25 74/24/25 56/13/25
f 18/36/26 28/41/26 81/42/26 68/37/26
f 17/38/27 26/43/27 25/44/27 16/39/27
f 16/39/28 25/44/28 28/41/28 18/36/28
f 125/40/29 137/45/29 26/43/29 17/38/29
f 137/45/17 142/46/17 30/47/17 26/43/17
f 27/48/17 31/49/17 142/46/17 137/45/17
f 28/41/17 33/50/17 87/51/17 81/42/17
f 26/43/17 30/47/17 29/52/17 25/44/17
f 25/44/17 29/52/17 33/50/17 28/41/17
f 87/51/30 101/53/30 44/54/30 32/55/30
f 33/50/31 45/56/31 101/53/31 87/51/31
f 30/47/32 35/57/32 34/58/32 29/52/32
f 29/52/33 34/58/33 45/56/33 33/50/33
f 142/46/34 148/59/34 35/57/34 30/47/34
f 31/49/35 36/60/35 148/59/35 142/46/35
f 35/57/17 148/59/17 36/60/17 37/61/17 38/62/17 94/63/17 39/64/17 40/65/17 41/66/17 155/67/17 42/68/17 43/69/17 44/54/17 101/53/17 45/56/17 34/58/17
f 49/70/36 48/4/36 52/3/36 53/71/36
f 47/72/37 46/73/37 50/74/37 51/75/37
f 46/73/38 49/70/38 53/71/38 50/74/38
f 162/76/35 47/72/35 51/75/35 167/77/35
f 71/78/39 70/14/39 56/13/39 57/79/39
f 73/80/40 72/81/40 54/82/40 55/83/40
f 72/81/41 71/78/41 57/79/41 54/82/41
f 194/84/42 73/80/42 55/83/42 172/85/42
f 75/86/43 74/24/43 60/23/43 61/87/43
f 77/88/44 76/89/44 58/90/44 59/91/44
f 76/89/45 75/86/45 61/87/45 58/90/45
f 199/92/46 77/88/46 59/91/46 177/93/46
f 177/93/47 59/91/47 63/94/47 182/95/47
f 61/87/48 60/23/48 64/34/48 65/96/48
f 59/91/49 58/90/49 62/97/49 63/94/49
f 58/90/50 61/87/50 65/96/50 62/97/50
f 65/96/17 64/34/17 68/37/17 69/98/17
f 63/94/17 62/97/17 66/99/17 67/100/17
f 62/97/17 65/96/17 69/98/17 66/99/17
f 182/95/17 63/94/17 67/100/17 187/101/17
f 167/77/51 51/75/51 73/80/51 194/84/51
f 50/74/52 53/71/52 71/78/52 72/81/52
f 51/75/53 50/74/53 72/81/53 73/80/53
f 53/71/54 52/3/54 70/14/54 71/78/54
f 172/85/55 55/83/55 77/88/55 199/92/55
f 54/82/56 57/79/56 75/86/56 76/89/56
f 55/83/57 54/82/57 76/89/57 77/88/57
f 57/79/58 56/13/58 74/24/58 75/86/58
f 69/98/59 68/37/59 81/42/59 82/102/59
f 67/100/60 66/99/60 78/103/60 79/104/60
f 66/99/61 69/98/61 82/102/61 78/103/61
f 187/101/62 67/100/62 79/104/62 202/105/62
f 202/105/17 79/104/17 84/106/17 208/107/17
f 80/108/17 202/105/17 208/107/17 85/109/17
f 82/102/17 81/42/17 87/51/17 88/110/17
f 79/104/17 78/103/17 83/111/17 84/106/17
f 78/103/17 82/102/17 88/110/17 83/111/17
f 87/51/31 86/112/31 100/113/31 101/53/31
f 88/110/30 87/51/30 101/53/30 102/114/30
f 84/106/63 83/111/63 89/115/63 90/116/63
f 83/111/64 88/110/64 102/114/64 89/115/64
f 208/107/65 84/106/65 90/116/65 215/117/65
f 85/109/4 208/107/4 215/117/4 91/118/4
f 90/116/17 89/115/17 102/114/17 101/53/17 100/113/17 99/119/17 98/120/17 223/121/17 97/122/17 96/123/17 95/124/17 94/63/17 93/125/17 92/126/17 91/118/17 215/117/17
f 106/127/30 163/128/30 168/129/30 110/130/30
f 104/131/63 103/132/63 107/133/63 108/134/63
f 103/132/64 106/127/64 110/130/64 107/133/64
f 105/9/65 104/131/65 108/134/65 109/10/65
f 127/135/66 190/136/66 173/137/66 114/138/66
f 129/139/67 128/140/67 111/141/67 112/142/67
f 128/140/68 127/135/68 114/138/68 111/141/68
f 130/19/69 129/139/69 112/142/69 113/20/69
f 131/143/70 195/144/70 178/145/70 118/146/70
f 133/147/71 132/148/71 115/149/71 116/150/71
f 132/148/72 131/143/72 118/146/72 115/149/72
f 134/29/73 133/147/73 116/150/73 117/30/73
f 117/30/74 116/150/74 120/151/74 121/31/74
f 118/146/75 178/145/75 183/152/75 122/153/75
f 116/150/76 115/149/76 119/154/76 120/151/76
f 115/149/77 118/146/77 122/153/77 119/154/77
f 122/153/17 183/152/17 188/155/17 126/156/17
f 120/151/17 119/154/17 123/157/17 124/158/17
f 119/154/17 122/153/17 126/156/17 123/157/17
f 121/31/17 120/151/17 124/158/17 125/40/17
f 109/10/78 108/134/78 129/139/78 130/19/78
f 107/133/79 110/130/79 127/135/79 128/140/79
f 108/134/80 107/133/80 128/140/80 129/139/80
f 110/130/81 168/129/81 190/136/81 127/135/81
f 113/20/82 112/142/82 133/147/82 134/29/82
f 111/141/83 114/138/83 131/143/83 132/148/83
f 112/142/84 111/141/84 132/148/84 133/147/84
f 114/138/85 173/137/85 195/144/85 131/143/85
f 126/156/86 188/155/86 204/159/86 139/160/86
f 124/158/87 123/157/87 135/161/87 136/162/87
f 123/157/88 126/156/88 139/160/88 135/161/88
f 125/40/89 124/158/89 136/162/89 137/45/89
f 137/45/17 136/162/17 141/163/17 142/46/17
f 138/164/17 137/45/17 142/46/17 143/165/17
f 139/160/17 204/159/17 211/166/17 145/167/17
f 136/162/17 135/161/17 140/168/17 141/163/17
f 135/161/17 139/160/17 145/167/17 140/168/17
f 211/166/1 144/169/1 158/170/1 227/171/1
f 145/167/36 211/166/36 227/171/36 159/172/36
f 141/163/37 140/168/37 146/173/37 147/174/37
f 140/168/38 145/167/38 159/172/38 146/173/38
f 142/46/35 141/163/35 147/174/35 148/59/35
f 143/165/34 142/46/34 148/59/34 149/175/34
f 147/174/17 146/173/17 159/172/17 227/171/17 158/170/17 157/176/17 156/177/17 155/67/17 154/178/17 153/179/17 152/180/17 219/181/17 151/182/17 150/183/17 149/175/17 148/59/17
f 164/184/31 169/185/31 168/129/31 163/128/31
f 161/186/32 166/187/32 165/188/32 160/189/32
f 160/189/33 165/188/33 169/185/33 164/184/33
f 162/76/34 167/77/34 166/187/34 161/186/34
f 191/190/90 174/191/90 173/137/90 190/136/90
f 193/192/91 171/193/91 170/194/91 192/195/91
f 192/195/92 170/194/92 174/191/92 191/190/92
f 194/84/93 172/85/93 171/193/93 193/192/93
f 196/196/94 179/197/94 178/145/94 195/144/94
f 198/198/95 176/199/95 175/200/95 197/201/95
f 197/201/96 175/200/96 179/197/96 196/196/96
f 199/92/97 177/93/97 176/199/97 198/198/97
f 177/93/98 182/95/98 181/202/98 176/199/98
f 179/197/99 184/203/99 183/152/99 178/145/99
f 176/199/100 181/202/100 180/204/100 175/200/100
f 175/200/101 180/204/101 184/203/101 179/197/101
f 184/203/17 189/205/17 188/155/17 183/152/17
f 181/202/17 186/206/17 185/207/17 180/204/17
f 180/204/17 185/207/17 189/205/17 184/203/17
f 182/95/17 187/101/17 186/206/17 181/202/17
f 167/77/102 194/84/102 193/192/102 166/187/102
f 165/188/103 192/195/103 191/190/103 169/185/103
f 166/187/104 193/192/104 192/195/104 165/188/104
f 169/185/105 191/190/105 190/136/105 168/129/105
f 172/85/106 199/92/106 198/198/106 171/193/106
f 170/194/107 197/201/107 196/196/107 174/191/107
f 171/193/108 198/198/108 197/201/108 170/194/108
f 174/191/109 196/196/109 195/144/109 173/137/109
f 189/205/110 205/208/110 204/159/110 188/155/110
f 186/206/111 201/209/111 200/210/111 185/207/111
f 185/207/112 200/210/112 205/208/112 189/205/112
f 187/101/113 202/105/113 201/209/113 186/206/113
f 202/105/17 208/107/17 207/211/17 201/209/17
f 203/212/17 209/213/17 208/107/17 202/105/17
f 205/208/17 212/214/17 211/166/17 204/159/17
f 201/209/17 207/211/17 206/215/17 200/210/17
f 200/210/17 206/215/17 212/214/17 205/208/17
f 211/166/36 227/171/36 226/216/36 210/217/36
f 212/214/1 228/218/1 227/171/1 211/166/1
f 207/211/2 214/219/2 213/220/2 206/215/2
f 206/215/3 213/220/3 228/218/3 212/214/3
f 208/107/4 215/117/4 214/219/4 207/211/4
f 209/213/65 216/221/65 215/117/65 208/107/65
f 214/219/17 215/117/17 216/221/17 217/222/17 218/223/17 219/181/17 220/224/17 221/225/17 222/226/17 223/121/17 224/227/17 225/228/17 226/216/17 227/171/17 228/218/17 213/220/17
