# Blender v2.93.1 OBJ File: 'EscenarioArena.blend'
# www.blender.org
mtllib Montana2.mtl
o Montana2_Cube.039
v -11.089252 -6.100393 7.560691
v -5.168539 4.130666 7.337342
v -16.737312 -6.100393 -8.525149
v 4.337020 -6.100393 7.375184
v 2.991119 6.463514 4.633214
v 1.813360 -6.100393 -12.416183
v 2.944726 8.562527 1.067906
v 5.351523 3.419261 -6.226224
v 4.337020 -6.100393 2.739215
v 6.373244 2.248629 2.156918
v -4.931894 -6.100393 -12.814113
v 9.496771 -6.100393 -11.827233
v 8.949661 2.446533 -4.592763
v 12.020430 -6.100393 3.328166
v 10.290815 2.377255 2.429904
v -1.081947 8.427732 0.270894
v -0.140956 -6.100393 11.977771
v -2.728125 4.747061 8.245829
v -3.556961 4.280350 -6.722485
v -8.428284 0.828945 7.275796
v -5.350471 6.399046 0.512070
v -9.691923 0.572011 -3.786752
vt 0.375000 0.000000
vt 0.509440 0.000000
vt 0.512680 0.250000
vt 0.375000 0.250000
vt 0.508316 0.368640
vt 0.375000 0.361374
vt 0.375000 0.500000
vt 0.495506 0.500000
vt 0.495506 0.500000
vt 0.375000 0.500000
vt 0.375000 0.875000
vt 0.625000 0.875000
vt 0.625000 1.000000
vt 0.509440 1.000000
vt 0.375000 1.000000
vt 0.125000 0.500000
vt 0.236374 0.500000
vt 0.375000 0.660951
vt 0.375000 0.750000
vt 0.250000 0.750000
vt 0.125000 0.750000
vt 0.750000 0.500000
vt 0.875000 0.500000
vt 0.875000 0.750000
vt 0.750000 0.750000
vt 0.487213 0.639817
vt 0.625000 0.500000
vt 0.625000 0.750000
vt 0.487213 0.639817
vt 0.375000 0.660951
vt 0.625000 0.250000
vt 0.625000 0.375000
vn -0.8272 0.5230 0.2056
vn -0.3995 0.6239 -0.6717
vn 0.2063 0.5614 -0.8014
vn -0.3481 0.2161 0.9122
vn 0.0000 -1.0000 0.0000
vn -0.3751 0.8723 0.3135
vn 0.9320 0.2613 0.2511
vn 0.9670 0.1918 -0.1679
vn -0.0748 0.0888 0.9932
vn 0.0950 0.9933 0.0654
vn -0.0422 0.8957 0.4427
vn 0.5653 0.3067 0.7658
vn 0.0770 0.5098 -0.8568
vn -0.7917 0.5966 0.1311
vn 0.1011 0.8338 -0.5427
vn -0.5323 0.7677 -0.3568
usemtl Material.040
s 1
f 1/1/1 20/2/1 22/3/1 3/4/1
f 3/4/2 22/3/2 19/5/2 11/6/2
f 6/7/3 8/8/3 13/9/3 12/10/3
f 17/11/4 18/12/4 2/13/4 20/14/4 1/15/4
f 3/16/5 11/17/5 6/7/5 9/18/5 4/19/5 17/20/5 1/21/5
f 16/22/6 21/23/6 2/24/6 18/25/6
f 9/18/7 10/26/7 8/8/7 7/27/7 5/28/7 4/19/7
f 12/10/8 13/9/8 15/29/8 14/30/8
f 10/26/9 9/18/9 14/30/9 15/29/9
f 9/18/5 6/7/5 12/10/5 14/30/5
f 8/8/10 10/26/10 15/29/10 13/9/10
f 7/27/11 16/22/11 18/25/11 5/28/11
f 4/19/12 5/28/12 18/12/12 17/11/12
f 11/6/13 19/5/13 8/8/13 6/7/13
f 20/2/14 2/24/14 21/31/14 22/3/14
f 8/8/15 19/5/15 16/32/15 7/27/15
f 19/5/16 22/3/16 21/31/16 16/32/16
