# Blender v2.93.1 OBJ File: 'Quixtam.blend'
# www.blender.org
mtllib Quixtam.mtl
o Cube
v 1.000000 1.000000 0.500000
v 0.500000 -1.000000 0.500000
v 0.500000 1.000000 0.500000
v 1.000000 -1.000000 0.500000
v 1.000000 0.000000 0.500000
v 1.000000 0.500000 0.500000
v 1.000000 -0.500000 0.500000
v 1.000000 -0.500000 1.000000
v 0.500000 -0.500000 1.000000
v 0.500000 0.500000 1.000000
v 1.000000 0.500000 1.000000
v 1.000000 0.000000 1.000000
v 0.500000 0.000000 1.000000
v 0.500000 -1.000000 1.000000
v 0.500000 1.000000 1.000000
v 1.000000 1.000000 1.000000
v 1.000000 -1.000000 1.000000
v 0.500000 -0.500000 0.479221
v 0.500000 0.502763 0.489611
v 0.500000 0.000000 0.479221
v 0.500000 -0.500000 -0.020921
v -1.000000 1.000000 0.500000
v 0.000000 -1.000000 0.500000
v 0.000000 1.000000 0.500000
v -0.500000 -1.000000 0.500000
v -0.500000 1.000000 0.500000
v -1.000000 -1.000000 0.500000
v -1.000000 0.000000 0.500000
v -1.000000 0.500000 0.500000
v -1.000000 -0.500000 0.500000
v -1.000000 -0.500000 1.000000
v 0.000000 -0.500000 1.000000
v -0.500000 -0.500000 1.000000
v -0.500000 0.500000 1.000000
v 0.000000 0.500000 1.000000
v -1.000000 0.500000 1.000000
v -1.000000 0.000000 1.000000
v -0.500000 0.000000 1.000000
v -0.500000 -1.000000 1.000000
v -0.500000 1.000000 1.000000
v 0.000000 -1.000000 1.000000
v 0.000000 1.000000 1.000000
v -1.000000 1.000000 1.000000
v -1.000000 -1.000000 1.000000
v 0.000000 -0.500000 0.479221
v -0.500000 -0.500000 0.479221
v -0.500000 0.502763 0.489611
v 0.000000 0.505526 0.500000
v -0.500000 0.000000 0.479221
v -0.500000 -0.500000 -0.020921
v 1.000000 1.000000 -0.500000
v 0.500000 -1.000000 -0.500000
v 0.500000 1.000000 -0.500000
v 1.000000 -1.000000 -0.500000
v 1.000000 0.000000 -0.500000
v 1.000000 0.500000 -0.500000
v 1.000000 -0.500000 -0.500000
v 1.000000 -0.500000 -1.000000
v 0.500000 -0.500000 -1.000000
v 1.000000 -1.000000 0.000000
v 1.000000 1.000000 0.000000
v 0.500000 0.500000 -1.000000
v 1.000000 0.500000 -1.000000
v 0.500000 -1.000000 0.000000
v 1.000000 0.000000 -1.000000
v 0.500000 0.000000 -1.000000
v 0.500000 -1.000000 -1.000000
v 0.500000 1.000000 -1.000000
v 1.000000 1.000000 -1.000000
v 1.000000 -1.000000 -1.000000
v 0.500000 1.000000 0.000000
v 1.000000 0.500000 0.000000
v 1.000000 -0.500000 0.000000
v 0.500000 -0.500000 -0.479221
v 0.500000 0.502763 -0.489611
v 0.500000 0.000000 -0.479221
v 0.500000 0.505526 0.000000
v 1.000000 -0.500000 0.000000
v 0.500000 -0.500000 0.020921
v -1.000000 1.000000 -0.500000
v 0.000000 -1.000000 -0.500000
v 0.000000 1.000000 -0.500000
v -0.500000 -1.000000 -0.500000
v -0.500000 1.000000 -0.500000
v -1.000000 -1.000000 -0.500000
v -1.000000 0.000000 -0.500000
v -1.000000 0.500000 -0.500000
v -1.000000 -0.500000 -0.500000
v -1.000000 -0.500000 -1.000000
v 0.000000 -0.500000 -1.000000
v -0.500000 -0.500000 -1.000000
v -1.000000 -1.000000 0.000000
v -1.000000 1.000000 0.000000
v -0.500000 0.500000 -1.000000
v 0.000000 0.500000 -1.000000
v -1.000000 0.500000 -1.000000
v -0.500000 -1.000000 0.000000
v -1.000000 0.000000 -1.000000
v -0.500000 0.000000 -1.000000
v -0.500000 -1.000000 -1.000000
v -0.500000 1.000000 -1.000000
v 0.000000 -1.000000 -1.000000
v 0.000000 1.000000 -1.000000
v -1.000000 1.000000 -1.000000
v -1.000000 -1.000000 -1.000000
v -0.500000 1.000000 0.000000
v -1.000000 0.500000 0.000000
v -1.000000 -0.500000 0.000000
v 0.000000 -0.500000 -0.479221
v -0.500000 -0.500000 -0.479221
v -0.500000 0.502763 -0.489611
v 0.000000 0.505526 -0.500000
v -0.500000 0.000000 -0.479221
v -0.500000 0.505526 0.000000
v -1.000000 -0.500000 0.000000
v -0.500000 -0.500000 0.020921
vt 0.375000 0.875000
vt 0.437500 0.875000
vt 0.437500 0.937500
vt 0.375000 0.937500
vt 0.375000 0.500000
vt 0.437500 0.500000
vt 0.437500 0.562500
vt 0.375000 0.562500
vt 0.437500 0.625000
vt 0.375000 0.625000
vt 0.375000 0.125000
vt 0.437500 0.125000
vt 0.437500 0.187500
vt 0.375000 0.187500
vt 0.437500 1.000000
vt 0.375000 1.000000
vt 0.500000 0.500000
vt 0.562500 0.500000
vt 0.562500 0.562500
vt 0.500000 0.562500
vt 0.562500 0.375000
vt 0.625000 0.375000
vt 0.625000 0.437500
vt 0.562500 0.437500
vt 0.500000 0.937500
vt 0.562500 0.937500
vt 0.562500 1.000000
vt 0.500000 1.000000
vt 0.562500 0.875000
vt 0.625000 0.875000
vt 0.625000 0.937500
vt 0.437500 0.250000
vt 0.375000 0.250000
vt 0.625000 0.500000
vt 0.625000 0.562500
vt 0.500000 0.437500
vt 0.562500 0.500000
vt 0.500000 0.500000
vt 0.500000 0.187500
vt 0.500000 0.250000
vt 0.625000 0.625000
vt 0.562500 0.625000
vt 0.625000 0.500000
vt 0.625000 1.000000
vt 0.437500 0.562500
vt 0.437500 0.625000
vt 0.562500 0.625000
vt 0.562500 0.562500
vt 0.500000 0.562500
vt 0.437500 0.125000
vt 0.437500 0.187500
vt 0.500000 0.187500
vt 0.437500 0.937500
vt 0.437500 0.562500
vt 0.375000 0.875000
vt 0.375000 0.937500
vt 0.437500 0.937500
vt 0.437500 0.875000
vt 0.375000 0.500000
vt 0.375000 0.562500
vt 0.437500 0.562500
vt 0.437500 0.500000
vt 0.375000 0.125000
vt 0.375000 0.187500
vt 0.437500 0.187500
vt 0.437500 0.125000
vt 0.375000 1.000000
vt 0.437500 1.000000
vt 0.500000 0.500000
vt 0.500000 0.562500
vt 0.562500 0.562500
vt 0.562500 0.500000
vt 0.562500 0.375000
vt 0.562500 0.437500
vt 0.625000 0.437500
vt 0.625000 0.375000
vt 0.500000 0.937500
vt 0.500000 1.000000
vt 0.562500 1.000000
vt 0.562500 0.937500
vt 0.562500 0.875000
vt 0.625000 0.937500
vt 0.625000 0.875000
vt 0.375000 0.250000
vt 0.437500 0.250000
vt 0.625000 0.562500
vt 0.625000 0.500000
vt 0.562500 0.500000
vt 0.625000 0.500000
vt 0.625000 1.000000
vt 0.437500 0.562500
vt 0.562500 0.562500
vt 0.500000 0.562500
vt 0.437500 0.187500
vt 0.437500 0.125000
vt 0.437500 0.562500
vt 0.437500 0.937500
vt 0.375000 0.937500
vt 0.437500 0.937500
vt 0.375000 0.500000
vt 0.375000 0.562500
vt 0.437500 0.562500
vt 0.437500 0.500000
vt 0.375000 0.625000
vt 0.437500 0.625000
vt 0.375000 0.187500
vt 0.437500 0.187500
vt 0.375000 1.000000
vt 0.437500 1.000000
vt 0.500000 0.500000
vt 0.500000 0.562500
vt 0.562500 0.562500
vt 0.562500 0.500000
vt 0.562500 0.437500
vt 0.625000 0.437500
vt 0.500000 0.937500
vt 0.500000 1.000000
vt 0.562500 1.000000
vt 0.562500 0.937500
vt 0.625000 0.937500
vt 0.375000 0.250000
vt 0.437500 0.250000
vt 0.625000 0.562500
vt 0.625000 0.500000
vt 0.500000 0.437500
vt 0.500000 0.500000
vt 0.562500 0.500000
vt 0.500000 0.250000
vt 0.500000 0.187500
vt 0.562500 0.625000
vt 0.625000 0.625000
vt 0.625000 0.500000
vt 0.625000 1.000000
vt 0.437500 0.625000
vt 0.437500 0.562500
vt 0.562500 0.562500
vt 0.562500 0.625000
vt 0.500000 0.562500
vt 0.437500 0.187500
vt 0.500000 0.187500
vt 0.437500 0.562500
vt 0.437500 0.937500
vt 0.375000 0.937500
vt 0.375000 0.500000
vt 0.437500 0.500000
vt 0.437500 0.562500
vt 0.375000 0.562500
vt 0.437500 0.187500
vt 0.375000 0.187500
vt 0.437500 1.000000
vt 0.375000 1.000000
vt 0.500000 0.500000
vt 0.562500 0.500000
vt 0.562500 0.562500
vt 0.500000 0.562500
vt 0.625000 0.437500
vt 0.562500 0.437500
vt 0.500000 0.937500
vt 0.562500 0.937500
vt 0.562500 1.000000
vt 0.500000 1.000000
vt 0.625000 0.937500
vt 0.437500 0.250000
vt 0.375000 0.250000
vt 0.625000 0.500000
vt 0.625000 0.562500
vt 0.562500 0.500000
vt 0.625000 0.500000
vt 0.625000 1.000000
vt 0.437500 0.562500
vt 0.562500 0.562500
vt 0.500000 0.562500
vt 0.437500 0.187500
vt 0.437500 0.562500
vn 1.0000 0.0000 0.0000
vn 0.0000 0.0000 1.0000
vn 0.0000 1.0000 0.0000
vn 0.0000 -1.0000 0.0000
vn -0.0028 -1.0000 -0.0082
vn -1.0000 0.0000 0.0000
vn -0.0104 0.0105 -0.9999
vn 0.0312 0.0104 -0.9995
vn -0.0083 -1.0000 -0.0028
vn 0.0415 0.0000 -0.9991
vn 0.0000 -0.0415 -0.9991
vn 0.0028 -1.0000 -0.0082
vn 0.0104 0.0105 -0.9999
vn -0.0312 0.0104 -0.9995
vn 0.0083 -1.0000 -0.0028
vn -0.0415 0.0000 -0.9991
vn 0.0000 0.0000 -1.0000
vn -0.0028 -1.0000 0.0082
vn -0.0104 0.0105 0.9999
vn 0.0312 0.0104 0.9995
vn -0.0083 -1.0000 0.0028
vn 0.0415 0.0000 0.9991
vn 0.0000 -0.0415 0.9991
vn 0.0028 -1.0000 0.0082
vn 0.0104 0.0105 0.9999
vn -0.0312 0.0104 0.9995
vn 0.0083 -1.0000 0.0028
vn -0.0415 0.0000 0.9991
usemtl Material
s off
f 60/1/1 73/2/1 7/3/1 4/4/1
f 17/5/2 8/6/2 9/7/2 14/8/2
f 14/8/2 9/7/2 32/9/2 41/10/2
f 61/11/3 71/12/3 3/13/3 1/14/3
f 4/4/1 7/3/1 8/15/1 17/16/1
f 12/17/2 11/18/2 10/19/2 13/20/2
f 64/21/4 60/22/4 4/23/4 2/24/4
f 5/25/1 6/26/1 11/27/1 12/28/1
f 72/29/1 61/30/1 1/31/1 6/26/1
f 8/6/2 12/17/2 13/20/2 9/7/2
f 7/3/1 5/25/1 12/28/1 8/15/1
f 1/14/3 3/13/3 15/32/3 16/33/3
f 11/18/2 16/34/2 15/35/2 10/19/2
f 23/36/4 2/24/4 14/37/4 41/38/4
f 3/13/3 24/39/3 42/40/3 15/32/3
f 10/19/2 15/35/2 42/41/2 35/42/2
f 2/24/4 4/23/4 17/43/4 14/37/4
f 6/26/1 1/31/1 16/44/1 11/27/1
f 32/9/3 9/7/3 18/45/3 45/46/3
f 10/19/5 35/42/5 48/47/5 19/48/5
f 13/20/6 10/19/6 19/48/6 20/49/6
f 9/7/6 13/20/6 20/49/6 18/45/6
f 3/13/6 71/12/6 77/50/6 19/51/6
f 24/39/7 3/13/7 19/51/7 48/52/7
f 5/25/8 20/49/8 19/48/8 6/26/8
f 6/26/9 19/48/9 77/50/9 72/29/9
f 7/3/10 18/45/10 20/49/10 5/25/10
f 18/45/3 7/3/3 78/53/3 21/54/3
f 2/24/6 18/45/6 21/54/6 64/21/6
f 23/36/11 45/46/11 18/45/11 2/24/11
f 92/55/6 27/56/6 30/57/6 108/58/6
f 44/59/2 39/60/2 33/61/2 31/62/2
f 39/60/2 41/10/2 32/9/2 33/61/2
f 93/63/3 22/64/3 26/65/3 106/66/3
f 27/56/6 44/67/6 31/68/6 30/57/6
f 37/69/2 38/70/2 34/71/2 36/72/2
f 97/73/4 25/74/4 27/75/4 92/76/4
f 28/77/6 37/78/6 36/79/6 29/80/6
f 107/81/6 29/80/6 22/82/6 93/83/6
f 31/62/2 33/61/2 38/70/2 37/69/2
f 30/57/6 31/68/6 37/78/6 28/77/6
f 22/64/3 43/84/3 40/85/3 26/65/3
f 36/72/2 34/71/2 40/86/2 43/87/2
f 23/36/4 41/38/4 39/88/4 25/74/4
f 26/65/3 40/85/3 42/40/3 24/39/3
f 34/71/2 35/42/2 42/41/2 40/86/2
f 25/74/4 39/88/4 44/89/4 27/75/4
f 29/80/6 36/79/6 43/90/6 22/82/6
f 32/9/3 45/46/3 46/91/3 33/61/3
f 34/71/12 47/92/12 48/47/12 35/42/12
f 38/70/1 49/93/1 47/92/1 34/71/1
f 33/61/1 46/91/1 49/93/1 38/70/1
f 26/65/1 47/94/1 114/95/1 106/66/1
f 24/39/13 48/52/13 47/94/13 26/65/13
f 28/77/14 29/80/14 47/92/14 49/93/14
f 29/80/15 107/81/15 114/95/15 47/92/15
f 30/57/16 28/77/16 49/93/16 46/91/16
f 46/91/3 50/96/3 115/97/3 30/57/3
f 25/74/1 97/73/1 50/96/1 46/91/1
f 23/36/11 25/74/11 46/91/11 45/46/11
f 60/1/1 54/98/1 57/99/1 73/2/1
f 70/100/17 67/101/17 59/102/17 58/103/17
f 67/101/17 102/104/17 90/105/17 59/102/17
f 61/11/3 51/106/3 53/107/3 71/12/3
f 54/98/1 70/108/1 58/109/1 57/99/1
f 65/110/17 66/111/17 62/112/17 63/113/17
f 64/21/4 52/114/4 54/115/4 60/22/4
f 55/116/1 65/117/1 63/118/1 56/119/1
f 72/29/1 56/119/1 51/120/1 61/30/1
f 58/103/17 59/102/17 66/111/17 65/110/17
f 57/99/1 58/109/1 65/117/1 55/116/1
f 51/106/3 69/121/3 68/122/3 53/107/3
f 63/113/17 62/112/17 68/123/17 69/124/17
f 81/125/4 102/126/4 67/127/4 52/114/4
f 53/107/3 68/122/3 103/128/3 82/129/3
f 62/112/17 95/130/17 103/131/17 68/123/17
f 52/114/4 67/127/4 70/132/4 54/115/4
f 56/119/1 63/118/1 69/133/1 51/120/1
f 90/105/3 109/134/3 74/135/3 59/102/3
f 62/112/18 75/136/18 112/137/18 95/130/18
f 66/111/6 76/138/6 75/136/6 62/112/6
f 59/102/6 74/135/6 76/138/6 66/111/6
f 53/107/6 75/139/6 77/50/6 71/12/6
f 82/129/19 112/140/19 75/139/19 53/107/19
f 55/116/20 56/119/20 75/136/20 76/138/20
f 56/119/21 72/29/21 77/50/21 75/136/21
f 57/99/22 55/116/22 76/138/22 74/135/22
f 74/135/3 79/141/3 78/53/3 57/99/3
f 52/114/6 64/21/6 79/141/6 74/135/6
f 81/125/23 52/114/23 74/135/23 109/134/23
f 92/55/6 108/58/6 88/142/6 85/143/6
f 105/144/17 89/145/17 91/146/17 100/147/17
f 100/147/17 91/146/17 90/105/17 102/104/17
f 93/63/3 106/66/3 84/148/3 80/149/3
f 85/143/6 88/142/6 89/150/6 105/151/6
f 98/152/17 96/153/17 94/154/17 99/155/17
f 97/73/4 92/76/4 85/156/4 83/157/4
f 86/158/6 87/159/6 96/160/6 98/161/6
f 107/81/6 93/83/6 80/162/6 87/159/6
f 89/145/17 98/152/17 99/155/17 91/146/17
f 88/142/6 86/158/6 98/161/6 89/150/6
f 80/149/3 84/148/3 101/163/3 104/164/3
f 96/153/17 104/165/17 101/166/17 94/154/17
f 81/125/4 83/157/4 100/167/4 102/126/4
f 84/148/3 82/129/3 103/128/3 101/163/3
f 94/154/17 101/166/17 103/131/17 95/130/17
f 83/157/4 85/156/4 105/168/4 100/167/4
f 87/159/6 80/162/6 104/169/6 96/160/6
f 90/105/3 91/146/3 110/170/3 109/134/3
f 94/154/24 95/130/24 112/137/24 111/171/24
f 99/155/1 94/154/1 111/171/1 113/172/1
f 91/146/1 99/155/1 113/172/1 110/170/1
f 84/148/1 106/66/1 114/95/1 111/173/1
f 82/129/25 84/148/25 111/173/25 112/140/25
f 86/158/26 113/172/26 111/171/26 87/159/26
f 87/159/27 111/171/27 114/95/27 107/81/27
f 88/142/28 110/170/28 113/172/28 86/158/28
f 110/170/3 88/142/3 115/97/3 116/174/3
f 83/157/1 110/170/1 116/174/1 97/73/1
f 81/125/23 109/134/23 110/170/23 83/157/23
