# Blender v2.91.2 OBJ File: 'Escenarios.blend'
# www.blender.org
o Hoyo.001_Cube.089
v 0.026725 -0.023700 0.391633
v 0.023848 -0.018717 0.391633
v 0.018094 -0.018717 0.391633
v 0.015218 -0.023700 0.391633
v 0.018094 -0.028683 0.391633
v 0.023848 -0.028683 0.391633
v -1.203532 -1.213875 -0.259059
v -0.748012 -0.753652 0.112781
v 1.214068 -1.213875 -0.259059
v 0.635968 -0.576304 0.184600
v -1.203532 1.203725 -0.259059
v -0.777861 0.779049 0.184600
v 1.214068 1.203725 -0.259059
v 0.786550 0.779048 0.184600
v 0.847970 -1.331296 -0.259059
v 0.315325 -1.376355 -0.259059
v -0.181696 -1.323468 -0.259059
v -0.757032 -1.337274 -0.259059
v -1.115208 -1.125551 -0.197707
v -1.060055 -1.070397 -0.146814
v -1.003031 -1.013374 -0.070947
v -0.931407 -0.941750 0.017785
v -0.464979 -0.785362 0.128948
v -0.139448 -0.737835 0.210944
v 0.160785 -0.785362 0.184600
v 0.430008 -0.748419 0.184600
v 0.816693 -0.785188 0.095868
v 0.918216 -0.892324 0.007136
v 1.064491 -1.050066 -0.081596
v 1.125744 -1.125551 -0.170328
v 1.325127 0.744885 -0.259059
v 1.527192 0.228857 -0.259059
v 1.354974 -0.372084 -0.259059
v 1.339318 -0.808636 -0.259059
v 0.734001 -0.429741 0.184600
v 0.668509 -0.094137 0.184600
v 0.653472 0.168940 0.184600
v 0.786550 0.466166 0.184600
v 0.941943 0.931600 0.095868
v 1.013567 1.003224 0.007136
v 1.070591 1.060248 -0.081596
v 1.125744 1.115401 -0.170328
v -0.720012 1.203725 -0.259059
v -0.297207 1.568998 -0.259059
v 0.356621 1.415084 -0.259059
v 0.793173 1.407256 -0.259059
v 0.536292 0.833845 0.184600
v 0.179222 0.673037 0.184600
v -0.216827 0.705070 0.184600
v -0.464979 0.779049 0.184600
v -0.931407 0.931600 0.095868
v -1.003031 1.003224 0.007136
v -1.060055 1.060248 -0.081596
v -1.115208 1.115401 -0.170328
v -1.360094 -0.683386 -0.259059
v -2.704158 -0.333694 -0.260520
v -1.448297 0.190339 -0.300699
v -1.422719 0.782830 -0.259059
v -0.777861 0.466166 0.184600
v -0.777861 0.153284 0.184600
v -0.777861 -0.159598 0.184600
v -0.777861 -0.472480 0.184600
v 0.592116 0.617044 0.254377
v 0.236580 0.414879 0.184600
v -0.304325 0.469676 0.184600
v -0.594732 0.594925 0.184600
v 0.524955 0.204374 0.184600
v 0.205268 0.194925 0.426495
v -0.163420 0.171441 0.426495
v -0.594732 0.194925 0.184600
v 0.548936 -0.167520 0.184600
v 0.205268 -0.205075 0.426495
v -0.194732 -0.205075 0.426495
v -0.594732 -0.205075 0.184600
v 0.503503 -0.518966 0.184600
v 0.205268 -0.605075 0.184600
v -0.177364 -0.534860 0.228024
v -0.409127 -0.460065 0.164398
v 0.605268 -0.605075 -0.259059
v 0.205268 -0.605075 -0.259059
v -0.194732 -0.605075 -0.259059
v -0.594732 -0.605075 -0.259059
v 0.605268 -0.205075 -0.259059
v 0.205268 -0.205075 -0.259059
v -0.194732 -0.205075 -0.259059
v -0.594732 -0.205075 -0.259059
v 0.605268 0.194925 -0.259059
v 0.205268 0.194925 -0.259059
v -0.194732 0.194925 -0.259059
v -0.594732 0.194925 -0.259059
v 0.605268 0.594925 -0.259059
v 0.205268 0.594925 -0.259059
v -0.194732 0.594925 -0.259059
v -0.594732 0.594925 -0.259059
v -1.287966 0.716570 -0.170328
v -1.315129 0.181165 -0.204338
v -1.905673 -0.317256 0.140817
v -1.238606 -0.640341 -0.170328
v -1.129804 0.654048 -0.081596
v -1.156422 0.189743 -0.097990
v -1.394573 -0.283545 0.103136
v -1.034431 -0.637805 -0.081596
v -1.003031 0.599905 0.007136
v -1.003031 0.196585 0.007136
v -1.090035 -0.224378 0.000906
v -0.955863 -0.610054 0.007136
v -0.931407 0.556930 0.095868
v -0.931407 0.182260 0.095868
v -0.973454 -0.200720 0.091272
v -0.931407 -0.567080 0.095868
v 0.726913 1.275819 -0.170328
v 0.318878 1.288036 -0.170328
v -0.302254 1.536098 -0.170328
v -0.667017 1.115401 -0.170328
v 0.664390 1.125015 -0.081596
v 0.261481 1.143463 -0.081596
v -0.286913 1.417297 -0.081596
v -0.633926 1.060248 -0.081596
v 0.610248 1.003224 0.007136
v 0.206928 1.003224 0.007136
v -0.245110 1.160752 0.007136
v -0.599711 1.003224 0.007136
v 0.601256 0.961335 0.095868
v 0.192603 0.931600 0.095868
v -0.206277 1.007689 0.095868
v -0.556737 0.931600 0.095868
v 1.224463 -0.739060 -0.170328
v 1.240834 -0.331472 -0.170328
v 1.381499 0.212626 -0.170328
v 1.266650 0.698523 -0.170328
v 1.110448 -0.669179 -0.081596
v 1.126067 -0.267452 -0.081596
v 1.193872 0.204908 -0.081596
v 1.192102 0.661121 -0.081596
v 1.006431 -0.604565 0.007136
v 1.011409 -0.205296 0.007136
v 1.009980 0.197007 0.007136
v 1.075980 0.613774 0.007136
v 0.941943 -0.567080 0.095868
v 0.883637 -0.153539 0.095868
v 0.858981 0.192020 0.095868
v 0.941943 0.556930 0.095868
v -0.713986 -1.282112 -0.170328
v -0.174070 -1.215065 -0.170328
v 0.338255 -1.294181 -0.170328
v 0.770102 -1.218099 -0.170328
v -0.665442 -1.205273 -0.094873
v -0.186222 -1.113546 -0.081596
v 0.326832 -1.189384 -0.030559
v 0.681827 -1.107763 -0.081596
v -0.620516 -1.082722 0.007136
v -0.196392 -1.013374 0.007136
v 0.288748 -1.061102 0.007136
v 0.610247 -1.013374 0.007136
v -0.556737 -0.941750 0.040216
v -0.182067 -0.941750 0.095868
v 0.234106 -0.965960 0.095868
v 0.567273 -0.941750 0.095868
v 0.026725 -0.023700 0.426495
v 0.023848 -0.018717 0.426495
v 0.018094 -0.018717 0.426495
v 0.015218 -0.023700 0.426495
v 0.018094 -0.028683 0.426495
v 0.023848 -0.028683 0.426495
vt 0.575000 0.600000
vt 0.625000 0.600000
vt 0.625000 0.650000
vt 0.575000 0.650000
vt 0.325000 0.700000
vt 0.375000 0.700000
vt 0.375000 0.750000
vt 0.325000 0.750000
vt 0.575000 0.800000
vt 0.625000 0.750000
vt 0.675000 0.700000
vt 0.675000 0.750000
vt 0.575000 0.950000
vt 0.625000 0.950000
vt 0.625000 1.000000
vt 0.325000 0.550000
vt 0.325000 0.500000
vt 0.375000 0.500000
vt 0.375000 0.550000
vt 0.525000 0.500000
vt 0.475000 0.450000
vt 0.525000 0.450000
vt 0.575000 0.500000
vt 0.675000 0.600000
vt 0.675000 0.650000
vt 0.825000 0.700000
vt 0.875000 0.700000
vt 0.875000 0.750000
vt 0.825000 0.750000
vt 0.775000 0.700000
vt 0.575000 0.150000
vt 0.625000 0.150000
vt 0.625000 0.200000
vt 0.575000 0.200000
vt 0.525000 0.650000
vt 0.575000 0.700000
vt 0.525000 0.700000
vt 0.525000 0.900000
vt 0.475000 0.850000
vt 0.525000 0.850000
vt 0.575000 0.900000
vt 0.725000 0.550000
vt 0.725000 0.500000
vt 0.775000 0.500000
vt 0.775000 0.550000
vt 0.675000 0.550000
vt 0.475000 0.650000
vt 0.425000 0.600000
vt 0.475000 0.600000
vt 0.725000 0.650000
vt 0.725000 0.700000
vt 0.825000 0.500000
vt 0.825000 0.550000
vt 0.375000 0.350000
vt 0.425000 0.300000
vt 0.475000 0.300000
vt 0.425000 0.350000
vt 0.725000 0.600000
vt 0.775000 0.600000
vt 0.375000 0.150000
vt 0.425000 0.150000
vt 0.425000 0.200000
vt 0.375000 0.200000
vt 0.125000 0.650000
vt 0.125000 0.600000
vt 0.175000 0.600000
vt 0.175000 0.650000
vt 0.775000 0.650000
vt 0.825000 0.650000
vt 0.875000 0.500000
vt 0.575000 0.550000
vt 0.625000 0.500000
vt 0.625000 0.550000
vt 0.375000 0.100000
vt 0.425000 0.050000
vt 0.475000 0.050000
vt 0.425000 0.100000
vt 0.125000 0.750000
vt 0.125000 0.700000
vt 0.175000 0.700000
vt 0.175000 0.750000
vt 0.225000 0.700000
vt 0.275000 0.700000
vt 0.275000 0.750000
vt 0.225000 0.500000
vt 0.275000 0.500000
vt 0.275000 0.550000
vt 0.225000 0.550000
vt 0.525000 0.050000
vt 0.575000 0.000000
vt 0.625000 0.000000
vt 0.575000 0.050000
vt 0.475000 0.100000
vt 0.475000 0.000000
vt 0.525000 0.000000
vt 0.425000 0.850000
vt 0.425000 0.800000
vt 0.475000 0.800000
vt 0.166667 0.749832
vt 0.333333 0.749832
vt 0.333333 0.500000
vt 0.166667 0.500000
vt -0.000000 0.749832
vt -0.000000 0.500000
vt 0.275000 0.650000
vt 0.325000 0.650000
vt 0.625000 0.700000
vt 0.225000 0.650000
vt 0.833333 0.749832
vt 1.000000 0.749832
vt 1.000000 0.500000
vt 0.833333 0.500000
vt 0.525000 0.300000
vt 0.475000 0.350000
vt 0.125000 0.550000
vt 0.175000 0.550000
vt 0.666667 0.749832
vt 0.666667 0.500000
vt 0.500000 0.500000
vt 0.500000 0.749832
vt 0.325000 0.600000
vt 0.275000 0.600000
vt 0.225000 0.600000
vt 0.475000 0.750000
vt 0.525000 0.750000
vt 0.575000 0.300000
vt 0.525000 0.350000
vt 0.475000 0.550000
vt 0.525000 0.550000
vt 0.525000 0.800000
vt 0.575000 0.750000
vt 0.425000 0.250000
vt 0.475000 0.250000
vt 0.525000 0.950000
vt 0.575000 0.450000
vt 0.625000 0.450000
vt 0.575000 1.000000
vt 0.575000 0.850000
vt 0.625000 0.850000
vt 0.625000 0.900000
vt 0.475000 0.200000
vt 0.525000 0.250000
vt 0.825000 0.600000
vt 0.375000 0.950000
vt 0.375000 0.900000
vt 0.425000 0.900000
vt 0.425000 0.750000
vt 0.425000 0.500000
vt 0.425000 0.550000
vt 0.475000 0.900000
vt 0.425000 0.950000
vt 0.475000 0.150000
vt 0.525000 0.200000
vt 0.475000 0.700000
vt 0.375000 0.600000
vt 0.375000 0.650000
vt 0.475000 0.950000
vt 0.750000 0.490000
vt 0.542154 0.130000
vt 0.957846 0.130000
vt 0.957846 0.370000
vt 0.375000 0.050000
vt 0.425000 0.000000
vt 0.425000 0.400000
vt 0.475000 0.400000
vt 0.875000 0.650000
vt 0.475000 0.500000
vt 0.425000 0.450000
vt 0.525000 0.100000
vt 0.625000 0.050000
vt 0.575000 0.100000
vt 0.375000 0.300000
vt 0.375000 0.400000
vt 0.425000 0.650000
vt 0.375000 0.850000
vt 0.375000 0.800000
vt 0.575000 0.250000
vt 0.625000 0.250000
vt 0.625000 0.300000
vt 0.125000 0.500000
vt 0.175000 0.500000
vt 0.525000 0.600000
vt 0.625000 0.100000
vt 0.425000 0.700000
vt 0.525000 0.400000
vt 0.375000 0.250000
vt 0.775000 0.750000
vt 0.725000 0.750000
vt 0.375000 0.450000
vt 0.525000 1.000000
vt 0.575000 0.350000
vt 0.575000 0.400000
vt 0.425000 1.000000
vt 0.475000 1.000000
vt 0.625000 0.350000
vt 0.625000 0.400000
vt 0.875000 0.600000
vt 0.525000 0.150000
vt 0.375000 0.000000
vt 0.875000 0.550000
vt 0.625000 0.800000
vt 0.675000 0.500000
vt 0.751624 0.624694
vt 0.751666 0.623200
vt 0.225000 0.750000
vt 0.375000 1.000000
vt 0.750000 0.010000
vt 0.542154 0.370000
vt 0.752277 0.624295
vt 0.752297 0.623549
vt 0.750993 0.624346
vt 0.751015 0.623598
vn -0.0408 -0.2997 -0.9532
vn -0.0000 0.0000 1.0000
vn 0.2549 -0.0000 -0.9670
vn 0.3539 0.2666 -0.8965
vn -0.6477 -0.1038 -0.7548
vn 0.0000 0.0000 -1.0000
vn -0.0009 0.1742 -0.9847
vn -0.0560 0.0383 -0.9977
vn -0.0415 0.4092 -0.9115
vn 0.1875 -0.5659 -0.8029
vn 0.5911 -0.1103 -0.7990
vn 0.1084 0.1486 -0.9829
vn -0.1950 -0.3905 -0.8997
vn 0.4199 -0.4438 -0.7917
vn -0.6064 0.0244 -0.7948
vn -0.5883 -0.0183 -0.8084
vn -0.0826 0.6573 -0.7491
vn 0.3746 0.4925 -0.7856
vn -0.0706 -0.4937 -0.8668
vn -0.0838 0.6751 -0.7330
vn -0.0487 0.0000 0.9988
vn 0.0565 0.3250 -0.9440
vn -0.1043 0.6535 -0.7497
vn 0.0878 0.6713 -0.7360
vn 0.3024 0.5993 -0.7412
vn 0.5260 0.0146 -0.8504
vn -0.0000 -1.0000 0.0000
vn 0.8660 -0.5000 0.0000
vn 0.8660 0.5000 0.0000
vn -0.6212 0.0242 -0.7833
vn -0.8660 0.5000 0.0000
vn 0.5983 -0.1027 -0.7947
vn -0.7013 0.0087 -0.7128
vn -0.0250 -0.5470 -0.8368
vn 0.6190 -0.0000 -0.7854
vn -0.1592 0.6116 -0.7750
vn 0.7441 0.1650 -0.6474
vn -0.4127 0.0000 -0.9109
vn 0.9543 0.0610 -0.2926
vn 0.4629 -0.0221 -0.8862
vn -0.0759 0.5034 -0.8607
vn -0.3867 0.3037 -0.8708
vn 0.2219 0.8508 -0.4763
vn 0.7105 -0.3077 -0.6329
vn -0.2266 -0.5104 -0.8295
vn 0.4891 -0.5379 -0.6866
vn -0.0979 0.5781 -0.8101
vn -0.2553 0.6810 -0.6864
vn 0.0000 -0.8096 -0.5869
vn -0.3394 0.1400 -0.9302
vn 0.2970 0.6365 -0.7118
vn 0.7697 -0.0769 -0.6337
vn -0.0000 -0.2549 -0.9670
vn -0.0000 -0.6207 -0.7841
vn -0.0236 -0.6849 -0.7283
vn -0.5227 0.0000 -0.8525
vn -0.5042 -0.0020 -0.8636
vn 0.2558 0.0871 -0.9628
vn -0.7238 -0.2204 -0.6539
vn 0.1203 0.5743 -0.8098
vn -0.6314 0.1613 -0.7585
vn -0.0100 -0.5560 -0.8311
vn -0.5480 0.1497 -0.8230
vn 0.6352 -0.7353 -0.2365
vn -0.2902 -0.7214 -0.6288
vn 0.2628 0.5912 -0.7625
vn -0.4896 0.1004 -0.8661
vn 0.5735 0.0281 -0.8187
vn 0.4555 0.0222 -0.8900
vn -0.2792 0.1709 -0.9449
vn -0.0757 0.4629 -0.8831
vn 0.1447 0.7418 -0.6548
vn 0.6667 0.0000 -0.7453
vn -0.1447 -0.7584 -0.6355
vn 0.0145 0.4692 -0.8830
vn 0.3929 -0.3819 -0.8365
vn 0.0426 -0.5853 -0.8097
vn -0.0828 -0.2777 -0.9571
vn 0.5025 -0.0203 -0.8644
vn -0.0292 -0.0411 0.9987
vn -0.4981 0.0789 -0.8635
vn -0.5239 0.0632 -0.8494
vn -0.5983 0.1849 -0.7796
vn -0.6030 0.0216 -0.7975
vn 0.1362 -0.3024 -0.9434
vn -0.1916 0.2654 -0.9449
vn -0.0978 -0.6131 -0.7839
vn -0.5054 0.0384 -0.8620
vn -0.2225 -0.5572 -0.8000
vn -0.7435 -0.2513 -0.6198
vn 0.7517 0.0395 -0.6583
vn -0.5392 -0.0188 -0.8420
vn 0.0309 -0.8438 -0.5357
vn 0.5443 0.1846 -0.8184
vn -0.4967 -0.0700 -0.8651
vn 0.0000 -0.6761 -0.7368
vn -0.3905 -0.0255 -0.9203
vn -0.0937 0.0459 -0.9945
vn 0.0672 0.6831 -0.7272
vn -0.4069 0.1822 -0.8951
vn -0.0160 -0.5341 -0.8453
vn 0.0000 -0.7776 -0.6287
vn -0.3871 0.6168 -0.6854
vn 0.1310 0.4739 -0.8708
vn -0.0205 0.8535 -0.5207
vn 0.0000 -0.8453 -0.5343
vn -0.5253 0.1194 -0.8425
vn 0.7781 0.0000 -0.6281
vn -0.5581 0.1711 -0.8120
vn -0.0012 0.5166 -0.8562
vn 0.5688 -0.0019 -0.8225
vn 0.5196 -0.4505 -0.7259
vn -0.0402 0.2707 -0.9618
vn 0.4982 -0.2382 -0.8337
vn 0.5145 0.0980 -0.8519
vn 0.0450 0.7738 -0.6319
vn -0.6094 -0.1928 -0.7691
vn 0.5003 0.0000 -0.8658
vn -0.0775 0.7049 -0.7050
vn -0.1752 -0.5028 -0.8465
vn -0.1346 0.1345 -0.9817
vn 0.0000 1.0000 0.0000
vn -0.8660 -0.5000 0.0000
vn -0.2113 0.5375 -0.8164
vn 0.2854 0.1955 -0.9382
vn 0.0939 -0.6396 -0.7630
vn -0.0705 -0.3220 -0.9441
vn 0.1715 0.0381 -0.9844
vn -0.4580 -0.6274 -0.6298
vn 0.4729 0.4061 -0.7819
vn -0.0008 0.0012 1.0000
vn -0.0063 0.0914 0.9958
vn 0.4681 0.1382 -0.8728
vn 0.3013 -0.7657 -0.5682
vn 0.1279 0.8122 -0.5692
vn 0.2929 0.6590 -0.6928
vn -0.2606 -0.2636 -0.9288
vn 0.6919 0.2297 -0.6845
vn 0.0000 -0.7087 -0.7055
vn -0.2146 -0.9117 -0.3503
vn 0.0000 -0.5347 -0.8451
vn 0.3257 -0.7333 -0.5968
vn -0.0784 -0.8984 -0.4321
vn 0.0988 -0.4552 -0.8849
vn -0.6217 -0.1505 -0.7687
vn -0.7181 -0.1697 -0.6749
vn -0.6638 0.3812 -0.6435
vn -0.3984 -0.0777 -0.9139
vn -0.1906 0.5943 -0.7813
vn -0.1010 0.5732 -0.8132
vn 0.1402 0.3172 -0.9379
vn 0.1007 0.4456 -0.8895
vn 0.1528 0.4613 -0.8740
s off
f 124/1/1 48/2/1 49/3/1 125/4/1
f 94/5/2 43/6/2 11/7/2 58/8/2
f 107/9/3 12/10/3 66/11/3 59/12/3
f 110/13/4 62/14/4 8/15/4
f 91/16/2 31/17/2 13/18/2 46/19/2
f 40/20/5 134/21/5 138/22/5 39/23/5
f 48/2/6 64/24/6 65/25/6 49/3/6
f 78/26/7 23/27/7 8/28/7 62/29/7
f 74/30/8 78/26/8 62/29/8
f 157/31/9 25/32/9 26/33/9 158/34/9
f 121/35/10 125/4/10 126/36/10 122/37/10
f 105/38/11 100/39/11 104/40/11 109/41/11
f 67/42/6 37/43/6 36/44/6 71/45/6
f 64/24/12 63/46/12 67/42/12
f 117/47/13 112/48/13 116/49/13 121/35/13
f 65/25/14 69/50/14 70/51/14
f 71/45/6 36/44/6 35/52/6 75/53/6
f 33/54/15 127/55/15 131/56/15 128/57/15
f 68/58/16 67/42/16 71/45/16 72/59/16
f 16/60/17 145/61/17 146/62/17 15/63/17
f 17/64/2 16/65/2 80/66/2 81/67/2
f 73/68/18 77/69/18 78/26/18
f 75/53/6 35/52/6 10/70/6
f 123/71/19 39/23/19 14/72/19 47/73/19
f 17/74/20 143/75/20 147/76/20 144/77/20
f 7/78/2 18/79/2 82/80/2 55/81/2
f 65/25/6 70/51/6 59/12/6 66/11/6
f 55/81/2 82/80/2 86/82/2
f 86/82/21 90/83/21 57/84/21
f 33/85/2 32/86/2 87/87/2 83/88/2
f 151/89/22 22/90/22 8/91/22 155/92/22
f 144/77/23 147/76/23 151/89/23 148/93/23
f 16/60/24 17/74/24 144/77/24 145/61/24
f 143/75/25 20/94/25 21/95/25 147/76/25
f 96/96/26 95/97/26 99/98/26 100/39/26
f 164/99/27 163/100/27 5/101/27 6/102/27
f 159/103/28 164/99/28 6/102/28 1/104/28
f 90/83/2 89/105/2 93/106/2 94/5/2
f 50/107/6 49/3/6 65/25/6 66/11/6
f 85/108/2 89/105/2 90/83/2 86/82/2
f 160/109/29 159/110/29 1/111/29 2/112/29
f 128/57/30 131/56/30 135/113/30 132/114/30
f 16/65/2 15/115/2 79/116/2 80/66/2
f 161/117/31 3/118/31 4/119/31 162/120/31
f 87/87/2 91/16/2 92/121/2 88/122/2
f 80/66/2 79/116/2 83/88/2 84/123/2
f 95/97/32 53/124/32 52/125/32 99/98/32
f 132/114/33 135/113/33 139/126/33 136/127/33
f 112/48/34 115/128/34 119/129/34 116/49/34
f 103/130/35 51/131/35 12/10/35 107/9/35
f 30/132/36 15/63/36 146/62/36 29/133/36
f 105/38/37 109/41/37 110/13/37 106/134/37
f 14/72/38 142/135/38 38/136/38 63/46/38
f 106/134/39 110/13/39 22/137/39
f 108/138/40 60/139/40 61/140/40 109/41/40
f 29/133/41 146/62/41 150/141/41 28/142/41
f 72/59/42 71/45/42 75/53/42 76/143/42
f 55/144/43 56/145/43 97/146/43
f 95/97/44 54/147/44 53/124/44
f 46/19/45 13/18/45 42/148/45 111/149/45
f 96/96/46 100/39/46 101/150/46
f 98/151/47 97/146/47 101/150/47
f 150/141/48 145/61/48 149/152/48 154/153/48
f 52/125/49 118/154/49 122/37/49 51/131/49
f 93/106/2 92/121/2 45/155/2 44/156/2
f 102/157/50 101/150/50 105/38/50
f 1/158/6 5/159/6 3/160/6 2/161/6
f 18/162/51 19/163/51 20/94/51 143/75/51
f 104/40/52 108/138/52 109/41/52
f 12/10/53 126/36/53 50/107/53 66/11/53
f 51/131/54 122/37/54 126/36/54 12/10/54
f 64/24/55 68/58/55 69/50/55 65/25/55
f 39/23/56 138/22/56 142/135/56 14/72/56
f 134/21/57 129/164/57 133/165/57 138/22/57
f 77/69/58 24/166/58 23/27/58 78/26/58
f 41/167/59 130/168/59 134/21/59 40/20/59
f 91/16/2 46/19/2 45/155/2 92/121/2
f 152/169/60 155/92/60 23/170/60 156/171/60
f 34/172/61 30/132/61 29/133/61 127/55/61
f 45/155/62 46/19/62 111/149/62
f 33/54/63 128/57/63 129/164/63 32/173/63
f 43/6/64 44/156/64 113/174/64
f 111/149/65 42/148/65 41/167/65
f 147/76/66 21/95/66 22/90/66 151/89/66
f 129/164/67 128/57/67 132/114/67 133/165/67
f 57/175/68 58/176/68 95/97/68 96/96/68
f 109/41/69 61/140/69 62/14/69 110/13/69
f 139/126/70 27/177/70 10/178/70 35/179/70
f 9/180/2 34/181/2 79/116/2 15/115/2
f 148/93/71 151/89/71 155/92/71 152/169/71
f 144/77/72 148/93/72 149/152/72 145/61/72
f 99/98/73 52/125/73 51/131/73 103/130/73
f 120/182/74 124/1/74 125/4/74
f 156/171/75 24/183/75 25/32/75 157/31/75
f 114/184/76 117/47/76 121/35/76 118/154/76
f 124/1/77 123/71/77 47/73/77
f 17/64/2 81/67/2 82/80/2 18/79/2
f 125/4/78 49/3/78 50/107/78
f 70/51/79 69/50/79 73/68/79 74/30/79
f 57/84/80 90/83/80 94/5/80 58/8/80
f 138/22/81 133/165/81 137/185/81 142/135/81
f 127/55/82 29/133/82 28/142/82 131/56/82
f 34/172/83 9/186/83 30/132/83
f 33/54/84 34/172/84 127/55/84
f 79/116/2 34/181/2 33/85/2 83/88/2
f 124/1/85 47/73/85 63/46/85 48/2/85
f 70/51/6 74/30/6 61/187/6 60/188/6
f 158/34/86 26/33/86 10/178/86 27/177/86
f 111/149/87 41/167/87 40/20/87 115/128/87
f 133/165/88 132/114/88 136/127/88 137/185/88
f 113/174/89 45/155/89 112/48/89 117/47/89
f 42/148/90 31/189/90 130/168/90 41/167/90
f 21/190/91 102/157/91 106/134/91 22/137/91
f 137/185/92 136/127/92 140/191/92 141/192/92
f 120/182/93 119/129/93 123/71/93 124/1/93
f 19/193/94 55/144/94 98/151/94 20/194/94
f 136/127/95 139/126/95 35/179/95 140/191/95
f 115/128/96 40/20/96 39/23/96 119/129/96
f 141/192/97 140/191/97 36/195/97 37/196/97
f 76/143/98 25/197/98 24/166/98 77/69/98
f 153/198/99 148/93/99 152/169/99 157/31/99
f 141/192/100 37/196/100 38/136/100
f 45/155/101 111/149/101 115/128/101 112/48/101
f 87/87/2 32/86/2 31/17/2 91/16/2
f 54/147/102 43/6/102 114/184/102 53/124/102
f 154/153/103 158/34/103 27/177/103
f 18/162/104 7/199/104 19/163/104
f 17/74/105 18/162/105 143/75/105
f 53/124/106 114/184/106 118/154/106 52/125/106
f 76/143/6 75/53/6 26/200/6 25/197/6
f 142/135/107 137/185/107 141/192/107 38/136/107
f 104/40/108 103/130/108 107/9/108 108/138/108
f 131/56/109 28/142/109 27/177/109 135/113/109
f 93/106/2 44/156/2 43/6/2 94/5/2
f 72/59/110 76/143/110 77/69/110 73/68/110
f 100/39/111 99/98/111 103/130/111 104/40/111
f 43/6/112 113/174/112 117/47/112 114/184/112
f 149/152/113 153/198/113 154/153/113
f 58/176/114 11/7/114 54/147/114 95/97/114
f 20/194/115 98/151/115 102/157/115 21/190/115
f 152/169/116 156/171/116 157/31/116
f 32/173/117 129/164/117 130/168/117 31/189/117
f 108/138/118 107/9/118 59/201/118 60/139/118
f 153/198/119 157/31/119 158/34/119 154/153/119
f 121/35/120 116/49/120 120/182/120 125/4/120
f 38/202/121 37/43/121 67/42/121 63/46/121
f 82/80/2 81/67/2 85/108/2 86/82/2
f 84/123/2 83/88/2 87/87/2 88/122/2
f 85/108/2 84/123/2 88/122/2 89/105/2
f 160/109/122 2/112/122 3/118/122 161/117/122
f 162/120/123 4/119/123 5/101/123 163/100/123
f 89/105/2 88/122/2 92/121/2 93/106/2
f 28/142/124 150/141/124 154/153/124 27/177/124
f 162/203/6 73/68/6 69/50/6
f 159/204/6 68/58/6 72/59/6
f 110/13/125 8/15/125 22/137/125
f 97/146/126 57/175/126 96/96/126 101/150/126
f 59/12/6 70/51/6 60/188/6
f 74/30/6 62/29/6 61/187/6
f 14/72/127 63/46/127 47/73/127
f 48/2/128 63/46/128 64/24/128
f 64/24/129 67/42/129 68/58/129
f 73/68/130 78/26/130 74/30/130
f 75/53/6 10/70/6 26/200/6
f 55/81/131 86/82/131 56/205/131
f 86/82/132 57/84/132 56/205/132
f 55/144/133 19/193/133 7/206/133
f 57/175/134 97/146/134 56/145/134
f 55/144/135 97/146/135 98/151/135
f 98/151/136 101/150/136 102/157/136
f 100/39/137 105/38/137 101/150/137
f 102/157/138 105/38/138 106/134/138
f 43/6/139 54/147/139 11/7/139
f 45/155/140 113/174/140 44/156/140
f 116/49/141 119/129/141 120/182/141
f 118/154/142 121/35/142 122/37/142
f 119/129/143 39/23/143 123/71/143
f 125/4/144 50/107/144 126/36/144
f 31/189/145 42/148/145 13/18/145
f 129/164/146 134/21/146 130/168/146
f 135/113/147 27/177/147 139/126/147
f 140/191/148 35/179/148 36/195/148
f 15/63/149 30/132/149 9/186/149
f 145/61/150 150/141/150 146/62/150
f 148/93/151 153/198/151 149/152/151
f 155/92/152 8/91/152 23/170/152
f 156/171/153 23/170/153 24/183/153
f 3/160/6 5/159/6 4/207/6
f 5/159/6 1/158/6 6/208/6
f 72/59/6 163/209/6 164/210/6
f 162/203/6 69/50/6 161/211/6
f 73/68/6 163/209/6 72/59/6
f 163/209/6 73/68/6 162/203/6
f 69/50/6 160/212/6 161/211/6
f 159/204/6 72/59/6 164/210/6
f 68/58/6 160/212/6 69/50/6
f 160/212/6 68/58/6 159/204/6
f 81/67/2 80/66/2 84/123/2 85/108/2
