# Blender v2.91.2 OBJ File: 'CrocoLoco.blend'
# www.blender.org
o Cube.001_Cube.002
v -96.363846 21.647202 10.595096
v -96.363846 21.647202 11.275739
v -91.034615 22.428246 10.371275
v -91.034615 23.056618 11.275739
v -97.195885 21.647202 11.783734
v -97.195885 21.647202 11.103092
v -91.034615 25.264931 10.595096
v -91.034615 25.264931 11.275739
v -96.363846 25.264931 10.595096
v -96.363846 25.264931 11.275739
v -97.195885 25.264931 11.103092
v -97.665184 25.264931 11.783734
v -97.951630 22.288971 13.005884
v -99.067467 21.647202 13.401930
v -99.067467 25.264931 13.401930
v -98.420921 25.264931 13.005884
v -90.929962 21.208128 12.095149
v -90.929962 21.208128 11.414507
v -96.259193 21.208128 11.414507
v -96.259193 21.208128 12.095149
v -87.660744 25.264931 12.876394
v -87.660744 23.759378 12.876394
v -87.329575 23.546907 12.335231
v -87.329575 25.264931 12.391329
v -89.530968 23.407997 11.739140
v -89.530968 25.264931 11.739140
v -89.182098 25.264931 11.577074
v -89.182098 22.987577 11.353252
v -88.322777 23.592512 12.350752
v -88.255836 23.267242 11.844241
v -88.322777 25.273756 12.350752
v -88.255836 25.264931 11.984201
v -96.363846 28.880089 10.595096
v -96.363846 28.880089 11.275739
v -91.034615 28.099045 10.371275
v -91.034615 27.470673 11.275739
v -97.195885 28.880089 11.783734
v -97.195885 28.880089 11.103092
v -91.034615 25.262360 10.595096
v -91.034615 25.262360 11.275739
v -96.363846 25.262360 10.595096
v -96.363846 25.262360 11.275739
v -97.195885 25.262360 11.103092
v -97.665184 25.262360 11.783734
v -97.951630 28.238319 13.005884
v -99.067467 28.880089 13.401930
v -99.067467 25.262360 13.401930
v -98.420921 25.262360 13.005884
v -90.929962 29.319162 12.095149
v -90.929962 29.319162 11.414507
v -96.259193 29.319162 11.414507
v -96.259193 29.319162 12.095149
v -87.660744 25.262360 12.876394
v -87.660744 26.767912 12.876394
v -87.329575 26.980383 12.335231
v -87.329575 25.262360 12.391329
v -89.530968 27.119293 11.739140
v -89.530968 25.262360 11.739140
v -89.182098 25.262360 11.577074
v -89.182098 27.539713 11.353252
v -88.322777 26.934778 12.350752
v -88.255836 27.260048 11.844241
v -88.322777 25.253534 12.350752
v -88.255836 25.262360 11.984201
vt 0.750000 0.500000
vt 0.625000 0.500000
vt 0.625000 0.500000
vt 0.750000 0.500000
vt 0.625000 0.750000
vt 0.375000 0.750000
vt 0.375000 0.750000
vt 0.625000 0.750000
vt 0.250000 0.500000
vt 0.375000 0.500000
vt 0.250000 0.750000
vt 0.625000 0.750000
vt 0.375000 0.750000
vt 0.250000 0.750000
vt 0.625000 0.750000
vt 0.375000 0.750000
vt 0.625000 0.500000
vt 0.750000 0.500000
vt 0.750000 0.750000
vt 0.750000 0.750000
vt 0.625000 0.875000
vt 0.375000 0.875000
vt 0.250000 0.750000
vt 0.000000 0.000000
vt 0.000000 0.000000
vt 0.000000 0.000000
vt 0.000000 0.000000
vt 0.750000 0.750000
vt 0.375000 0.500000
vt 0.625000 0.500000
vt 0.375000 0.375000
vt 0.625000 0.375000
vt 0.375000 0.500000
vt 0.000000 0.000000
vt 0.000000 0.000000
vt 0.000000 0.000000
vt 0.000000 0.000000
vt 0.375000 0.500000
vt 0.250000 0.500000
vt 0.250000 0.500000
vt 0.250000 0.500000
vt 0.375000 0.500000
vt 0.625000 0.500000
vt 0.000000 0.000000
vt 0.000000 0.000000
vt 0.000000 0.000000
vt 0.000000 0.000000
vt 0.750000 0.500000
vt 0.750000 0.500000
vt 0.750000 0.500000
vt 0.625000 0.500000
vt 0.625000 0.500000
vt 0.625000 0.750000
vt 0.625000 0.750000
vt 0.375000 0.750000
vt 0.375000 0.750000
vt 0.250000 0.500000
vt 0.250000 0.750000
vt 0.375000 0.500000
vt 0.375000 0.750000
vt 0.625000 0.750000
vt 0.250000 0.750000
vt 0.375000 0.750000
vt 0.625000 0.750000
vt 0.625000 0.500000
vt 0.750000 0.750000
vt 0.750000 0.500000
vt 0.750000 0.750000
vt 0.375000 0.875000
vt 0.625000 0.875000
vt 0.250000 0.750000
vt 0.000000 0.000000
vt 0.000000 0.000000
vt 0.000000 0.000000
vt 0.000000 0.000000
vt 0.750000 0.750000
vt 0.375000 0.500000
vt 0.625000 0.500000
vt 0.375000 0.375000
vt 0.375000 0.500000
vt 0.625000 0.375000
vt 0.000000 0.000000
vt 0.000000 0.000000
vt 0.000000 0.000000
vt 0.000000 0.000000
vt 0.375000 0.500000
vt 0.250000 0.500000
vt 0.250000 0.500000
vt 0.375000 0.500000
vt 0.250000 0.500000
vt 0.625000 0.500000
vt 0.000000 0.000000
vt 0.000000 0.000000
vt 0.000000 0.000000
vt 0.000000 0.000000
vt 0.750000 0.500000
vn -0.6218 0.0000 0.7832
vn -0.9727 -0.2319 0.0000
vn -0.0235 0.0346 -0.9991
vn 0.0000 -1.0000 0.0000
vn -0.5211 0.0000 -0.8535
vn 0.3674 -0.8273 0.4250
vn 0.0000 0.0000 1.0000
vn 0.4298 0.0279 0.9025
vn 0.4011 0.0285 0.9156
vn -0.7755 0.0000 -0.6314
vn 0.0000 1.0000 -0.0000
vn 0.8582 0.1222 0.4986
vn 0.0405 -0.7438 -0.6671
vn -0.0762 0.5761 0.8138
vn 0.9983 0.0549 -0.0218
vn 0.8393 -0.0095 0.5436
vn 0.0091 0.9999 -0.0061
vn -0.0341 -0.8943 0.4461
vn 0.4299 0.0476 -0.9016
vn 0.4578 0.0775 -0.8857
vn -0.0551 -0.7821 0.6208
vn -0.2945 0.0000 0.9556
vn 0.4256 0.0767 -0.9017
vn -0.1365 -0.7906 0.5970
vn 0.0028 0.9999 -0.0145
vn -0.4516 0.0000 0.8922
vn -0.9727 0.2319 0.0000
vn -0.0235 -0.0346 -0.9991
vn 0.3674 0.8273 0.4250
vn 0.4298 -0.0279 0.9025
vn 0.4011 -0.0285 0.9156
vn 0.8582 -0.1222 0.4986
vn 0.0405 0.7438 -0.6671
vn -0.0762 -0.5761 0.8138
vn 0.9983 -0.0549 -0.0218
vn 0.8393 0.0095 0.5436
vn 0.0091 -0.9999 -0.0061
vn -0.0341 0.8943 0.4461
vn 0.4299 -0.0476 -0.9016
vn 0.4578 -0.0775 -0.8857
vn -0.0551 0.7821 0.6208
vn 0.4256 -0.0767 -0.9017
vn -0.1365 0.7906 0.5970
vn 0.0028 -0.9999 -0.0145
s off
f 31/1/1 29/2/1 22/3/1 21/4/1
f 2/5/2 1/6/2 19/7/2 20/8/2
f 7/9/3 3/10/3 1/6/3 9/11/3
f 1/6/4 2/5/4 5/12/4 6/13/4
f 9/11/5 1/6/5 6/13/5 11/14/5
f 6/13/6 5/12/6 13/15/6 14/16/6
f 4/17/7 8/18/7 10/19/7 2/5/7
f 2/5/8 10/19/8 12/20/8 5/12/8
f 14/16/9 13/15/9 16/21/9 15/22/9
f 11/14/10 6/13/10 14/16/10 15/23/10
f 12/24/11 11/25/11 15/26/11 16/27/11
f 5/12/12 12/20/12 16/28/12 13/15/12
f 18/29/4 17/30/4 20/8/4 19/7/4
f 1/6/13 3/10/13 18/29/13 19/7/13
f 4/17/14 2/5/14 20/8/14 17/30/14
f 3/10/15 4/17/15 17/30/15 18/29/15
f 24/31/16 21/32/16 22/3/16 23/33/16
f 32/34/17 31/35/17 21/36/17 24/37/17
f 29/2/18 30/38/18 23/33/18 22/3/18
f 30/38/19 32/39/19 24/40/19 23/33/19
f 3/10/20 7/9/20 27/41/20 28/42/20
f 4/17/21 3/10/21 28/42/21 25/43/21
f 7/44/11 8/45/11 26/46/11 27/47/11
f 8/18/22 4/17/22 25/43/22 26/48/22
f 28/42/23 27/41/23 32/39/23 30/38/23
f 25/43/24 28/42/24 30/38/24 29/2/24
f 27/47/25 26/46/25 31/35/25 32/34/25
f 26/48/26 25/43/26 29/2/26 31/1/26
f 63/49/1 53/50/1 54/51/1 61/52/1
f 34/53/27 52/54/27 51/55/27 33/56/27
f 39/57/28 41/58/28 33/56/28 35/59/28
f 33/56/11 38/60/11 37/61/11 34/53/11
f 41/58/5 43/62/5 38/60/5 33/56/5
f 38/60/29 46/63/29 45/64/29 37/61/29
f 36/65/7 34/53/7 42/66/7 40/67/7
f 34/53/30 37/61/30 44/68/30 42/66/30
f 46/63/31 47/69/31 48/70/31 45/64/31
f 43/62/10 47/71/10 46/63/10 38/60/10
f 44/72/4 48/73/4 47/74/4 43/75/4
f 37/61/32 45/64/32 48/76/32 44/68/32
f 50/77/11 51/55/11 52/54/11 49/78/11
f 33/56/33 51/55/33 50/77/33 35/59/33
f 36/65/34 49/78/34 52/54/34 34/53/34
f 35/59/35 50/77/35 49/78/35 36/65/35
f 56/79/36 55/80/36 54/51/36 53/81/36
f 64/82/37 56/83/37 53/84/37 63/85/37
f 61/52/38 54/51/38 55/80/38 62/86/38
f 62/86/39 55/80/39 56/87/39 64/88/39
f 35/59/40 60/89/40 59/90/40 39/57/40
f 36/65/41 57/91/41 60/89/41 35/59/41
f 39/92/4 59/93/4 58/94/4 40/95/4
f 40/67/22 58/96/22 57/91/22 36/65/22
f 60/89/42 62/86/42 64/88/42 59/90/42
f 57/91/43 61/52/43 62/86/43 60/89/43
f 59/93/44 64/82/44 63/85/44 58/94/44
f 58/96/26 63/49/26 61/52/26 57/91/26
